<svg id="Layer_1" data-name="Layer 1" xmlns="http://www.w3.org/2000/svg" xmlns:xlink="http://www.w3.org/1999/xlink" viewBox="0 0 45.66 57.73"><defs><style>.cls-1,.cls-3,.cls-4,.cls-5,.cls-6{fill:none;}.cls-2{clip-path:url(#clip-path);}.cls-3,.cls-6{stroke:#bdc3c7;}.cls-3,.cls-4,.cls-5,.cls-6{stroke-miterlimit:10;}.cls-3{stroke-width:1.98px;}.cls-4{stroke:#7f8c8d;}.cls-4,.cls-5,.cls-6{stroke-width:0.46px;}.cls-5{stroke:#95a5a5;}.cls-7{fill:#95a5a5;}</style><clipPath id="clip-path"><rect class="cls-1" x="8.22" y="4.97" width="37.43" height="37.43" rx="0.69" ry="0.69"/></clipPath></defs><title>alice</title><g class="cls-2"><polygon class="cls-3" points="30.96 8.33 39.74 17.11 39.74 29.53 30.96 38.31 18.54 38.31 9.76 29.53 9.76 17.11 18.54 8.33 30.96 8.33"/><line class="cls-4" x1="24.75" y1="23.58" x2="24.75" y2="35.71"/><line class="cls-5" x1="24.75" y1="10.92" x2="24.75" y2="23.58"/><line class="cls-6" x1="37.14" y1="23.32" x2="12.35" y2="23.32"/><line class="cls-4" x1="33.51" y1="14.55" x2="15.98" y2="32.08"/><line class="cls-6" x1="33.51" y1="32.08" x2="15.98" y2="14.55"/><line class="cls-6" x1="30.09" y1="12.13" x2="19.41" y2="34.5"/><line class="cls-5" x1="35.93" y1="28.66" x2="13.56" y2="17.98"/><line class="cls-5" x1="36.43" y1="19.19" x2="13.06" y2="27.45"/><line class="cls-5" x1="28.43" y1="35.15" x2="21.07" y2="11.48"/><line class="cls-6" x1="26.55" y1="11.06" x2="22.94" y2="35.58"/><line class="cls-4" x1="37.01" y1="25.12" x2="12.49" y2="21.51"/><line class="cls-6" x1="34.7" y1="15.92" x2="14.8" y2="30.71"/><line class="cls-5" x1="32.14" y1="33.27" x2="17.35" y2="13.37"/><line class="cls-6" x1="31.66" y1="13.03" x2="17.84" y2="33.61"/><line class="cls-6" x1="35.04" y1="30.23" x2="14.46" y2="16.41"/><line class="cls-4" x1="36.91" y1="20.93" x2="12.59" y2="25.7"/><line class="cls-4" x1="24.8" y1="23.58" x2="22.36" y2="11.16"/><line class="cls-5" x1="27.13" y1="35.48" x2="24.8" y2="23.58"/><line class="cls-5" x1="28.35" y1="11.46" x2="21.14" y2="35.18"/><line class="cls-4" x1="36.61" y1="26.92" x2="12.89" y2="19.71"/><line class="cls-6" x1="19.32" y1="12.58" x2="30.05" y2="34.93"/><line class="cls-6" x1="24.97" y1="23.58" x2="13.72" y2="28.83"/><line class="cls-5" x1="35.42" y1="17.55" x2="24.97" y2="23.58"/></g><path class="cls-7" d="M10.38,48.25l-.71,1.67H8.38l3.26-7.38h1.28l3.23,7.38H14.81l-.71-1.67Zm1.86-4.38-1.39,3.28h2.78Z"/><path class="cls-7" d="M21.56,48.78v1.13H17.12V42.53h1.24v6.25Z"/><path class="cls-7" d="M22.75,49.91V42.53H24v7.38Z"/><path class="cls-7" d="M32,43.64l-.73.91a2.88,2.88,0,0,0-2.05-.94,2.6,2.6,0,1,0,0,5.2,3,3,0,0,0,2.05-.87l.74.82A4.19,4.19,0,0,1,29.16,50a3.73,3.73,0,1,1,0-7.46A4.07,4.07,0,0,1,32,43.64Z"/><path class="cls-7" d="M34.53,43.65v2h3.61v1.12H34.53v2h4.15v1.12h-5.4V42.53h5.27v1.12Z"/></svg>