<svg id="Layer_1" data-name="Layer 1" xmlns="http://www.w3.org/2000/svg" viewBox="0 0 71 68"><defs><style>.cls-1,.cls-2,.cls-3,.cls-4{fill:none;stroke-miterlimit:10;}.cls-1,.cls-3{stroke:#e64c3c;}.cls-1{stroke-width:2.59px;}.cls-2{stroke:#24ae5f;}.cls-2,.cls-3,.cls-4{stroke-width:0.6px;}.cls-4{stroke:#f29c1f;}.cls-5{fill:#2c3e50;}</style></defs><title>alice-color</title><polygon class="cls-1" points="46.16 8.33 57.64 19.81 57.64 36.05 46.16 47.52 29.93 47.52 18.45 36.05 18.45 19.81 29.93 8.33 46.16 8.33"/><line class="cls-2" x1="38.05" y1="28.28" x2="38.05" y2="44.13"/><line class="cls-3" x1="38.05" y1="11.73" x2="38.05" y2="28.28"/><line class="cls-4" x1="54.25" y1="27.93" x2="21.84" y2="27.93"/><line class="cls-2" x1="49.5" y1="16.47" x2="26.59" y2="39.38"/><line class="cls-4" x1="49.5" y1="39.38" x2="26.59" y2="16.47"/><line class="cls-4" x1="45.03" y1="13.31" x2="31.06" y2="42.55"/><line class="cls-3" x1="52.67" y1="34.91" x2="23.43" y2="20.95"/><line class="cls-3" x1="53.32" y1="22.53" x2="22.77" y2="33.33"/><line class="cls-3" x1="42.86" y1="43.4" x2="33.23" y2="12.46"/><line class="cls-4" x1="40.41" y1="11.9" x2="35.69" y2="43.96"/><line class="cls-2" x1="54.08" y1="30.29" x2="22.02" y2="25.57"/><line class="cls-4" x1="51.05" y1="18.26" x2="25.04" y2="37.59"/><line class="cls-3" x1="47.71" y1="40.93" x2="28.38" y2="14.92"/><line class="cls-4" x1="47.08" y1="14.48" x2="29.01" y2="41.38"/><line class="cls-4" x1="51.49" y1="36.96" x2="24.6" y2="18.89"/><line class="cls-2" x1="53.95" y1="24.81" x2="22.15" y2="31.05"/><line class="cls-2" x1="38.11" y1="28.27" x2="34.93" y2="12.03"/><line class="cls-3" x1="41.17" y1="43.83" x2="38.11" y2="28.27"/><line class="cls-3" x1="42.76" y1="12.43" x2="33.33" y2="43.43"/><line class="cls-2" x1="53.55" y1="32.64" x2="22.54" y2="23.22"/><line class="cls-4" x1="30.95" y1="13.89" x2="44.97" y2="43.1"/><line class="cls-4" x1="38.34" y1="28.28" x2="23.64" y2="35.13"/><line class="cls-3" x1="51.99" y1="20.39" x2="38.34" y2="28.28"/><path class="cls-5" d="M15.42,60.71l-1.11,2.61h-2l5.11-11.58h2l5.06,11.58H22.36l-1.11-2.61Zm2.91-6.88L16.14,59h4.37Z"/><path class="cls-5" d="M33,61.55v1.77H26V51.74h2v9.81Z"/><path class="cls-5" d="M34.82,63.32V51.74h2V63.32Z"/><path class="cls-5" d="M49.35,53.48,48.2,54.9A4.52,4.52,0,0,0,45,53.43a4.08,4.08,0,1,0,0,8.16,4.78,4.78,0,0,0,3.22-1.37l1.16,1.29a6.58,6.58,0,0,1-4.48,1.9,5.86,5.86,0,1,1,.07-11.71A6.39,6.39,0,0,1,49.35,53.48Z"/><path class="cls-5" d="M53.3,53.5v3.13H59v1.75H53.3v3.19h6.52v1.75H51.35V51.74h8.27V53.5Z"/></svg>