<svg id="Layer_1" data-name="Layer 1" xmlns="http://www.w3.org/2000/svg" xmlns:xlink="http://www.w3.org/1999/xlink" viewBox="0 0 71 68"><defs><style>.cls-1,.cls-3,.cls-4,.cls-6{fill:none;}.cls-2{clip-path:url(#clip-path);}.cls-3,.cls-4,.cls-6{stroke:#3b97d3;stroke-miterlimit:10;}.cls-3{stroke-width:1.88px;}.cls-4{stroke-width:1.25px;}.cls-5{fill:#fff;}.cls-6{stroke-width:1.94px;}.cls-7{fill:#3b97d3;}</style><clipPath id="clip-path"><rect class="cls-1" x="9.26" y="4.04" width="54.07" height="33.88"/></clipPath></defs><title>atlas-color</title><g class="cls-2"><circle class="cls-3" cx="37.23" cy="31.4" r="21.8"/><path class="cls-4" d="M25.44,13.09c4.87-2.27,12.92,4.68,18,15.53s5.22,21.49.35,23.76"/><rect class="cls-5" x="31.67" y="17.44" width="10.8" height="4.29" transform="translate(-3.87 10.54) rotate(-15.39)"/><path class="cls-4" d="M18.49,42.55S14,13.87,39.11,10.22"/><path class="cls-6" d="M16.42,37.92c-2-5,5.4-12.63,16.52-17.08s21.74-4,23.74,1"/><path class="cls-4" d="M55.81,19.14c2.27,4.87-4.68,12.92-15.53,18s-21.49,5.22-23.76.35"/><rect class="cls-5" x="22.87" y="38.88" width="10.8" height="4.29" transform="translate(49.66 -3.97) rotate(60)"/><path class="cls-6" d="M43.77,52.38c-4.87,2.27-12.92-4.68-18-15.53s-5.22-21.49-.35-23.76"/></g><path class="cls-7" d="M13.29,53.71l-.84,2.13h-3l5-11.58h3l4.88,11.58H19.18l-.83-2.13Zm2.55-6.52-1.69,4.28H17.5Z"/><path class="cls-7" d="M27.52,46.63v9.21H24.58V46.63H21.12V44.25H31v2.38Z"/><path class="cls-7" d="M40.13,53.38v2.46H32.27V44.27h2.94v9.11Z"/><path class="cls-7" d="M44.22,53.71l-.84,2.13h-3l5-11.58h3l4.88,11.58H50.1l-.83-2.13Zm2.55-6.52-1.69,4.28h3.34Z"/><path class="cls-7" d="M63.29,45.42l-1.11,2.3a8.62,8.62,0,0,0-3.71-1.21c-.76,0-1.27.28-1.27.84,0,2,6.12.86,6.12,5,0,2.32-2.05,3.54-4.63,3.54a8.64,8.64,0,0,1-5.29-1.85l1.14-2.27a7.22,7.22,0,0,0,4.18,1.74c.93,0,1.5-.35,1.5-1,0-2.05-6.12-.83-6.12-4.93,0-2.13,1.84-3.49,4.61-3.49A8.69,8.69,0,0,1,63.29,45.42Z"/><path class="cls-7" d="M11.71,59.78v1.11h2.67V62H11.71v1.13h3v1.12H10.29v-5.6h4.38v1.12Z"/><path class="cls-7" d="M20.94,64.26h-1.7L18,62.47l-1.21,1.78H15.16l2-2.86-1.87-2.73h1.65L18,60.29l1.08-1.63h1.67l-1.85,2.67Z"/><path class="cls-7" d="M24,58.66c1.43,0,2.25.7,2.25,2A2,2,0,0,1,24,62.68H23v1.58H21.56v-5.6Zm-1,2.9h.94c.62,0,1-.31,1-.9s-.36-.88-1-.88H23Z"/><path class="cls-7" d="M28.42,59.78v1.11h2.67V62H28.42v1.13h3v1.12H27v-5.6h4.38v1.12Z"/><path class="cls-7" d="M34.93,62.68H33.81v1.58H32.39v-5.6h2.5c1.48,0,2.33.7,2.33,2a1.87,1.87,0,0,1-1,1.8l1.17,1.85H35.76Zm0-1.12a.85.85,0,0,0,1-.9c0-.58-.36-.88-1-.88H33.81v1.78Z"/><path class="cls-7" d="M38.18,64.26v-5.6H39.6v5.6Z"/><path class="cls-7" d="M45.62,64.26V60.62L44.27,63.7h-.93L42,60.62v3.64H40.72v-5.6h1.56L43.8,62l1.52-3.33h1.55v5.6Z"/><path class="cls-7" d="M49.43,59.78v1.11H52.1V62H49.43v1.13h3v1.12H48v-5.6h4.38v1.12Z"/><path class="cls-7" d="M57.31,64.26l-2.58-3.45v3.45H53.4v-5.6h1.25l2.58,3.45V58.66h1.33v5.6Z"/><path class="cls-7" d="M62.28,59.8v4.45H60.85V59.8H59.18V58.65H64V59.8Z"/></svg>