<svg id="Layer_1" data-name="Layer 1" xmlns="http://www.w3.org/2000/svg" xmlns:xlink="http://www.w3.org/1999/xlink" viewBox="0 0 45.66 57.73"><defs><style>.cls-1{fill:none;}.cls-2{clip-path:url(#clip-path);}.cls-3{fill:#bdc3c7;}.cls-4{fill:#ecf0f1;}.cls-5{clip-path:url(#clip-path-2);}.cls-6{fill:#95a5a5;}</style><clipPath id="clip-path"><rect class="cls-1" x="59.07" y="7" width="43.7" height="43.13"/></clipPath><clipPath id="clip-path-2"><rect class="cls-1" x="2" y="3" width="41.81" height="26.2"/></clipPath></defs><title>atlas</title><g class="cls-2"><circle class="cls-3" cx="59.03" cy="50.13" r="43.13"/><circle class="cls-3" cx="59.03" cy="50.13" r="23.96"/><circle class="cls-4" cx="59.03" cy="50.13" r="16.46"/></g><g class="cls-5"><path class="cls-6" d="M23.63,41.74A17.58,17.58,0,1,1,41.21,24.15,17.61,17.61,0,0,1,23.63,41.74ZM23.63,8A16.13,16.13,0,1,0,39.76,24.15,16.15,16.15,0,0,0,23.63,8Z"/><path class="cls-6" d="M22.22,13.65l1.09-.3c-3.17-3.39-6.52-5-9-3.79l.41.88C16.68,9.52,19.48,10.86,22.22,13.65Z"/><path class="cls-6" d="M28.86,21.8a36.09,36.09,0,0,0-3.26-5.64l-1,.28A34.06,34.06,0,0,1,28,22.21c3.73,8,4,16.12.5,17.73l.41.88C33,38.92,32.94,30.56,28.86,21.8Z"/><path class="cls-6" d="M8.66,32.85c-.07-.45-1.66-11,3.91-18.58,2.83-3.84,7-6.19,12.43-7l.65.85c-5.16.75-9.64,3.08-12.31,6.7C8,22.08,9.6,32.59,9.62,32.7Z"/><path class="cls-6" d="M6.84,29.48C5.12,25.17,10.91,18.94,20,15.29a30.49,30.49,0,0,1,12.13-2.41c3.78.16,6.34,1.43,7.2,3.59L38,17c-.62-1.55-2.76-2.51-5.87-2.64a29.16,29.16,0,0,0-11.51,2.3C12.53,19.91,6.87,25.51,8.23,28.92Z"/><path class="cls-6" d="M14.41,31.1h-.19c-3.18,0-5.43-.84-6.18-2.44l-.87.4c.9,1.93,3.31,3,6.8,3h.26l.71,0Z"/><path class="cls-6" d="M38.06,14.68l-.87.4c.74,1.59,0,3.89-2.1,6.3a29,29,0,0,1-9.53,6.8A33,33,0,0,1,18,30.7l.51.88A34.25,34.25,0,0,0,26,29a29.93,29.93,0,0,0,9.85-7C38.19,19.26,39,16.66,38.06,14.68Z"/><path class="cls-6" d="M27.13,41.46c-1.75,0-3.76-.93-5.83-2.72a30.54,30.54,0,0,1-7.2-10.06A30.54,30.54,0,0,1,11,16.7c-.06-3.78,1.19-6.16,3.29-7.15l.41.88c-1.51.71-2.24,3.14-2.2,6.25A29,29,0,0,0,15.47,28a29,29,0,0,0,6.82,9.56c2.35,2,4.57,2.8,6.09,2.09L29,41.06A4.38,4.38,0,0,1,27.13,41.46Z"/></g><path class="cls-6" d="M5.12,41.41l-.65,1.65H2.13L6,34.1H8.33l3.77,9H9.67L9,41.41Zm2-5-1.3,3.31H8.37Z"/><path class="cls-6" d="M16.12,35.93v7.12H13.85V35.93H11.17V34.09h7.65v1.84Z"/><path class="cls-6" d="M25.87,41.15v1.91H19.79v-9h2.28v7Z"/><path class="cls-6" d="M29,41.41l-.65,1.65H26l3.86-9h2.34l3.77,9H33.58l-.64-1.65Zm2-5-1.3,3.31h2.58Z"/><path class="cls-6" d="M43.78,35l-.86,1.78a6.67,6.67,0,0,0-2.87-.93c-.59,0-1,.22-1,.65,0,1.55,4.73.67,4.73,3.9,0,1.79-1.59,2.74-3.58,2.74a6.68,6.68,0,0,1-4.09-1.43L37,39.95a5.58,5.58,0,0,0,3.24,1.34c.72,0,1.16-.27,1.16-.78,0-1.59-4.73-.64-4.73-3.81,0-1.65,1.42-2.7,3.57-2.7A6.72,6.72,0,0,1,43.78,35Z"/><path class="cls-6" d="M3.9,46.1V47H6v.87H3.9v.87H6.26v.87H2.8V45.23H6.19v.87Z"/><path class="cls-6" d="M11,49.56H9.71l-.93-1.38-.93,1.38H6.57l1.55-2.21L6.67,45.23H7.95l.84,1.26.83-1.26h1.29L9.48,47.3Z"/><path class="cls-6" d="M13.39,45.23c1.11,0,1.74.54,1.74,1.51a1.53,1.53,0,0,1-1.74,1.6h-.79v1.22h-1.1V45.23Zm-.79,2.24h.73c.48,0,.76-.24.76-.7s-.28-.68-.76-.68h-.73Z"/><path class="cls-6" d="M16.82,46.1V47h2.06v.87H16.82v.87h2.36v.87H15.72V45.23H19.1v.87Z"/><path class="cls-6" d="M21.85,48.34H21v1.22h-1.1V45.23h1.93c1.14,0,1.8.54,1.8,1.51a1.44,1.44,0,0,1-.79,1.39l.91,1.43H22.49Zm0-.87a.66.66,0,0,0,.75-.7c0-.45-.28-.68-.75-.68H21v1.38Z"/><path class="cls-6" d="M24.36,49.56V45.23h1.1v4.33Z"/><path class="cls-6" d="M30.11,49.56V46.75l-1,2.38h-.72l-1-2.38v2.81h-1V45.23h1.21l1.18,2.58,1.18-2.58h1.2v4.33Z"/><path class="cls-6" d="M33.06,46.1V47h2.06v.87H33.06v.87h2.36v.87H32V45.23h3.39v.87Z"/><path class="cls-6" d="M39.15,49.56l-2-2.66v2.66h-1V45.23h1l2,2.67V45.23h1v4.33Z"/><path class="cls-6" d="M43,46.12v3.44H41.9V46.12H40.6v-.89h3.7v.89Z"/></svg>