<svg id="Layer_1" data-name="Layer 1" xmlns="http://www.w3.org/2000/svg" xmlns:xlink="http://www.w3.org/1999/xlink" viewBox="0 0 71 68"><defs><style>.cls-1,.cls-7{fill:none;}.cls-2{clip-path:url(#clip-path);}.cls-3{fill:#59ace3;}.cls-4{fill:#f0c419;}.cls-5{fill:#ecf0f1;}.cls-6{fill:#26b99a;}.cls-7{stroke:#e57e25;stroke-linecap:round;stroke-linejoin:round;stroke-width:0.79px;}.cls-8{fill:#2c3e50;}</style><clipPath id="clip-path"><rect class="cls-1" x="6.93" y="6.86" width="57.29" height="56.55"/></clipPath></defs><title>cms-color</title><g class="cls-2"><circle class="cls-3" cx="6.89" cy="63.4" r="56.55"/><circle class="cls-4" cx="6.89" cy="63.4" r="31.41"/><circle class="cls-5" cx="6.89" cy="63.4" r="21.58"/><circle class="cls-6" cx="6.89" cy="63.4" r="12.24"/><path class="cls-7" d="M7.19,63.11C11.88,52,20.48,45.25,30.93,39.27c13.76-7.87,15.34-12,25.18-21.84"/><path class="cls-7" d="M51.93,53.75c-3.09,3.49-8,4.31-12.47,4.22-7.09-.13-14-2.86-21.13-2-3.68.45-9.47,3.95-11.4,7.42,5.1-9.18,15.13-15.82,25.2-18.7,13.55-3.86,23.19-12,25.53-14"/><path class="cls-7" d="M55.22,40.2c-6.07,6.87-16.56,9.3-22.27,9.75-8.52.67-23.46,6-26.81,15.49"/></g><path class="cls-8" d="M22.18,12.25,21,13.67a4.52,4.52,0,0,0-3.23-1.47,4.08,4.08,0,1,0,0,8.16A4.78,4.78,0,0,0,21,19l1.16,1.29a6.57,6.57,0,0,1-4.48,1.9,5.86,5.86,0,1,1,.07-11.71A6.39,6.39,0,0,1,22.18,12.25Z"/><path class="cls-8" d="M34.63,22.09l0-8.65L31,20.88H29.68L26,13.44v8.65H24.19V10.51H26.5l3.82,7.69,3.8-7.69h2.3V22.09Z"/><path class="cls-8" d="M47.35,11.62l-.81,1.72a6.92,6.92,0,0,0-3.39-1.08c-1.14,0-1.88.43-1.88,1.21,0,2.53,6.25,1.17,6.24,5.34,0,2.07-1.82,3.34-4.37,3.34a7.12,7.12,0,0,1-4.73-1.84l.84-1.69a6.1,6.1,0,0,0,3.92,1.69c1.36,0,2.17-.51,2.17-1.41,0-2.58-6.25-1.14-6.25-5.26,0-2,1.7-3.23,4.22-3.23A7.53,7.53,0,0,1,47.35,11.62Z"/></svg>