<svg id="Layer_1" data-name="Layer 1" xmlns="http://www.w3.org/2000/svg" xmlns:xlink="http://www.w3.org/1999/xlink" viewBox="0 0 52.34 57.73"><defs><style>.cls-1,.cls-6{fill:none;}.cls-2{clip-path:url(#clip-path);}.cls-3{fill:#bdc3c7;}.cls-4{fill:#ecf0f1;}.cls-5{fill:#fff;}.cls-6{stroke:#7f8c8d;stroke-linecap:round;stroke-linejoin:round;stroke-width:0.6px;}.cls-7{fill:#95a5a5;}</style><clipPath id="clip-path"><rect class="cls-1" x="4.49" y="7.35" width="43.7" height="43.13"/></clipPath></defs><title>cms</title><g class="cls-2"><circle class="cls-3" cx="4.46" cy="50.48" r="43.13"/><circle class="cls-3" cx="4.46" cy="50.48" r="23.96"/><circle class="cls-4" cx="4.46" cy="50.48" r="16.46"/><circle class="cls-5" cx="4.46" cy="50.48" r="9.34"/><path class="cls-6" d="M4.69,50.26C8.27,41.8,14.83,36.63,22.79,32.07c10.5-6,11.7-9.15,19.21-16.66"/><path class="cls-6" d="M38.81,43.12c-2.36,2.66-6.11,3.29-9.51,3.22-5.41-.1-10.67-2.18-16.11-1.52-2.81.34-7.22,3-8.69,5.66,3.89-7,11.54-12.07,19.22-14.26A54.55,54.55,0,0,0,43.18,25.57"/><path class="cls-6" d="M41.32,32.78c-4.63,5.24-12.63,7.09-17,7.43C17.83,40.72,6.45,44.78,3.89,52"/></g><path class="cls-7" d="M18.86,11.2l-1,1.3a4.13,4.13,0,0,0-2.94-1.34,3.72,3.72,0,1,0,0,7.44,4.37,4.37,0,0,0,2.94-1.25l1.06,1.18a6,6,0,0,1-4.09,1.74,5.35,5.35,0,1,1,.06-10.69A5.84,5.84,0,0,1,18.86,11.2Z"/><path class="cls-7" d="M30.22,20.18v-7.9l-3.34,6.8H25.7l-3.34-6.8v7.9H20.69V9.61H22.8l3.49,7,3.47-7h2.1V20.18Z"/><path class="cls-7" d="M41.83,10.62l-.74,1.57a6.32,6.32,0,0,0-3.1-1c-1,0-1.72.39-1.72,1.1,0,2.31,5.71,1.07,5.69,4.88,0,1.89-1.66,3.05-4,3.05a6.5,6.5,0,0,1-4.32-1.68L34.44,17A5.57,5.57,0,0,0,38,18.57c1.24,0,2-.47,2-1.28,0-2.36-5.71-1-5.71-4.8,0-1.81,1.56-2.94,3.85-2.94A6.88,6.88,0,0,1,41.83,10.62Z"/></svg>