<svg id="Layer_1" data-name="Layer 1" xmlns="http://www.w3.org/2000/svg" viewBox="0 0 149.34 95.33"><defs><style>.cls-1,.cls-2,.cls-3,.cls-4,.cls-5,.cls-6,.cls-7{fill:none;stroke:#ecf0f1;stroke-miterlimit:10;}.cls-1{stroke-width:1.05px;}.cls-2{stroke-width:1.49px;}.cls-3{stroke-width:1.73px;}.cls-4{stroke-width:0.36px;}.cls-5{stroke-width:0.91px;}.cls-6{stroke-width:0.55px;}.cls-7{stroke-width:0.18px;}.cls-8{fill:#e57e25;}</style></defs><title>education</title><path class="cls-1" d="M52.05,36.16A24.17,24.17,0,0,1,64.35,23"/><path class="cls-1" d="M53.2,56a24,24,0,0,1-2.58-8.3"/><path class="cls-1" d="M98.37,48.22a24,24,0,0,1-6.82,13.66,24.32,24.32,0,0,1-2.33,2.05"/><path class="cls-1" d="M75.77,20.79A24.13,24.13,0,0,1,95.71,33.38"/><path class="cls-2" d="M55.09,16.27a34.52,34.52,0,0,1,25.27-4.72"/><path class="cls-2" d="M39.57,40.11a34.3,34.3,0,0,1,4.06-11.73"/><path class="cls-2" d="M98.15,69.35a34.24,34.24,0,0,1-19.4,9.94,34.72,34.72,0,0,1-4.41.39"/><path class="cls-2" d="M107.89,42.93a34.26,34.26,0,0,1-.24,7.09"/><path class="cls-2" d="M102.74,27a34.16,34.16,0,0,1,3.93,8.88"/><path class="cls-3" d="M61.42,83.09A40.1,40.1,0,0,1,39.75,62.53"/><path class="cls-3" d="M94.43,81.44a39.85,39.85,0,0,1-13.8,4.18"/><path class="cls-3" d="M82,6.39a39.78,39.78,0,0,1,22.57,11.48,40.34,40.34,0,0,1,3.37,3.89"/><path class="cls-4" d="M57.53,58.9a22.44,22.44,0,0,1-2.9-4.64"/><path class="cls-5" d="M67,65.78q-.71-.27-1.39-.59"/><path class="cls-4" d="M85.59,64.71a22.51,22.51,0,0,1-7.78,2.42"/><path class="cls-4" d="M83.16,23.64a22.4,22.4,0,0,1,4.16,2.11"/><path class="cls-4" d="M78.26,22.38a22.55,22.55,0,0,1,4.9,1.26"/><path class="cls-4" d="M57.76,30.27q.65-.78,1.38-1.5A22.72,22.72,0,0,1,62,26.35"/><path class="cls-4" d="M52.56,43.55a22.62,22.62,0,0,1,1-5.52"/><path class="cls-6" d="M78.15,13a31.77,31.77,0,0,1,8,2.14"/><path class="cls-7" d="M62.27,14.93a31.7,31.7,0,0,1,6.3-1.75"/><path class="cls-7" d="M43.87,33.88a31.85,31.85,0,0,1,5.79-10"/><path class="cls-7" d="M92,71a31.8,31.8,0,0,1-19.46,5.59,32.25,32.25,0,0,1-4.09-.44"/><path class="cls-7" d="M105.64,48.66a31.82,31.82,0,0,1-1.49,6.42"/><path class="cls-4" d="M103.78,33.24a31.72,31.72,0,0,1,2,8.79"/><path class="cls-8" d="M18.74,66.79v2.78h6.68v2.8H18.74v2.82h7.62V78H15.18V64h11v2.8Z"/><path class="cls-8" d="M34.69,64c4.4,0,7.44,2.84,7.44,7S39,78,34.55,78H28.66V64ZM32.22,75.15h2.54c2.18,0,3.74-1.68,3.74-4.14a3.88,3.88,0,0,0-3.9-4.18H32.22Z"/><path class="cls-8" d="M56.61,72.11c0,3.7-2.46,6-6.38,6s-6.46-2.34-6.46-6V64h3.56v8.12a2.82,2.82,0,0,0,2.92,3.06,2.76,2.76,0,0,0,2.82-3.06V64h3.54Z"/><path class="cls-8" d="M71.37,66.23l-2.06,2.44a4.79,4.79,0,0,0-3.52-1.82,4.1,4.1,0,0,0,0,8.18,5.25,5.25,0,0,0,3.52-1.64l2.08,2.2a8.46,8.46,0,0,1-5.78,2.56A7.11,7.11,0,0,1,58.24,71c0-4,3.22-7.08,7.48-7.08A8.13,8.13,0,0,1,71.37,66.23Z"/><path class="cls-8" d="M76,75.41,75,78H71.36l6-14h3.66L87,78h-3.8l-1-2.58Zm3.08-7.88-2,5.18h4Z"/><path class="cls-8" d="M93.25,66.85V78H89.68V66.85H85.5V64h12v2.88Z"/><path class="cls-8" d="M99,78V64h3.56V78Z"/><path class="cls-8" d="M119.57,71c0,4.08-3.24,7.18-7.58,7.18A7.21,7.21,0,0,1,104.42,71c0-4.08,3.24-7.1,7.56-7.1S119.57,66.91,119.57,71Zm-11.5,0a4.07,4.07,0,0,0,4,4.18,4.17,4.17,0,1,0-4-4.18Z"/><path class="cls-8" d="M131.23,78l-6.44-8.62V78h-3.34V64h3.14L131,72.63V64h3.32V78Z"/><path class="cls-8" d="M74.95,50.21a1.12,1.12,0,0,1-.41-.08L56.68,43.18a1.13,1.13,0,0,1,.06-2.13l17.5-5.75a1.12,1.12,0,0,1,.72,0l17.86,6.1a1.13,1.13,0,0,1,0,2.13l-17.5,6.6A1.12,1.12,0,0,1,74.95,50.21Zm-14.51-8L75,47.87l14.16-5.34-14.52-5Z"/><path class="cls-8" d="M74.77,58.34a1.13,1.13,0,0,1-.33,0,23.61,23.61,0,0,1-4-1.72c-2.91-1.59-4.6-3.43-5-5.46a12.32,12.32,0,0,1,.25-3.42c.06-.43.12-.84.16-1.19a1.13,1.13,0,0,1,2.24.26c0,.36-.1.79-.17,1.24a17.75,17.75,0,0,0-.27,2.65c.54,2.65,5.08,4.67,7.17,5.37,2.08-.69,6.62-2.72,7.17-5.37A17.77,17.77,0,0,0,81.67,48c-.07-.51-.14-1-.18-1.38a1.13,1.13,0,0,1,2.25-.24c0,.37.11.82.18,1.31a12.36,12.36,0,0,1,.24,3.42c-.42,2-2.1,3.87-5,5.46a23.58,23.58,0,0,1-4,1.72A1.15,1.15,0,0,1,74.77,58.34Z"/><ellipse class="cls-8" cx="74.77" cy="41.68" rx="2.01" ry="0.67"/><path class="cls-8" d="M74.77,43.5c-1.95,0-3.15-.7-3.15-1.82s1.21-1.81,3.15-1.81,3.15.7,3.15,1.81S76.72,43.5,74.77,43.5Z"/><polygon class="cls-8" points="75.54 41.28 70.65 37.89 58.94 42.21 75.54 42.21 75.54 41.28"/><path class="cls-8" d="M75.54,43.35H58.94a1.15,1.15,0,0,1-.4-2.22l11.71-4.32a1.15,1.15,0,0,1,1.05.13l4.89,3.38a1.15,1.15,0,0,1,.49.94v.93A1.15,1.15,0,0,1,75.54,43.35ZM65.37,41.06h7.85l-2.73-1.89Z"/><polygon class="cls-8" points="57.96 42.3 57.96 52.67 61.78 50.64 61.78 44.33 57.96 42.3"/><path class="cls-8" d="M58.15,53.25a.58.58,0,0,1-.57-.57V42.3a.57.57,0,0,1,.84-.51l3.82,2a.58.58,0,0,1,.3.51v6.31a.57.57,0,0,1-.3.51l-3.82,2A.57.57,0,0,1,58.15,53.25Zm.57-10v8.46L61.4,50.3V44.68Z"/></svg>