<?xml version="1.0" encoding="UTF-8"?>
<svg width="600px" height="568px" viewBox="0 0 600 568" version="1.1" xmlns="http://www.w3.org/2000/svg" xmlns:xlink="http://www.w3.org/1999/xlink">
    <!-- Generator: Sketch 47.1 (45422) - http://www.bohemiancoding.com/sketch -->
    <title>Desktop HD</title>
    <desc>Created with Sketch.</desc>
    <defs></defs>
    <g id="Welcome" stroke="none" stroke-width="1" fill="none" fill-rule="evenodd">
        <g id="Desktop-HD" transform="translate(-815.000000, -13.000000)">
            <g id="header-image" transform="translate(572.000000, 13.000000)">
                <circle id="Oval" fill="#ECF0F1" fill-rule="nonzero" cx="292.449544" cy="205.406099" r="10.6679277"></circle>
                <polygon id="Shape" fill="#3B97D3" fill-rule="nonzero" points="476.725159 23.5493078 550.293927 284.850784 471.259986 25.1466446"></polygon>
                <polygon id="Shape" fill="#F29C1F" fill-rule="nonzero" points="858.112133 582.982283 574.824456 295.655627 862.151113 578.943303"></polygon>
                <polygon id="Shape" fill="#FFFFFF" fill-rule="nonzero" points="0.604706063 232.982978 542.717987 292.232762 0.0228190967 238.664933"></polygon>
                <polygon id="Shape" fill="#3B97D3" fill-rule="nonzero" points="998.449577 53.3396386 552.781209 293.156936 995.722695 48.3308469"></polygon>
                <path d="M413.185384,230.917849 C427.325649,194.496582 454.968814,164.932618 490.35957,148.381176" id="Shape" stroke="#BDC3C7" stroke-width="5.75"></path>
                <path d="M420.350581,355.726899 C411.826647,339.491427 406.336239,321.837056 404.149022,303.630901" id="Shape" stroke="#BDC3C7" stroke-width="5.75"></path>
                <path d="M703.877858,306.608793 C699.334584,339.080047 684.311056,369.179184 661.092051,392.32873 C656.499156,396.925524 651.617341,401.224266 646.47642,405.198701" id="Shape" stroke="#BDC3C7" stroke-width="5.75"></path>
                <path d="M562.034352,134.484347 C614.640379,137.247605 662.029396,167.153631 687.162869,213.449831" id="Shape" stroke="#BDC3C7" stroke-width="5.75"></path>
                <path d="M432.227921,106.1088 C479.308418,76.1886964 536.116093,65.5832348 590.820643,76.5010218" id="Shape" stroke="#BDC3C7" stroke-width="8.21"></path>
                <path d="M334.824606,255.722208 C338.7634,229.83175 347.393445,204.87731 360.290718,182.084982" id="Shape" stroke="#2C3E50" stroke-width="8.21"></path>
                <path d="M702.497302,439.199155 C669.790446,472.694758 627.039663,494.592966 580.746012,501.563746 C571.57304,502.962776 562.320078,503.774506 553.043628,503.99398" id="Shape" stroke="#BDC3C7" stroke-width="8.21"></path>
                <path d="M763.629663,273.407007 C764.668724,288.251575 764.163999,303.163906 762.123602,317.904246" id="Shape" stroke="#2C3E50" stroke-width="8.21"></path>
                <path d="M731.283593,173.630507 C742.123691,190.927426 750.43773,209.683959 755.973856,229.331922" id="Shape" stroke="#BDC3C7" stroke-width="8.21"></path>
                <path d="M471.955968,525.432521 C411.705977,501.536164 362.997772,455.316908 335.976971,396.401939" id="Shape" stroke="#3B97D3" stroke-width="9.54"></path>
                <path d="M679.096319,515.072651 C652.055315,529.016618 622.696973,537.90957 592.463618,541.314613" id="Shape" stroke="#BDC3C7" stroke-width="9.54"></path>
                <path d="M601.055008,44.109314 C654.876817,52.0375971 704.635769,77.3297274 742.761599,116.137793 C750.333146,123.817267 757.406263,131.972693 763.93772,140.554226" id="Shape" stroke="#BDC3C7" stroke-width="9.54"></path>
                <path d="M447.573763,373.63989 C440.320235,364.705291 434.189413,354.915133 429.318486,344.488494" id="Shape" stroke="#BDC3C7" stroke-width="2"></path>
                <path d="M506.698043,416.802211 C503.746773,415.661256 500.829732,414.421419 497.946919,413.082699" id="Shape" stroke="#BDC3C7" stroke-width="5"></path>
                <path d="M623.645914,410.093397 C608.431378,418.083153 591.886569,423.229482 574.824456,425.279506" id="Shape" stroke="#BDC3C7" stroke-width="2"></path>
                <path d="M608.391347,152.351699 C617.521058,155.837166 626.262408,160.265199 634.473575,165.563956" id="Shape" stroke="#BDC3C7" stroke-width="2"></path>
                <path d="M577.619796,144.433473 C588.153833,145.910215 598.487728,148.570236 608.425576,152.363109" id="Shape" stroke="#BDC3C7" stroke-width="2"></path>
                <path d="M448.999957,193.962322 C451.707823,190.714404 454.586832,187.565369 457.636985,184.515216 C463.176726,178.969845 469.164197,173.890607 475.538566,169.329107" id="Shape" stroke="#BDC3C7" stroke-width="2"></path>
                <path d="M416.345829,277.331892 C416.949749,265.56743 419.015542,253.923868 422.495576,242.669684" id="Shape" stroke="#BDC3C7" stroke-width="2"></path>
                <path d="M576.935223,85.5716127 C594.18345,87.8385373 611.060791,92.3532261 627.137235,99.0006512" id="Shape" stroke="#2C3E50" stroke-width="3"></path>
                <path d="M477.318456,97.6771436 C490.083393,92.6695799 503.331854,88.995187 516.852541,86.7125676" id="Shape" stroke="#2C3E50"></path>
                <path d="M361.831007,216.610276 C370.043178,193.711192 382.365832,172.503236 398.193238,154.028903" id="Shape" stroke="#BDC3C7"></path>
                <path d="M664.092763,449.399291 C628.329899,474.147145 585.461593,486.534884 542.010595,484.677615 C533.397219,484.328233 524.814968,483.42885 516.316292,481.984961" id="Shape" stroke="#BDC3C7"></path>
                <path d="M749.447594,309.347085 C747.743107,323.062551 744.619157,336.563976 740.125993,349.6342" id="Shape" stroke="#2C3E50"></path>
                <path d="M737.798445,212.628343 C744.588801,230.332778 748.814997,248.916516 750.348948,267.816329" id="Shape" stroke="#BDC3C7" stroke-width="2"></path>
                <circle id="Oval" fill="#3B97D3" fill-rule="nonzero" cx="462.269262" cy="134.484347" r="7.02828179"></circle>
                <circle id="Oval" fill="#2C3E50" fill-rule="nonzero" cx="317.379407" cy="400.007356" r="3.60541728"></circle>
                <circle id="Oval" fill="#E57E25" fill-rule="nonzero" cx="796.009961" cy="244.951594" r="10.382689"></circle>
                <circle id="Oval" fill="#3B97D3" fill-rule="nonzero" cx="303.117471" cy="209.022926" r="3.60541728"></circle>
                <circle id="Oval" fill="#E57E25" fill-rule="nonzero" cx="412.021611" cy="122.892245" r="3.60541728"></circle>
                <circle id="Oval" fill="#3B97D3" fill-rule="nonzero" cx="623.645914" cy="512.893428" r="3.60541728"></circle>
                <circle id="Oval" fill="#3B97D3" fill-rule="nonzero" cx="429.364124" cy="371.027103" r="3.60541728"></circle>
                <circle id="Oval" fill="#3B97D3" fill-rule="nonzero" cx="469.297543" cy="8.31756076" r="8.31756076"></circle>
                <circle id="Oval" fill="#E57E25" fill-rule="nonzero" cx="510.588699" cy="516.498845" r="5.73900283"></circle>
            </g>
        </g>
    </g>
</svg>