<svg id="Layer_1" data-name="Layer 1" xmlns="http://www.w3.org/2000/svg" viewBox="0 0 954.96 526.38"><defs><style>.cls-1{fill:#bdc3c7;}.cls-2{fill:#3b97d3;}.cls-3{fill:#ecf0f1;}.cls-4{fill:#f29c1f;}.cls-5{fill:#fff;}.cls-10,.cls-11,.cls-12,.cls-13,.cls-14,.cls-15,.cls-6,.cls-7,.cls-8,.cls-9{fill:none;stroke-miterlimit:10;}.cls-10,.cls-11,.cls-12,.cls-15,.cls-6,.cls-7{stroke:#bdc3c7;}.cls-6{stroke-width:5.75px;}.cls-7,.cls-8{stroke-width:8.21px;}.cls-13,.cls-14,.cls-8{stroke:#2c3e50;}.cls-9{stroke:#3b97d3;}.cls-10,.cls-9{stroke-width:9.54px;}.cls-11{stroke-width:2px;}.cls-12{stroke-width:5px;}.cls-13{stroke-width:3px;}.cls-16{fill:#283747;}.cls-17{fill:#2c3e50;}.cls-18{fill:#e57e25;}</style></defs><title>header-image</title><circle class="cls-1" cx="773.25" cy="118.87" r="7.29"/><circle class="cls-2" cx="114.67" cy="223.3" r="9.35"/><circle class="cls-3" cx="278.32" cy="187.03" r="9.35"/><polygon class="cls-2" points="439.83 27.64 504.31 256.66 435.04 29.04 439.83 27.64"/><polygon class="cls-4" points="774.1 517.96 525.81 266.13 777.64 514.42 774.1 517.96"/><polygon class="cls-5" points="22.53 211.2 497.67 263.13 22.02 216.18 22.53 211.2"/><polygon class="cls-2" points="897.1 53.75 506.49 263.94 894.71 49.36 897.1 53.75"/><path class="cls-6" d="M384.14,209.39a133,133,0,0,1,67.64-72.34"/><path class="cls-6" d="M390.42,318.78a132.13,132.13,0,0,1-14.2-45.66"/><path class="cls-6" d="M638.92,275.73a131.9,131.9,0,0,1-37.5,75.13,133.75,133.75,0,0,1-12.81,11.28"/><path class="cls-6" d="M514.6,124.87a132.71,132.71,0,0,1,109.67,69.21"/><path class="cls-7" d="M400.83,100a189.87,189.87,0,0,1,139-25.95"/><path class="cls-8" d="M315.46,231.13a188.67,188.67,0,0,1,22.32-64.54"/><path class="cls-7" d="M637.71,391.94A188.34,188.34,0,0,1,531,446.6a191,191,0,0,1-24.28,2.13"/><path class="cls-8" d="M691.29,246.63a188.46,188.46,0,0,1-1.32,39"/><path class="cls-7" d="M662.94,159.18A187.89,187.89,0,0,1,684.58,208"/><path class="cls-9" d="M435.65,467.52A220.59,220.59,0,0,1,316.47,354.43"/><path class="cls-10" d="M617.2,458.44a219.2,219.2,0,0,1-75.93,23"/><path class="cls-10" d="M548.8,45.66A218.81,218.81,0,0,1,673,108.79a221.89,221.89,0,0,1,18.56,21.4"/><path class="cls-11" d="M414.28,334.48a123.41,123.41,0,0,1-16-25.55"/><path class="cls-12" d="M466.1,372.31q-3.88-1.5-7.67-3.26"/><path class="cls-11" d="M568.6,366.43a123.8,123.8,0,0,1-42.79,13.31"/><path class="cls-11" d="M555.23,140.53a123.2,123.2,0,0,1,22.86,11.58"/><path class="cls-11" d="M528.26,133.59a124,124,0,0,1,27,6.95"/><path class="cls-11" d="M415.53,177q3.56-4.27,7.57-8.28a125,125,0,0,1,15.69-13.31"/><path class="cls-11" d="M386.91,250.07a124.43,124.43,0,0,1,5.39-30.38"/><path class="cls-13" d="M527.66,82a174.74,174.74,0,0,1,44,11.77"/><path class="cls-14" d="M440.35,92.61A174.36,174.36,0,0,1,475,83"/><path class="cls-15" d="M339.13,196.85A175.22,175.22,0,0,1,371,142"/><path class="cls-15" d="M604.05,400.88a174.91,174.91,0,0,1-107,30.92,177.37,177.37,0,0,1-22.52-2.36"/><path class="cls-14" d="M678.86,278.13a175,175,0,0,1-8.17,35.31"/><path class="cls-11" d="M668.65,193.36a174.49,174.49,0,0,1,11,48.37"/><circle class="cls-16" cx="503.49" cy="263.13" r="69.05"/><circle class="cls-2" cx="427.16" cy="124.87" r="6.16"/><circle class="cls-17" cx="300.17" cy="357.59" r="3.16"/><circle class="cls-18" cx="719.67" cy="221.69" r="9.1"/><path class="cls-5" d="M457.56,267.14a7.75,7.75,0,1,1-7.74-7.37A7.48,7.48,0,0,1,457.56,267.14Zm-13,0a5.24,5.24,0,0,0,5.26,5.2,5.18,5.18,0,1,0-5.26-5.2Z"/><path class="cls-5" d="M466,259.83c3.67,0,5.78,1.82,5.78,5S469.69,270,466,270h-3.36v4.4h-2.46V259.83Zm-3.36,8h3.26c2.25,0,3.53-1,3.53-2.94s-1.27-2.84-3.53-2.84h-3.26Z"/><path class="cls-5" d="M476.7,262V266h7.14v2.21H476.7v4h8.22v2.21H474.23V259.83h10.44V262Z"/><path class="cls-5" d="M498.17,274.44,490.39,264v10.48h-2.46V259.83h2.42l7.83,10.5v-10.5h2.42v14.61Z"/><path class="cls-5" d="M515.83,259.83a7.19,7.19,0,0,1,7.56,7.31c0,4.22-3.19,7.31-7.62,7.31h-5.93V259.83Zm-3.53,12.4h3.59a4.9,4.9,0,0,0,5-5.07,5,5,0,0,0-5.11-5.11H512.3Z"/><path class="cls-5" d="M527.71,271.15l-1.4,3.3h-2.57l6.45-14.61h2.53l6.39,14.61h-2.63l-1.4-3.3Zm3.67-8.68L528.62,269h5.51Z"/><path class="cls-5" d="M544.94,262v12.4h-2.46V262h-4.61v-2.21h11.71V262Z"/><path class="cls-5" d="M552.31,271.15l-1.4,3.3h-2.57l6.45-14.61h2.53l6.39,14.61h-2.63l-1.4-3.3Zm3.67-8.68L553.23,269h5.51Z"/><path class="cls-5" d="M478,282c2.66,0,4.18,1.31,4.18,3.61s-1.53,3.78-4.18,3.78h-2.43v3.19H473.8V282Zm-2.43,5.79h2.36c1.63,0,2.55-.69,2.55-2.13s-.92-2.05-2.55-2.05h-2.36Z"/><path class="cls-5" d="M494.3,287.29a5.61,5.61,0,1,1-5.6-5.33A5.41,5.41,0,0,1,494.3,287.29Zm-9.4,0a3.79,3.79,0,0,0,3.81,3.76,3.75,3.75,0,1,0-3.81-3.76Z"/><path class="cls-5" d="M501,289.38c-.15,0-.32,0-.48,0H498v3.19h-1.78V282h4.29c2.7,0,4.26,1.31,4.26,3.61a3.4,3.4,0,0,1-2.19,3.43l2.37,3.53h-2Zm-.48-1.59c1.63,0,2.57-.69,2.57-2.13s-.94-2.05-2.57-2.05H498v4.18Z"/><path class="cls-5" d="M511,283.61v9h-1.78v-9h-3.34V282h8.47v1.6Z"/><path class="cls-5" d="M516.34,290.19l-1,2.39h-1.86L518.14,282H520l4.62,10.57h-1.9l-1-2.39Zm2.66-6.28-2,4.7h4Z"/><path class="cls-5" d="M532.36,291v1.62H526V282h1.78v9Z"/><path class="cls-2" d="M491.08,244l-1.19,1.49a4.72,4.72,0,0,0-3.37-1.54,4.26,4.26,0,1,0,0,8.52,5,5,0,0,0,3.37-1.43l1.21,1.35a6.87,6.87,0,0,1-4.68,2,6.12,6.12,0,1,1,.07-12.23A6.67,6.67,0,0,1,491.08,244Z"/><path class="cls-2" d="M495.21,244v3.26h5.91v1.83h-5.91v3.33H502v1.83h-8.84V242.2h8.64V244Z"/><path class="cls-2" d="M510,250.63c-.17,0-.36,0-.55,0h-2.87v3.64h-2V242.2h4.91c3.09,0,4.87,1.5,4.87,4.13a3.88,3.88,0,0,1-2.5,3.92l2.71,4h-2.31Zm-.55-1.81c1.87,0,2.94-.79,2.94-2.44S511.27,244,509.4,244h-2.87v4.78Z"/><path class="cls-2" d="M525.47,254.29,519,245.62v8.67h-2V242.2h2l6.48,8.69V242.2h2v12.09Z"/><circle class="cls-18" cx="206.34" cy="87.79" r="3.16"/><circle class="cls-2" cx="287.67" cy="190.2" r="3.16"/><circle class="cls-18" cx="383.12" cy="114.71" r="3.16"/><circle class="cls-2" cx="568.6" cy="456.53" r="3.16"/><circle class="cls-2" cx="398.32" cy="332.19" r="3.16"/><circle class="cls-2" cx="433.32" cy="14.29" r="7.29"/><circle class="cls-18" cx="469.51" cy="459.69" r="5.03"/></svg>