<?xml version="1.0" encoding="UTF-8"?>
<svg width="82px" height="82px" viewBox="0 0 82 82" version="1.1" xmlns="http://www.w3.org/2000/svg" xmlns:xlink="http://www.w3.org/1999/xlink">
    <!-- Generator: Sketch 47.1 (45422) - http://www.bohemiancoding.com/sketch -->
    <title>Slice</title>
    <desc>Created with Sketch.</desc>
    <defs></defs>
    <g id="Page-1" stroke="none" stroke-width="1" fill="none" fill-rule="evenodd">
        <g id="education" transform="translate(5.000000, 1.000000)">
            <path d="M13.05,30.16 C15.3011468,24.3523239 19.7074691,19.6379173 25.35,17" id="Shape" stroke="#ECF0F1" stroke-width="1.05"></path>
            <path d="M14.2,50 C12.8420098,47.4134171 11.9676744,44.6006328 11.62,41.7" id="Shape" stroke="#ECF0F1" stroke-width="1.05"></path>
            <path d="M59.37,42.22 C58.6442156,47.394321 56.2496658,52.1904427 52.55,55.88 C51.8177696,56.6122418 51.0395188,57.2969689 50.22,57.93" id="Shape" stroke="#ECF0F1" stroke-width="1.05"></path>
            <path d="M36.77,14.79 C45.154358,15.2318265 52.7063105,20.0000854 56.71,27.38" id="Shape" stroke="#ECF0F1" stroke-width="1.05"></path>
            <path d="M16.09,10.27 C23.5915095,5.50194543 32.6431332,3.81125829 41.36,5.55" id="Shape" stroke="#ECF0F1" stroke-width="1.49"></path>
            <path d="M0.57,34.11 C1.19869232,29.9856236 2.57455048,26.0105457 4.63,22.38" id="Shape" stroke="#ECF0F1" stroke-width="1.49"></path>
            <path d="M59.15,63.35 C53.9388543,68.6882656 47.1268412,72.1785445 39.75,73.29 C38.2897936,73.5136843 36.8167998,73.643949 35.34,73.68" id="Shape" stroke="#ECF0F1" stroke-width="1.49"></path>
            <path d="M68.89,36.93 C69.0555571,39.2952709 68.975126,41.6713389 68.65,44.02" id="Shape" stroke="#ECF0F1" stroke-width="1.49"></path>
            <path d="M63.74,21 C65.4661873,23.7577477 66.7895556,26.7479539 67.67,29.88" id="Shape" stroke="#ECF0F1" stroke-width="1.49"></path>
            <path d="M22.42,77.09 C12.8183682,73.2832435 5.0559023,65.9183936 0.75,56.53" id="Shape" stroke="#ECF0F1" stroke-width="1.73"></path>
            <path d="M55.43,75.44 C51.1224463,77.6608881 46.4459064,79.0774053 41.63,79.62" id="Shape" stroke="#ECF0F1" stroke-width="1.73"></path>
            <path d="M43,0.39 C51.5729394,1.65611861 59.4979374,5.68708791 65.57,11.87 C66.7749896,13.093612 67.9006132,14.3929224 68.94,15.76" id="Shape" stroke="#ECF0F1" stroke-width="1.73"></path>
            <path d="M18.53,52.9 C17.377679,51.4774199 16.4037741,49.919172 15.63,48.26" id="Shape" stroke="#ECF0F1" stroke-width="0.36"></path>
            <path d="M28,59.78 C27.5266667,59.6 27.0633333,59.4033333 26.61,59.19" id="Shape" stroke="#ECF0F1" stroke-width="0.91"></path>
            <path d="M46.59,58.71 C44.1654623,59.9831979 41.5289485,60.803296 38.81,61.13" id="Shape" stroke="#ECF0F1" stroke-width="0.36"></path>
            <path d="M44.16,17.64 C45.6163177,18.1966455 47.0105416,18.903812 48.32,19.75" id="Shape" stroke="#ECF0F1" stroke-width="0.36"></path>
            <path d="M39.26,16.38 C40.9354276,16.6148595 42.5791037,17.0375191 44.16,17.64" id="Shape" stroke="#ECF0F1" stroke-width="0.36"></path>
            <path d="M18.76,24.27 C19.1933333,23.75 19.6533333,23.25 20.14,22.77 C21.0250857,21.8859739 21.9816704,21.0765561 23,20.35" id="Shape" stroke="#ECF0F1" stroke-width="0.36"></path>
            <path d="M13.56,37.55 C13.6629945,35.675634 13.9989105,33.8213778 14.56,32.03" id="Shape" stroke="#ECF0F1" stroke-width="0.36"></path>
            <path d="M39.15,7 C41.8986134,7.36123815 44.588123,8.08068197 47.15,9.14" id="Shape" stroke="#ECF0F1" stroke-width="0.55"></path>
            <path d="M23.27,8.93 C25.3040653,8.13107087 27.415293,7.54461873 29.57,7.18" id="Shape" stroke="#ECF0F1" stroke-width="0.18"></path>
            <path d="M4.87,27.88 C6.17412695,24.2215163 8.13641512,20.8324176 10.66,17.88" id="Shape" stroke="#ECF0F1" stroke-width="0.18"></path>
            <path d="M53,65 C47.2956108,68.9337409 40.4624538,70.8966056 33.54,70.59 C32.1686924,70.5305203 30.8025807,70.3835548 29.45,70.15" id="Shape" stroke="#ECF0F1" stroke-width="0.18"></path>
            <path d="M66.64,42.66 C66.3668907,44.8458053 65.8675463,46.9973429 65.15,49.08" id="Shape" stroke="#ECF0F1" stroke-width="0.18"></path>
            <path d="M64.78,27.24 C65.8617356,30.0598437 66.5352016,33.0197269 66.78,36.03" id="Shape" stroke="#ECF0F1" stroke-width="0.36"></path>
            <path d="M35.95,44.21 C35.8095257,44.2092815 35.6704403,44.1821428 35.54,44.13 L17.68,37.18 C17.2331146,37.0077636 16.9433434,36.5725219 16.956829,36.0937839 C16.9703145,35.6150459 17.2841275,35.1968066 17.74,35.05 L35.24,29.3 C35.4734585,29.2207545 35.7265415,29.2207545 35.96,29.3 L53.82,35.4 C54.2709411,35.5599353 54.5722766,35.9865366 54.5722766,36.465 C54.5722766,36.9434634 54.2709411,37.3700647 53.82,37.53 L36.32,44.13 C36.2020992,44.1774673 36.0769791,44.2045203 35.95,44.21 L35.95,44.21 Z M21.44,36.21 L36,41.87 L50.16,36.53 L35.64,31.53 L21.44,36.21 Z" id="Shape" fill="#E57E25" fill-rule="nonzero"></path>
            <path d="M35.77,52.34 C35.6605927,52.3561485 35.5494073,52.3561485 35.44,52.34 C34.0565334,51.8910988 32.7175075,51.3153177 31.44,50.62 C28.53,49.03 26.84,47.19 26.44,45.16 C26.3634974,44.0139199 26.4476457,42.8627719 26.69,41.74 C26.75,41.31 26.81,40.9 26.85,40.55 C26.9575978,39.9647762 27.5005933,39.5632643 28.0916579,39.63187 C28.6827226,39.7004757 29.1193124,40.2156895 29.09,40.81 C29.09,41.17 28.99,41.6 28.92,42.05 C28.7637531,42.9253239 28.6734991,43.8111509 28.65,44.7 C29.19,47.35 33.73,49.37 35.82,50.07 C37.9,49.38 42.44,47.35 42.99,44.7 C42.9524431,43.7931485 42.8454634,42.8905071 42.67,42 C42.6,41.49 42.53,41 42.49,40.62 C42.4237258,39.9986797 42.8736797,39.4412742 43.495,39.375 C44.1163203,39.3087258 44.6737258,39.7586797 44.74,40.38 C44.74,40.75 44.85,41.2 44.92,41.69 C45.1584856,42.8133157 45.2392624,43.9643862 45.16,45.11 C44.74,47.11 43.06,48.98 40.16,50.57 C38.8825675,51.2654719 37.543527,51.8412594 36.16,52.29 C36.0338343,52.3289318 35.9019064,52.3458456 35.77,52.34 Z" id="Shape" fill="#E57E25" fill-rule="nonzero"></path>
            <ellipse id="Oval" fill="#E57E25" fill-rule="nonzero" cx="35.77" cy="35.68" rx="2.01" ry="1"></ellipse>
            <path d="M35.77,37.5 C33.82,37.5 32.62,36.8 32.62,35.68 C32.62,34.56 33.83,33.87 35.77,33.87 C37.71,33.87 38.92,34.57 38.92,35.68 C38.92,36.79 37.72,37.5 35.77,37.5 Z" id="Shape" fill="#E57E25" fill-rule="nonzero"></path>
            <polygon id="Shape" fill="#E57E25" fill-rule="nonzero" points="36.54 35.28 31.65 31.89 19.94 36.21 36.54 36.21"></polygon>
            <path d="M36.54,37.35 L19.94,37.35 C19.3915113,37.3400103 18.9264432,36.9440001 18.8291664,36.4041142 C18.7318897,35.8642282 19.0294915,35.3308 19.54,35.13 L31.25,30.81 C31.6003377,30.6801994 31.9918965,30.7286781 32.3,30.94 L37.19,34.32 C37.4966174,34.534883 37.6794287,34.8855824 37.68,35.26 L37.68,36.19 C37.6826637,36.4950024 37.5640507,36.7885696 37.3502567,37.0061144 C37.1364628,37.2236591 36.8450026,37.3473593 36.54,37.35 L36.54,37.35 Z M26.37,35.06 L34.22,35.06 L31.49,33.17 L26.37,35.06 Z" id="Shape" fill="#E57E25" fill-rule="nonzero"></path>
            <polygon id="Shape" fill="#E57E25" fill-rule="nonzero" points="18.96 36.3 18.96 46.67 22.78 44.64 22.78 38.33"></polygon>
            <path d="M19.15,47.25 C18.8374381,47.2446559 18.5853441,46.9925619 18.58,46.68 L18.58,36.3 C18.5771524,36.0979989 18.6814406,35.9095813 18.8541258,35.8047367 C19.026811,35.6998921 19.2420918,35.6942857 19.42,35.79 L23.24,37.79 C23.4257145,37.8923733 23.5407535,38.0879397 23.54,38.3 L23.54,44.61 C23.5429752,44.8226548 23.4273135,45.0192797 23.24,45.12 L19.42,47.12 C19.3432056,47.1866391 19.2499838,47.2315236 19.15,47.25 Z M19.72,37.25 L19.72,45.71 L22.4,44.3 L22.4,38.68 L19.72,37.25 Z" id="Shape" fill="#E57E25" fill-rule="nonzero"></path>
        </g>
    </g>
</svg>