<svg id="Layer_1" data-name="Layer 1" xmlns="http://www.w3.org/2000/svg" xmlns:xlink="http://www.w3.org/1999/xlink" viewBox="0 0 52.34 57.73"><defs><style>.cls-1,.cls-5{fill:none;}.cls-2{fill:#bdc3c7;}.cls-3{fill:#95a5a5;}.cls-4{clip-path:url(#clip-path);}.cls-5{stroke:#7f8c8d;stroke-miterlimit:10;stroke-width:1.6px;}</style><clipPath id="clip-path"><rect class="cls-1" x="4.01" y="31.66" width="44.23" height="10.31"/></clipPath></defs><title>lhcb</title><path class="cls-2" d="M13,29.91H5l.08-.28a1.62,1.62,0,0,0,1.05-.28,2.71,2.71,0,0,0,.61-1.25L8.6,21.63a3.25,3.25,0,0,0,.16-.84.58.58,0,0,0-.22-.48,1.62,1.62,0,0,0-.88-.21l.08-.28h4.84l-.08.28a1.62,1.62,0,0,0-1,.31,2.6,2.6,0,0,0-.61,1.21L9.13,27.55a7.83,7.83,0,0,0-.33,1.37.36.36,0,0,0,.17.28.88.88,0,0,0,.54.13,5.32,5.32,0,0,0,2.38-.56,5.15,5.15,0,0,0,1.94-1.69h.31Z"/><path class="cls-2" d="M19.29,24.47H23l.82-2.82a3.55,3.55,0,0,0,.16-.88.54.54,0,0,0-.2-.45,2.07,2.07,0,0,0-1-.21l.08-.28h5l-.08.28a1.72,1.72,0,0,0-1.11.31A2.51,2.51,0,0,0,26,21.66l-1.87,6.45A3.7,3.7,0,0,0,24,29a.48.48,0,0,0,.2.42,1.72,1.72,0,0,0,.94.21l-.07.28H20.14l.11-.28a1.63,1.63,0,0,0,1.05-.28,2.64,2.64,0,0,0,.62-1.25l.87-3H19.12l-.86,3a3.56,3.56,0,0,0-.19.91.52.52,0,0,0,.23.43,1.71,1.71,0,0,0,.9.18l-.07.28H14.28l.08-.28a1.6,1.6,0,0,0,1-.28A2.7,2.7,0,0,0,16,28.11l1.87-6.45a3.35,3.35,0,0,0,.16-.88.55.55,0,0,0-.2-.46,2,2,0,0,0-.94-.21l.08-.28h4.93l-.11.28a1.57,1.57,0,0,0-1,.29,2.72,2.72,0,0,0-.64,1.25Z"/><path class="cls-2" d="M37.57,19.61l-.74,3.2h-.29a3,3,0,0,0-.64-2,2,2,0,0,0-1.54-.64,3.14,3.14,0,0,0-2,.88,6.68,6.68,0,0,0-1.72,2.68A7.89,7.89,0,0,0,30,26.66a2.76,2.76,0,0,0,.63,2,2.24,2.24,0,0,0,1.72.67A3.39,3.39,0,0,0,34,28.9a5.22,5.22,0,0,0,1.47-1.26h.36a6.18,6.18,0,0,1-1.86,1.94,4.44,4.44,0,0,1-2.3.56A4,4,0,0,1,28.71,29a3.88,3.88,0,0,1-1.11-2.88A6.2,6.2,0,0,1,28.48,23,6.63,6.63,0,0,1,31,20.54a6.7,6.7,0,0,1,3.3-.93,5.82,5.82,0,0,1,1.55.27,2.92,2.92,0,0,0,.66.13,1.06,1.06,0,0,0,.75-.4Z"/><path class="cls-2" d="M43.22,14.34l-2.16,7.57a7.62,7.62,0,0,1,1.83-1.5A3.52,3.52,0,0,1,44.54,20a2.61,2.61,0,0,1,2,.8A3,3,0,0,1,47.28,23a7,7,0,0,1-1,3.51,7.76,7.76,0,0,1-2.53,2.72,5.54,5.54,0,0,1-3,1,5.88,5.88,0,0,1-3.39-1.24l3.33-11.46a10.11,10.11,0,0,0,.38-1.55.52.52,0,0,0-.18-.43,1.19,1.19,0,0,0-.74-.2,4.86,4.86,0,0,0-.7.08V15ZM39,29.06a4.13,4.13,0,0,0,1.93.6,3.56,3.56,0,0,0,2-.71,5.59,5.59,0,0,0,1.8-2.38,8.11,8.11,0,0,0,.76-3.38,2.31,2.31,0,0,0-.5-1.58A1.52,1.52,0,0,0,43.79,21a3.09,3.09,0,0,0-2,.82,4.47,4.47,0,0,0-1.39,2.27Z"/><path class="cls-3" d="M14.14,34.48h-.31a5.15,5.15,0,0,0-1.94-1.69,5.32,5.32,0,0,0-2.38-.56.88.88,0,0,0-.54.13.36.36,0,0,0-.17.28A7.83,7.83,0,0,0,9.13,34l1.71,5.92a2.6,2.6,0,0,0,.61,1.21,1.62,1.62,0,0,0,1,.31l.08.28H7.74l-.08-.28a1.62,1.62,0,0,0,.88-.21.58.58,0,0,0,.22-.48,3.25,3.25,0,0,0-.16-.84L6.73,33.47a2.71,2.71,0,0,0-.61-1.25,1.62,1.62,0,0,0-1.05-.28L5,31.66h8Z"/><path class="cls-3" d="M20.14,39.92a2.72,2.72,0,0,0,.64,1.25,1.57,1.57,0,0,0,1,.29l.11.28H17l-.08-.28a2,2,0,0,0,.94-.21.55.55,0,0,0,.2-.46,3.35,3.35,0,0,0-.16-.88L16,33.47a2.7,2.7,0,0,0-.61-1.25,1.6,1.6,0,0,0-1-.28l-.08-.28h4.84l.07.28a1.71,1.71,0,0,0-.9.18.52.52,0,0,0-.23.43,3.56,3.56,0,0,0,.19.91l.86,3h3.67l-.87-3a2.64,2.64,0,0,0-.62-1.25,1.63,1.63,0,0,0-1.05-.28l-.11-.28H25l.07.28a1.72,1.72,0,0,0-.94.21.48.48,0,0,0-.2.42,3.7,3.7,0,0,0,.19.91L26,39.92a2.51,2.51,0,0,0,.65,1.23,1.72,1.72,0,0,0,1.11.31l.08.28h-5l-.08-.28a2.07,2.07,0,0,0,1-.21.54.54,0,0,0,.2-.45,3.55,3.55,0,0,0-.16-.88L23,37.1H19.29Z"/><path class="cls-3" d="M37.29,42a1.06,1.06,0,0,0-.75-.4,2.92,2.92,0,0,0-.66.13,5.82,5.82,0,0,1-1.55.27A6.7,6.7,0,0,1,31,41a6.63,6.63,0,0,1-2.54-2.44,6.2,6.2,0,0,1-.88-3.18,3.88,3.88,0,0,1,1.11-2.88,4,4,0,0,1,2.93-1.1,4.44,4.44,0,0,1,2.3.56,6.18,6.18,0,0,1,1.86,1.94h-.36A5.22,5.22,0,0,0,34,32.67a3.39,3.39,0,0,0-1.61-.39,2.24,2.24,0,0,0-1.72.67,2.76,2.76,0,0,0-.63,2,7.89,7.89,0,0,0,.57,2.89,6.68,6.68,0,0,0,1.72,2.68,3.14,3.14,0,0,0,2,.88,2,2,0,0,0,1.54-.64,3,3,0,0,0,.64-2h.29l.74,3.2Z"/><path class="cls-3" d="M39.44,46.62V46.2a4.86,4.86,0,0,0,.7.08,1.19,1.19,0,0,0,.74-.2.52.52,0,0,0,.18-.43,10.11,10.11,0,0,0-.38-1.55L37.34,32.64a5.88,5.88,0,0,1,3.39-1.24,5.54,5.54,0,0,1,3,1,7.76,7.76,0,0,1,2.53,2.72,7,7,0,0,1,1,3.51,3,3,0,0,1-.77,2.17,2.61,2.61,0,0,1-2,.8,3.52,3.52,0,0,1-1.64-.41,7.62,7.62,0,0,1-1.83-1.5l2.16,7.57Zm1-9.18a4.47,4.47,0,0,0,1.39,2.27,3.09,3.09,0,0,0,2,.82A1.52,1.52,0,0,0,45,40a2.31,2.31,0,0,0,.5-1.58A8.11,8.11,0,0,0,44.71,35a5.59,5.59,0,0,0-1.8-2.38,3.56,3.56,0,0,0-2-.71,4.13,4.13,0,0,0-1.93.6Z"/><g class="cls-4"><line class="cls-5" x1="49.45" y1="27.97" x2="27.06" y2="44.13"/></g></svg>