<svg id="Layer_1" data-name="Layer 1" xmlns="http://www.w3.org/2000/svg" xmlns:xlink="http://www.w3.org/1999/xlink" viewBox="0 0 71 68"><defs><style>.cls-1,.cls-5{fill:none;}.cls-2{fill:#2c3e50;}.cls-3{fill:#27aae1;}.cls-4{clip-path:url(#clip-path);}.cls-5{stroke:#e64c3c;stroke-miterlimit:10;stroke-width:2.27px;}</style><clipPath id="clip-path"><rect class="cls-1" x="4.59" y="37.44" width="62.81" height="14.63"/></clipPath></defs><title>lhcb-color</title><path class="cls-2" d="M17.4,35H6l.12-.39a2.29,2.29,0,0,0,1.49-.4,3.85,3.85,0,0,0,.87-1.78l2.66-9.19A4.61,4.61,0,0,0,11.33,22a.82.82,0,0,0-.32-.68A2.3,2.3,0,0,0,9.77,21l.12-.39h6.87l-.12.39a2.3,2.3,0,0,0-1.48.44,3.69,3.69,0,0,0-.87,1.72l-2.43,8.41a11.12,11.12,0,0,0-.46,2,.51.51,0,0,0,.24.4,1.25,1.25,0,0,0,.76.18,7.56,7.56,0,0,0,3.38-.8,7.32,7.32,0,0,0,2.76-2.39H19Z"/><path class="cls-2" d="M26.29,27.23h5.23l1.16-4A5,5,0,0,0,32.92,22a.76.76,0,0,0-.29-.64,2.94,2.94,0,0,0-1.37-.3l.12-.39h7.11l-.12.39a2.44,2.44,0,0,0-1.58.44,3.57,3.57,0,0,0-.92,1.75l-2.66,9.16a5.25,5.25,0,0,0-.26,1.29.68.68,0,0,0,.28.59,2.45,2.45,0,0,0,1.34.3l-.11.39h-7l.16-.39a2.32,2.32,0,0,0,1.49-.4A3.75,3.75,0,0,0,30,32.39l1.24-4.26H26l-1.22,4.26a5.06,5.06,0,0,0-.26,1.3.73.73,0,0,0,.32.62,2.42,2.42,0,0,0,1.27.26L26,35H19.17l.12-.39a2.27,2.27,0,0,0,1.48-.4,3.84,3.84,0,0,0,.87-1.78l2.66-9.16A4.76,4.76,0,0,0,24.53,22a.78.78,0,0,0-.28-.65,2.81,2.81,0,0,0-1.33-.3l.12-.39h7l-.16.39a2.23,2.23,0,0,0-1.47.42,3.86,3.86,0,0,0-.91,1.78Z"/><path class="cls-2" d="M52.25,20.32l-1.06,4.55h-.41a4.25,4.25,0,0,0-.91-2.77,2.84,2.84,0,0,0-2.19-.91,4.46,4.46,0,0,0-2.9,1.25,9.49,9.49,0,0,0-2.45,3.81,11.21,11.21,0,0,0-.81,4.1,3.91,3.91,0,0,0,.89,2.77,3.18,3.18,0,0,0,2.44,1,4.81,4.81,0,0,0,2.29-.55,7.41,7.41,0,0,0,2.09-1.78h.51a8.78,8.78,0,0,1-2.64,2.75,6.3,6.3,0,0,1-3.27.79,5.65,5.65,0,0,1-4.16-1.57,5.51,5.51,0,0,1-1.58-4.09,8.8,8.8,0,0,1,1.26-4.51A9.42,9.42,0,0,1,43,21.64a9.51,9.51,0,0,1,4.69-1.32,8.26,8.26,0,0,1,2.21.38,4.15,4.15,0,0,0,.94.19,1.51,1.51,0,0,0,1.07-.57Z"/><path class="cls-2" d="M60.28,12.84,57.21,23.58a10.82,10.82,0,0,1,2.6-2.13,5,5,0,0,1,2.32-.58A3.71,3.71,0,0,1,64.94,22,4.26,4.26,0,0,1,66,25.09a9.89,9.89,0,0,1-1.43,5A11,11,0,0,1,61,33.94a7.87,7.87,0,0,1-4.26,1.38,8.35,8.35,0,0,1-4.82-1.76l4.73-16.28a14.36,14.36,0,0,0,.54-2.21.74.74,0,0,0-.25-.61,1.69,1.69,0,0,0-1.06-.28,6.9,6.9,0,0,0-1,.11v-.59Zm-6,20.9a5.86,5.86,0,0,0,2.74.86,5.06,5.06,0,0,0,2.84-1,7.94,7.94,0,0,0,2.55-3.38,11.51,11.51,0,0,0,1.08-4.8,3.28,3.28,0,0,0-.71-2.24,2.16,2.16,0,0,0-1.67-.81,4.39,4.39,0,0,0-2.83,1.16,6.35,6.35,0,0,0-2,3.23Z"/><path class="cls-3" d="M19,41.45h-.44a7.32,7.32,0,0,0-2.76-2.39,7.56,7.56,0,0,0-3.38-.8,1.25,1.25,0,0,0-.76.18.51.51,0,0,0-.24.4,11.12,11.12,0,0,0,.46,2l2.43,8.41a3.69,3.69,0,0,0,.87,1.72,2.3,2.3,0,0,0,1.48.44l.12.39H9.88l-.12-.39a2.3,2.3,0,0,0,1.25-.3.82.82,0,0,0,.32-.68,4.61,4.61,0,0,0-.22-1.19L8.45,40a3.85,3.85,0,0,0-.87-1.78,2.29,2.29,0,0,0-1.49-.4L6,37.44H17.4Z"/><path class="cls-3" d="M27.49,49.16a3.86,3.86,0,0,0,.91,1.78,2.23,2.23,0,0,0,1.47.42l.16.39H23l-.12-.39a2.81,2.81,0,0,0,1.33-.3.78.78,0,0,0,.28-.65,4.76,4.76,0,0,0-.23-1.25L21.64,40a3.84,3.84,0,0,0-.87-1.78,2.27,2.27,0,0,0-1.48-.4l-.12-.39H26l.11.39a2.42,2.42,0,0,0-1.27.26.73.73,0,0,0-.32.62,5.06,5.06,0,0,0,.26,1.3L26,44.26h5.21L30,40a3.75,3.75,0,0,0-.88-1.78,2.32,2.32,0,0,0-1.49-.4l-.16-.39h7l.11.39a2.45,2.45,0,0,0-1.34.3.68.68,0,0,0-.28.59A5.25,5.25,0,0,0,33.21,40l2.66,9.16a3.57,3.57,0,0,0,.92,1.75,2.44,2.44,0,0,0,1.58.44l.12.39H31.37l-.12-.39a2.94,2.94,0,0,0,1.37-.3.76.76,0,0,0,.29-.64,5,5,0,0,0-.23-1.26l-1.16-4H26.29Z"/><path class="cls-3" d="M51.86,52.07a1.51,1.51,0,0,0-1.07-.57,4.15,4.15,0,0,0-.94.19,8.26,8.26,0,0,1-2.21.38A9.51,9.51,0,0,1,43,50.75a9.42,9.42,0,0,1-3.61-3.47,8.8,8.8,0,0,1-1.26-4.51,5.51,5.51,0,0,1,1.58-4.09,5.65,5.65,0,0,1,4.16-1.57,6.3,6.3,0,0,1,3.27.79,8.78,8.78,0,0,1,2.64,2.75h-.51a7.41,7.41,0,0,0-2.09-1.78,4.81,4.81,0,0,0-2.29-.55,3.18,3.18,0,0,0-2.44,1A3.91,3.91,0,0,0,41.52,42a11.21,11.21,0,0,0,.81,4.1A9.49,9.49,0,0,0,44.78,50a4.46,4.46,0,0,0,2.9,1.25,2.84,2.84,0,0,0,2.19-.91,4.25,4.25,0,0,0,.91-2.77h.41l1.06,4.55Z"/><path class="cls-3" d="M54.9,58.68v-.59a6.9,6.9,0,0,0,1,.11,1.69,1.69,0,0,0,1.06-.28.74.74,0,0,0,.25-.61,14.36,14.36,0,0,0-.54-2.21L51.93,38.82a8.35,8.35,0,0,1,4.82-1.76A7.87,7.87,0,0,1,61,38.45a11,11,0,0,1,3.59,3.86,9.89,9.89,0,0,1,1.43,5,4.26,4.26,0,0,1-1.09,3.08,3.71,3.71,0,0,1-2.8,1.14,5,5,0,0,1-2.32-.58,10.82,10.82,0,0,1-2.6-2.13l3.06,10.74Zm1.38-13a6.35,6.35,0,0,0,2,3.23A4.39,4.39,0,0,0,61.09,50a2.16,2.16,0,0,0,1.67-.81A3.28,3.28,0,0,0,63.46,47a11.51,11.51,0,0,0-1.08-4.8,7.94,7.94,0,0,0-2.55-3.38,5.06,5.06,0,0,0-2.84-1,5.86,5.86,0,0,0-2.74.86Z"/><g class="cls-4"><line class="cls-5" x1="69.12" y1="32.2" x2="37.32" y2="55.14"/></g></svg>