<svg id="Layer_1" data-name="Layer 1" xmlns="http://www.w3.org/2000/svg" viewBox="0 0 226 42.76"><defs><style>.cls-1{fill:#fff;}.cls-2{fill:#3b97d3;}</style></defs><title>logo-long</title><path class="cls-1" d="M23.94,26.21a7.46,7.46,0,0,1-7.73,7.39,7.38,7.38,0,1,1,0-14.75A7.43,7.43,0,0,1,23.94,26.21Zm-13,0a5.23,5.23,0,0,0,5.25,5.19A5.17,5.17,0,1,0,11,26.21Z"/><path class="cls-1" d="M32.37,18.92c3.67,0,5.77,1.81,5.77,5S36,29.1,32.37,29.1H29V33.5H26.56V18.92Zm-3.35,8h3.25c2.25,0,3.52-1,3.52-2.94s-1.27-2.83-3.52-2.83H29Z"/><path class="cls-1" d="M43,21.12v3.94h7.12v2.21H43v4h8.21V33.5H40.57V18.92H51v2.21Z"/><path class="cls-1" d="M64.46,33.5,56.69,23V33.5H54.23V18.92h2.42l7.81,10.48V18.92h2.42V33.5Z"/><path class="cls-1" d="M82.08,18.92a7.17,7.17,0,0,1,7.54,7.29c0,4.21-3.19,7.29-7.6,7.29H76.1V18.92ZM78.56,31.29h3.58a4.89,4.89,0,0,0,5-5.06,5,5,0,0,0-5.1-5.1H78.56Z"/><path class="cls-1" d="M93.93,30.21l-1.4,3.29H90l6.44-14.58h2.52L105.3,33.5h-2.62l-1.4-3.29Zm3.67-8.66L94.84,28h5.5Z"/><path class="cls-1" d="M111.13,21.12V33.5h-2.46V21.12h-4.6V18.92h11.68v2.21Z"/><path class="cls-1" d="M118.48,30.21l-1.4,3.29h-2.56L121,18.92h2.52l6.37,14.58h-2.62l-1.4-3.29Zm3.67-8.66L119.4,28h5.5Z"/><path class="cls-1" d="M143,18.92c3.67,0,5.77,1.81,5.77,5s-2.1,5.21-5.77,5.21h-3.35V33.5h-2.46V18.92Zm-3.35,8h3.25c2.25,0,3.52-1,3.52-2.94s-1.27-2.83-3.52-2.83h-3.25Z"/><path class="cls-1" d="M165.42,26.21a7.74,7.74,0,1,1-7.73-7.35A7.46,7.46,0,0,1,165.42,26.21Zm-13,0a5.23,5.23,0,0,0,5.25,5.19,5.17,5.17,0,1,0-5.25-5.19Z"/><path class="cls-1" d="M174.62,29.08c-.21,0-.44,0-.67,0H170.5V33.5H168V18.92H174c3.73,0,5.87,1.81,5.87,5a4.68,4.68,0,0,1-3,4.73l3.27,4.87h-2.79ZM174,26.89c2.25,0,3.54-1,3.54-2.94s-1.29-2.83-3.54-2.83H170.5v5.77Z"/><path class="cls-1" d="M188.43,21.12V33.5H186V21.12h-4.6V18.92h11.68v2.21Z"/><path class="cls-1" d="M195.78,30.21l-1.4,3.29h-2.56l6.44-14.58h2.52l6.37,14.58h-2.62l-1.4-3.29Zm3.67-8.66L196.7,28h5.5Z"/><path class="cls-1" d="M217.86,31.27V33.5h-8.77V18.92h2.46V31.27Z"/><path class="cls-2" d="M17.37,5.82l-1,1.23a3.93,3.93,0,0,0-2.8-1.28,3.54,3.54,0,1,0,0,7.08,4.16,4.16,0,0,0,2.8-1.19l1,1.12a5.71,5.71,0,0,1-3.89,1.65,5.09,5.09,0,1,1,.06-10.17A5.55,5.55,0,0,1,17.37,5.82Z"/><path class="cls-2" d="M20.8,5.83V8.54h4.91v1.52H20.8v2.77h5.66v1.52H19.1V4.31h7.18V5.83Z"/><path class="cls-2" d="M33.06,11.31H30.22v3H28.53V4.31H32.6c2.57,0,4,1.25,4,3.43A3.23,3.23,0,0,1,34.57,11l2.25,3.36H34.9ZM32.6,9.81c1.55,0,2.44-.66,2.44-2s-.89-2-2.44-2H30.22v4Z"/><path class="cls-2" d="M46,14.36,40.6,7.15v7.21H38.91V4.31h1.67L46,11.53V4.31h1.67V14.36Z"/></svg>