<svg id="Layer_1" data-name="Layer 1" xmlns="http://www.w3.org/2000/svg" viewBox="0 0 77.33 87.75"><defs><style>.cls-1{fill:#2c3e50;}.cls-2{fill:#3b97d3;}</style></defs><title>model</title><path class="cls-1" d="M43.49,63.62h-1a.08.08,0,0,1-.08-.08.07.07,0,0,1,.08-.08h1a.08.08,0,0,1,.08.08A.08.08,0,0,1,43.49,63.62Zm-2.56,0h0l-1.59-.07a.08.08,0,0,1-.07-.09.07.07,0,0,1,.08-.07h0l1.59.07a.08.08,0,0,1,0,.16Zm-3.18-.17h0l-1.59-.13a.07.07,0,0,1-.07-.09.08.08,0,0,1,.08-.07l1.59.12a.08.08,0,0,1,.08.09A.09.09,0,0,1,37.74,63.41Zm-3.18-.27h0L33,63a.08.08,0,0,1-.07-.09A.08.08,0,0,1,33,62.8h0l1.58.17a.08.08,0,0,1,.08.09A.08.08,0,0,1,34.56,63.13Zm-3.16-.36h0l-1.58-.21a.08.08,0,0,1-.07-.09.07.07,0,0,1,.09-.07l1.58.21a.08.08,0,0,1,.07.09A.08.08,0,0,1,31.4,62.78Zm-3.17-.43h0l-1.58-.24a.08.08,0,0,1-.07-.09.08.08,0,0,1,.09-.07l1.57.24a.08.08,0,0,1,.07.09A.08.08,0,0,1,28.23,62.34Zm-3.14-.5h0l-1.57-.28a.08.08,0,0,1-.07-.1.07.07,0,0,1,.09-.06l1.57.28a.08.08,0,0,1,.07.09A.08.08,0,0,1,25.09,61.84ZM22,61.26h0l-1.56-.32a.08.08,0,0,1-.07-.09.08.08,0,0,1,.1-.06l1.56.32a.08.08,0,0,1,0,.16Zm-3.12-.65h0l-1.56-.36a.08.08,0,0,1,0-.16l1.55.36a.08.08,0,0,1,0,.16Zm-3.1-.74h0l-1.54-.41a.08.08,0,0,1-.06-.1.08.08,0,0,1,.1-.05l1.54.41a.08.08,0,0,1,.06.1A.07.07,0,0,1,15.73,59.87ZM12.66,59h0l-1.52-.49a.08.08,0,0,1,0-.1.08.08,0,0,1,.1-.05l1.51.49a.08.08,0,0,1,.06.1A.09.09,0,0,1,12.66,59Zm-3-1h0c-.55-.21-1-.43-1.47-.63a.07.07,0,0,1,0-.1.08.08,0,0,1,.11,0c.43.21.92.41,1.46.62a.08.08,0,0,1,0,.1A.07.07,0,0,1,9.64,58ZM6.79,56.58h0c-.63-.45-.95-.87-.95-1.26a.08.08,0,1,1,.15,0c0,.34.3.72.88,1.13a.09.09,0,0,1,0,.11A.08.08,0,0,1,6.79,56.58Z"/><path class="cls-1" d="M28.12,32.17h0a.08.08,0,0,1-.08-.08c0-.53,0-1.06,0-1.59a.07.07,0,0,1,.08-.07h0a.08.08,0,0,1,.07.08c0,.53,0,1.07,0,1.59A.08.08,0,0,1,28.12,32.17ZM28.24,29h0a.08.08,0,0,1-.08-.08c0-.53.08-1.06.13-1.59a.08.08,0,0,1,.08-.07h0a.08.08,0,0,1,.07.09c0,.52-.1,1.05-.12,1.58A.08.08,0,0,1,28.24,29Zm.31-3.16h0a.08.08,0,0,1-.07-.09c.07-.54.15-1.07.24-1.58a.09.09,0,0,1,.1-.06.08.08,0,0,1,.06.09c-.09.51-.17,1-.25,1.57A.08.08,0,0,1,28.55,25.82Zm.56-3.13h0a.08.08,0,0,1-.06-.1c.12-.53.26-1,.4-1.54a.08.08,0,0,1,.1-.05.07.07,0,0,1,.06.1c-.15.49-.28,1-.41,1.54A.08.08,0,0,1,29.11,22.69ZM30,19.64h0a.08.08,0,0,1-.05-.1c.2-.52.41-1,.64-1.46a.09.09,0,0,1,.11,0,.09.09,0,0,1,0,.1,15.67,15.67,0,0,0-.64,1.46A.07.07,0,0,1,30,19.64Zm1.41-2.84h0a.08.08,0,0,1,0-.11,10.56,10.56,0,0,1,1-1.28.08.08,0,0,1,.11,0,.09.09,0,0,1,0,.12,11,11,0,0,0-1,1.25A.07.07,0,0,1,31.44,16.79Zm2.12-2.35a.07.07,0,0,1-.06,0,.08.08,0,0,1,0-.11,7.53,7.53,0,0,1,1.38-.83.08.08,0,0,1,.1,0,.09.09,0,0,1,0,.11,7,7,0,0,0-1.34.81Zm2.87-1.31a.08.08,0,0,1-.08-.06.09.09,0,0,1,.06-.1A7.9,7.9,0,0,1,38,12.81.08.08,0,1,1,38,13a7.67,7.67,0,0,0-1.56.16Z"/><path class="cls-2" d="M38,80.88A34.14,34.14,0,1,1,67.67,63.65a.32.32,0,0,1-.43.12.31.31,0,0,1-.12-.43A33.52,33.52,0,1,0,38,80.23a.32.32,0,0,1,0,.64Z"/><path class="cls-1" d="M67,64.26h0a.08.08,0,0,1,0-.11l.4-.69a.08.08,0,0,1,.11,0,.08.08,0,0,1,0,.11l-.4.69A.08.08,0,0,1,67,64.26Z"/><path class="cls-1" d="M40.45,80.55a.08.08,0,0,1-.08-.07.08.08,0,0,1,.07-.08c.54,0,1.08-.09,1.61-.15,0,0,.09,0,.09.07a.08.08,0,0,1-.07.09c-.53.06-1.08.12-1.62.15Zm3.21-.38a.08.08,0,0,1-.08-.06.08.08,0,0,1,.07-.09c.53-.09,1.06-.2,1.58-.31a.08.08,0,0,1,.1.06.08.08,0,0,1-.06.1c-.53.12-1.06.22-1.59.31Zm3.16-.69a.08.08,0,0,1,0-.15c.53-.14,1-.3,1.55-.46a.07.07,0,0,1,.1,0,.08.08,0,0,1,0,.1c-.51.16-1,.32-1.55.46Zm3.08-1a.08.08,0,0,1-.08,0,.09.09,0,0,1,0-.11c.5-.18,1-.39,1.5-.6a.08.08,0,0,1,.11,0,.07.07,0,0,1,0,.1c-.5.22-1,.42-1.5.61Zm3-1.28a.09.09,0,0,1-.08,0,.08.08,0,0,1,0-.11c.49-.24,1-.49,1.43-.75a.08.08,0,0,1,.11,0,.08.08,0,0,1,0,.11c-.47.26-.95.51-1.44.75Zm2.83-1.56a.09.09,0,0,1-.07,0,.08.08,0,0,1,0-.11c.46-.28.91-.58,1.36-.88a.08.08,0,0,1,.11,0,.08.08,0,0,1,0,.11c-.45.3-.91.6-1.36.88Zm2.67-1.82a.07.07,0,0,1-.06,0,.08.08,0,0,1,0-.11c.43-.33.86-.67,1.27-1a.08.08,0,0,1,.11,0,.09.09,0,0,1,0,.11c-.41.34-.83.68-1.27,1Zm2.49-2.07a.08.08,0,0,1-.06,0,.08.08,0,0,1,0-.11c.39-.36.78-.73,1.16-1.12a.08.08,0,0,1,.11,0,.08.08,0,0,1,0,.11c-.38.39-.77.76-1.17,1.13Zm2.28-2.3-.06,0a.09.09,0,0,1,0-.11c.36-.4.71-.81,1.05-1.22a.09.09,0,0,1,.11,0,.08.08,0,0,1,0,.11c-.34.42-.7.83-1.06,1.23A.07.07,0,0,1,63.13,69.45Zm2-2.5h0a.09.09,0,0,1,0-.11c.32-.43.63-.87.93-1.32a.09.09,0,0,1,.11,0,.08.08,0,0,1,0,.11c-.3.45-.62.89-.94,1.33A.07.07,0,0,1,65.18,66.95Z"/><path class="cls-1" d="M38,80.63a.08.08,0,0,1,0-.16h.79a.08.08,0,0,1,.08.08.08.08,0,0,1-.08.08Z"/><path class="cls-2" d="M32.73,53.32a.32.32,0,0,1,0-.64c16.88,0,30.62-12,30.62-26.66a.32.32,0,0,1,.32-.32A.32.32,0,0,1,64,26C64,41.07,50,53.32,32.73,53.32Z"/><path class="cls-2" d="M58.39,48.71a.32.32,0,0,1-.32-.32c0-22.69-7.37-35.18-20.78-35.18a.32.32,0,1,1,0-.64c13.81,0,21.42,12.72,21.42,35.81A.32.32,0,0,1,58.39,48.71Z"/><path class="cls-2" d="M52.14,37.71a.32.32,0,0,1,0-.64c4.29,0,11.21-6.82,11.21-11.06a.32.32,0,0,1,.32-.32A.32.32,0,0,1,64,26C64,30.61,56.79,37.71,52.14,37.71Z"/><path class="cls-1" d="M5.87,55.38a.07.07,0,0,1-.08-.08,5.93,5.93,0,0,1,.07-.9.08.08,0,0,1,.08-.07H6a.08.08,0,0,1,.07.09,5.61,5.61,0,0,0-.07.87A.07.07,0,0,1,5.87,55.38Zm.5-2.4h0a.07.07,0,0,1,0-.1A8.64,8.64,0,0,1,7,51.45a.08.08,0,0,1,.11,0,.07.07,0,0,1,0,.11,8.71,8.71,0,0,0-.73,1.39A.07.07,0,0,1,6.37,53ZM8.06,50.3l-.05,0a.09.09,0,0,1,0-.11A15.68,15.68,0,0,1,9.1,49a.08.08,0,0,1,.11,0,.08.08,0,0,1,0,.12,15.16,15.16,0,0,0-1.09,1.15A.09.09,0,0,1,8.06,50.3Zm2.29-2.2a.09.09,0,0,1-.06,0,.09.09,0,0,1,0-.11c.4-.32.83-.65,1.27-1a.08.08,0,0,1,.11,0,.08.08,0,0,1,0,.11c-.44.32-.87.64-1.26,1Zm2.59-1.85a.07.07,0,0,1-.07,0,.09.09,0,0,1,0-.11c.44-.28.91-.56,1.37-.82a.08.08,0,0,1,.11,0,.09.09,0,0,1,0,.11c-.46.26-.92.54-1.36.82Zm2.76-1.58a.08.08,0,0,1-.07,0,.08.08,0,0,1,0-.11l1.43-.71a.08.08,0,0,1,.11,0,.08.08,0,0,1,0,.11c-.49.23-1,.47-1.43.71Zm2.88-1.37a.1.1,0,0,1-.08,0,.09.09,0,0,1,0-.1c.47-.21,1-.41,1.47-.62a.08.08,0,0,1,.1,0,.08.08,0,0,1,0,.11c-.5.2-1,.41-1.46.62Zm3-1.19a.08.08,0,0,1,0-.15c.49-.18,1-.37,1.5-.54a.08.08,0,0,1,.1,0,.08.08,0,0,1,0,.1l-1.5.53Zm3-1a.08.08,0,0,1-.08-.06.09.09,0,0,1,.05-.1l1.53-.46a.08.08,0,0,1,.1.06.08.08,0,0,1-.05.1l-1.52.47Zm3.06-.89a.08.08,0,0,1,0-.16l1.54-.4a.08.08,0,0,1,.1.06.08.08,0,0,1-.06.1l-1.54.4Zm3.09-.77a.08.08,0,0,1-.08-.06.08.08,0,0,1,.06-.09l1.56-.33a.08.08,0,0,1,.09.06.08.08,0,0,1-.07.09l-1.55.33Zm3.12-.64a.08.08,0,0,1-.08-.07.08.08,0,0,1,.07-.09l1.57-.27a.08.08,0,0,1,0,.16l-1.57.27ZM37,38.27a.08.08,0,0,1,0-.16l1.58-.21a.07.07,0,0,1,.08.07.07.07,0,0,1-.07.09L37,38.27Zm3.16-.39a.08.08,0,0,1-.08-.07.08.08,0,0,1,.07-.09l1.59-.15h0a.08.08,0,0,1,.08.07.07.07,0,0,1-.07.09l-1.59.15Zm3.18-.27a.08.08,0,0,1-.08-.07.08.08,0,0,1,.08-.09l1.6-.08a.1.1,0,0,1,.08.08.08.08,0,0,1-.08.08l-1.59.08Zm3.19-.13a.08.08,0,0,1-.08-.08.08.08,0,0,1,.08-.08l1.59,0a.08.08,0,0,1,.08.08.08.08,0,0,1-.08.08l-1.59,0Z"/><path class="cls-2" d="M28.12,33.1c-7.65,0-15.17-4.65-15.17-9.39a.32.32,0,0,1,.64,0c0,4.34,7.33,8.75,14.53,8.75a.32.32,0,1,1,0,.64Z"/><path class="cls-1" d="M43.49,63.86a.32.32,0,0,1-.32-.32c0-14.89-7.59-30.06-15-30.06a.32.32,0,1,1,0-.64c7.77,0,15.69,15.49,15.69,30.69A.32.32,0,0,1,43.49,63.86Z"/><circle class="cls-2" cx="43.49" cy="63.54" r="2.3"/><path class="cls-2" d="M43.49,66.17a2.62,2.62,0,1,1,2.62-2.62A2.62,2.62,0,0,1,43.49,66.17Zm0-4.6a2,2,0,1,0,2,2A2,2,0,0,0,43.49,61.56Z"/><circle class="cls-2" cx="58.39" cy="48.39" r="2.3"/><path class="cls-2" d="M58.39,51A2.62,2.62,0,1,1,61,48.39,2.63,2.63,0,0,1,58.39,51Zm0-4.61a2,2,0,1,0,2,2A2,2,0,0,0,58.39,46.41Z"/><circle class="cls-1" cx="30.42" cy="53" r="2.3"/><path class="cls-1" d="M30.42,55.62A2.62,2.62,0,1,1,33,53,2.62,2.62,0,0,1,30.42,55.62Zm0-4.6a2,2,0,1,0,2,2A2,2,0,0,0,30.42,51Z"/><circle class="cls-2" cx="5.87" cy="55.3" r="2.3"/><path class="cls-2" d="M5.87,57.92A2.62,2.62,0,1,1,8.49,55.3,2.62,2.62,0,0,1,5.87,57.92Zm0-4.6a2,2,0,1,0,2,2A2,2,0,0,0,5.87,53.32Z"/><ellipse class="cls-1" cx="37.29" cy="12.9" rx="2.3" ry="0.99"/><path class="cls-1" d="M37.29,14.21c-1.3,0-2.62-.45-2.62-1.31,0-1.72,5.24-1.72,5.24,0C39.91,13.76,38.59,14.21,37.29,14.21Zm0-2c-1.28,0-2,.44-2,.67s.7.67,2,.67,2-.45,2-.67S38.57,12.23,37.29,12.23Z"/><circle class="cls-1" cx="63.66" cy="26.01" r="2.3"/><path class="cls-1" d="M63.67,28.64A2.62,2.62,0,1,1,66.29,26,2.63,2.63,0,0,1,63.67,28.64Zm0-4.61a2,2,0,1,0,2,2A2,2,0,0,0,63.67,24Z"/><path class="cls-1" d="M38,80.63a.08.08,0,0,1,0-.16,8,8,0,0,0,1.56-.15.08.08,0,1,1,0,.16A8,8,0,0,1,38,80.63ZM41.09,80A.08.08,0,0,1,41,80a.08.08,0,0,1,0-.11,8.6,8.6,0,0,0,1.39-.74.07.07,0,0,1,.11,0,.09.09,0,0,1,0,.11,8.85,8.85,0,0,1-1.41.75Zm2.65-1.72-.06,0a.08.08,0,0,1,0-.11A11.84,11.84,0,0,0,44.78,77a.09.09,0,0,1,.12,0,.08.08,0,0,1,0,.11,12.42,12.42,0,0,1-1.11,1.15Zm2.07-2.41h0a.08.08,0,0,1,0-.11c.29-.42.57-.87.84-1.34a.08.08,0,1,1,.14.08c-.28.48-.55.93-.85,1.35A.07.07,0,0,1,45.81,75.9Zm1.58-2.76h0a.08.08,0,0,1,0-.11c.23-.46.44-.95.65-1.45a.08.08,0,0,1,.15.06c-.21.5-.43,1-.65,1.46A.07.07,0,0,1,47.39,73.14Zm1.22-2.93h0a.08.08,0,0,1,0-.1c.17-.48.35-1,.51-1.5a.08.08,0,1,1,.15,0c-.16.52-.34,1-.52,1.51A.07.07,0,0,1,48.61,70.21Zm1-3h0a.08.08,0,0,1-.06-.1c.14-.48.27-1,.41-1.53a.08.08,0,0,1,.1-.06.08.08,0,0,1,.06.1c-.14.54-.27,1.06-.41,1.54A.08.08,0,0,1,49.59,67.18Zm.78-3.09h0a.08.08,0,0,1-.06-.09c.11-.49.22-1,.33-1.56a.08.08,0,0,1,.1-.06.08.08,0,0,1,.06.09c-.11.54-.22,1.06-.33,1.56A.08.08,0,0,1,50.36,64.09ZM51,61h0a.08.08,0,0,1-.06-.09c.09-.51.18-1,.26-1.57a.08.08,0,1,1,.15,0c-.08.53-.16,1.06-.26,1.57A.09.09,0,0,1,51,61Zm.49-3.14h0a.08.08,0,0,1-.07-.09c.07-.53.14-1.06.21-1.58a.09.09,0,0,1,.09-.07.08.08,0,0,1,.07.09c-.07.52-.13,1.05-.21,1.58A.08.08,0,0,1,51.48,57.82Zm.39-3.16h0a.09.09,0,0,1-.08-.09c.06-.52.11-1,.16-1.58a.08.08,0,0,1,.08-.07h0a.08.08,0,0,1,.07.08L52,54.59A.09.09,0,0,1,51.87,54.66Zm.3-3.17h0a.08.08,0,0,1-.08-.09c0-.52.08-1.05.12-1.59a.09.09,0,0,1,.08-.07h0a.08.08,0,0,1,.08.09c0,.54-.08,1.07-.12,1.59A.08.08,0,0,1,52.17,51.49Zm.23-3.17h0a.08.08,0,0,1-.08-.09c0-.53.06-1.05.09-1.59a.08.08,0,0,1,.08-.07h0a.07.07,0,0,1,.07.08c0,.54,0,1.07-.08,1.59A.09.09,0,0,1,52.39,48.32Zm.15-3.18h0a.07.07,0,0,1-.07-.08c0-.53,0-1.06,0-1.59,0,0,0-.07.08-.07a.08.08,0,0,1,.08.08c0,.54,0,1.07-.06,1.59A.08.08,0,0,1,52.55,45.13Zm.1-3.18h0a.07.07,0,0,1-.07-.08c0-.52,0-1.06,0-1.59a.08.08,0,0,1,.08-.08h0a.08.08,0,0,1,.08.08c0,.54,0,1.07,0,1.59A.08.08,0,0,1,52.65,42Zm0-3.19h0a.08.08,0,0,1-.08-.08c0-.43,0-.86,0-1.3a.08.08,0,0,1,.08-.08.08.08,0,0,1,.08.08c0,.44,0,.87,0,1.3A.08.08,0,0,1,52.69,38.77Z"/><circle class="cls-1" cx="52.87" cy="37.39" r="2.3"/><path class="cls-1" d="M52.87,40a2.62,2.62,0,1,1,2.62-2.62A2.63,2.63,0,0,1,52.87,40Zm0-4.6a2,2,0,1,0,2,2A2,2,0,0,0,52.87,35.4Z"/><path class="cls-2" d="M38,80.63c-.54,0-1.07,0-1.59-.07a.07.07,0,0,1-.07-.09.08.08,0,0,1,.08-.07c.52,0,1.05.07,1.58.07a.08.08,0,1,1,0,.16Zm-3.16-.28h0c-.52-.1-1-.22-1.55-.37a.08.08,0,0,1-.05-.1.07.07,0,0,1,.1-.05,15.53,15.53,0,0,0,1.54.36.08.08,0,0,1,.07.09A.08.08,0,0,1,34.84,80.35Zm-3-.88h0a15.65,15.65,0,0,1-1.45-.67.08.08,0,1,1,.07-.14c.46.24.95.46,1.44.66a.08.08,0,0,1,0,.11A.09.09,0,0,1,31.8,79.47ZM29,78h0c-.44-.29-.88-.6-1.29-.93a.08.08,0,1,1,.1-.13c.41.32.85.63,1.29.92A.08.08,0,0,1,29,78,.07.07,0,0,1,29,78Zm-2.51-2-.06,0c-.38-.35-.76-.73-1.13-1.13a.09.09,0,0,1,0-.11.08.08,0,0,1,.11,0c.37.39.75.77,1.12,1.11a.08.08,0,0,1,0,.12A.07.07,0,0,1,26.48,76.06ZM24.3,73.73a.07.07,0,0,1-.06,0c-.33-.4-.65-.83-1-1.27a.07.07,0,0,1,0-.11.08.08,0,0,1,.11,0c.31.44.64.86,1,1.26a.08.08,0,0,1,0,.11Zm-1.86-2.58a.08.08,0,0,1-.07,0c-.28-.44-.55-.89-.82-1.36a.08.08,0,1,1,.14-.08c.27.47.54.92.82,1.35a.09.09,0,0,1,0,.11ZM20.86,68.4a.07.07,0,0,1-.07,0c-.24-.47-.48-1-.7-1.43a.08.08,0,0,1,0-.11.09.09,0,0,1,.11,0c.22.48.46,1,.7,1.42a.09.09,0,0,1,0,.11Zm-1.35-2.88a.08.08,0,0,1-.07-.05c-.2-.48-.41-1-.6-1.47a.08.08,0,0,1,0-.1.08.08,0,0,1,.11,0c.19.5.39,1,.59,1.47a.08.08,0,0,1,0,.1Zm-1.15-3a.08.08,0,0,1-.07-.05c-.17-.48-.34-1-.51-1.51a.08.08,0,0,1,.05-.1s.09,0,.1,0c.16.52.34,1,.51,1.51a.08.08,0,0,1,0,.1Zm-1-3a.08.08,0,0,1-.08-.06l-.44-1.53a.09.09,0,0,1,.06-.1.08.08,0,0,1,.1.05c.14.52.29,1,.43,1.53a.08.08,0,0,1-.05.1Zm-.83-3.07a.07.07,0,0,1-.08-.06c-.13-.52-.25-1-.37-1.55a.08.08,0,0,1,.06-.09.07.07,0,0,1,.1.06c.12.51.24,1,.37,1.55a.08.08,0,0,1-.06.1Zm-.71-3.1a.08.08,0,0,1-.08-.07c-.11-.5-.21-1-.31-1.56a.08.08,0,0,1,.07-.09.08.08,0,0,1,.09.06c.1.54.21,1.06.31,1.56a.08.08,0,0,1-.06.09Zm-.59-3.13a.08.08,0,0,1-.08-.06c-.1-.54-.18-1.06-.26-1.57a.09.09,0,0,1,.07-.09.07.07,0,0,1,.09.07c.08.51.17,1,.26,1.57a.08.08,0,0,1-.07.09Zm-.5-3.14a.08.08,0,0,1-.08-.07c-.08-.52-.14-1-.22-1.58a.09.09,0,0,1,.07-.09.1.1,0,0,1,.09.07c.07.53.14,1.06.21,1.58a.09.09,0,0,1-.07.09Zm-.41-3.16a.09.09,0,0,1-.08-.07c-.06-.52-.12-1.05-.17-1.58a.08.08,0,0,1,.07-.09c.06,0,.09,0,.09.07l.18,1.59a.08.08,0,0,1-.07.09ZM14,40.75a.07.07,0,0,1-.08-.07l-.15-1.59a.09.09,0,0,1,.08-.09.08.08,0,0,1,.09.07c0,.53.09,1.06.14,1.59a.08.08,0,0,1-.08.09Zm-.26-3.17a.07.07,0,0,1-.08-.07c0-.53-.07-1.06-.11-1.59a.08.08,0,0,1,.07-.08h0a.08.08,0,0,1,.08.07q0,.8.11,1.59a.08.08,0,0,1-.08.08Zm-.2-3.18a.08.08,0,0,1-.08-.08l-.08-1.59a.08.08,0,0,1,.08-.08.08.08,0,0,1,.08.08c0,.53,0,1.06.08,1.59a.08.08,0,0,1-.08.08Zm-.14-3.18a.07.07,0,0,1-.08-.08c0-.53,0-1.06-.05-1.59a.07.07,0,0,1,.07-.08h0a.08.08,0,0,1,.08.08c0,.54,0,1.07.05,1.59a.08.08,0,0,1-.08.08ZM13.31,28a.09.09,0,0,1-.08-.08q0-.79,0-1.59a.08.08,0,0,1,.08-.08h0a.07.07,0,0,1,.08.08c0,.53,0,1.06,0,1.59a.08.08,0,0,1-.08.08Zm0-3.18a.08.08,0,0,1-.08-.08V23.71a.08.08,0,0,1,.08-.08.08.08,0,0,1,.07.08c0,.35,0,.71,0,1.06a.08.08,0,0,1-.08.08Z"/><circle class="cls-2" cx="13.27" cy="23.71" r="2.3"/><path class="cls-2" d="M13.27,26.34a2.62,2.62,0,1,1,2.62-2.62A2.62,2.62,0,0,1,13.27,26.34Zm0-4.61a2,2,0,1,0,2,2A2,2,0,0,0,13.27,21.73Z"/><path class="cls-1" d="M28.12,33.1a.32.32,0,0,1,0-.64c1.81,0,9.56-14.89,9.56-19.57a.32.32,0,0,1,.64,0C38.32,17.12,30.74,33.1,28.12,33.1Z"/><circle class="cls-2" cx="28.12" cy="32.78" r="2.3"/><path class="cls-2" d="M28.12,35.4a2.62,2.62,0,1,1,2.62-2.62A2.62,2.62,0,0,1,28.12,35.4Zm0-4.6a2,2,0,1,0,2,2A2,2,0,0,0,28.12,30.8Z"/><path class="cls-2" d="M37.29,80.88a.32.32,0,0,1-.32-.32c0-7.8,16.77-17.38,30.42-17.38a.31.31,0,0,1,.32.32.32.32,0,0,1-.32.32c-13.08,0-29.78,9.39-29.78,16.74A.32.32,0,0,1,37.29,80.88Z"/><path class="cls-2" d="M69.21,63.55a2.3,2.3,0,1,1-2.3-2.3A2.31,2.31,0,0,1,69.21,63.55Z"/><path class="cls-2" d="M66.91,66.17a2.62,2.62,0,1,1,2.62-2.62A2.62,2.62,0,0,1,66.91,66.17Zm0-4.61a2,2,0,1,0,2,2A2,2,0,0,0,66.91,61.56Z"/><ellipse class="cls-2" cx="37.29" cy="80.55" rx="2.3" ry="0.99"/><path class="cls-2" d="M37.29,81.86c-1.3,0-2.62-.45-2.62-1.31,0-1.72,5.24-1.72,5.24,0C39.91,81.41,38.59,81.86,37.29,81.86Zm0-2c-1.28,0-2,.44-2,.68s.7.67,2,.67,2-.44,2-.67S38.57,79.88,37.29,79.88Z"/></svg>