<svg id="Layer_1" data-name="Layer 1" xmlns="http://www.w3.org/2000/svg" viewBox="0 0 149.34 109.33"><defs><style>.cls-1,.cls-2,.cls-3,.cls-4,.cls-5,.cls-6,.cls-7{fill:none;stroke:#ecf0f1;stroke-miterlimit:10;}.cls-1{stroke-width:1.22px;}.cls-2{stroke-width:1.75px;}.cls-3{stroke-width:2.03px;}.cls-4{stroke-width:0.43px;}.cls-5{stroke-width:1.06px;}.cls-6{stroke-width:0.64px;}.cls-7{stroke-width:0.21px;}.cls-8,.cls-9{fill:#3b97d3;}.cls-9{fill-rule:evenodd;}</style></defs><title>research</title><path class="cls-1" d="M47.17,43.53a28.3,28.3,0,0,1,14.39-15.4"/><path class="cls-1" d="M48.51,66.81a28.12,28.12,0,0,1-3-9.72"/><path class="cls-1" d="M101.39,57.65a28.07,28.07,0,0,1-8,16A28.46,28.46,0,0,1,90.68,76"/><path class="cls-1" d="M74.93,25.55A28.24,28.24,0,0,1,98.27,40.27"/><path class="cls-2" d="M50.72,20.25a40.41,40.41,0,0,1,29.59-5.52"/><path class="cls-2" d="M32.55,48.16A40.15,40.15,0,0,1,37.3,34.42"/><path class="cls-2" d="M101.13,82.38A40.08,40.08,0,0,1,78.42,94a40.65,40.65,0,0,1-5.17.45"/><path class="cls-2" d="M112.54,51.46a40.11,40.11,0,0,1-.28,8.3"/><path class="cls-2" d="M106.5,32.85a40,40,0,0,1,4.61,10.39"/><path class="cls-3" d="M58.13,98.47A46.95,46.95,0,0,1,32.77,74.4"/><path class="cls-3" d="M96.77,96.54a46.65,46.65,0,0,1-16.16,4.89"/><path class="cls-3" d="M82.21,8.69a46.57,46.57,0,0,1,26.43,13.44,47.22,47.22,0,0,1,3.95,4.55"/><path class="cls-4" d="M53.58,70.16a26.26,26.26,0,0,1-3.4-5.44"/><path class="cls-5" d="M64.61,78.21q-.83-.32-1.63-.69"/><path class="cls-4" d="M86.43,77a26.35,26.35,0,0,1-9.11,2.83"/><path class="cls-4" d="M83.58,28.88a26.22,26.22,0,0,1,4.87,2.46"/><path class="cls-4" d="M77.84,27.4a26.4,26.4,0,0,1,5.74,1.48"/><path class="cls-4" d="M53.85,36.64q.76-.91,1.61-1.76A26.6,26.6,0,0,1,58.8,32"/><path class="cls-4" d="M47.76,52.19a26.48,26.48,0,0,1,1.15-6.47"/><path class="cls-6" d="M77.71,16.43a37.19,37.19,0,0,1,9.37,2.5"/><path class="cls-7" d="M59.13,18.68a37.11,37.11,0,0,1,7.37-2.05"/><path class="cls-7" d="M37.59,40.86A37.29,37.29,0,0,1,44.37,29.2"/><path class="cls-7" d="M94,84.31A37.22,37.22,0,0,1,71.2,90.85a37.75,37.75,0,0,1-4.79-.51"/><path class="cls-7" d="M109.89,58.16a37.25,37.25,0,0,1-1.74,7.52"/><path class="cls-4" d="M107.72,40.12a37.14,37.14,0,0,1,2.34,10.29"/><path class="cls-8" d="M25.48,84.64h-2.8v3.94H19.12v-14h6.26c3.7,0,5.82,1.76,5.82,4.88A4.67,4.67,0,0,1,28.66,84l2.94,4.62h-4Zm-.1-2.8a2.13,2.13,0,0,0,2.44-2.26c0-1.46-.9-2.2-2.44-2.2h-2.7v4.46Z"/><path class="cls-8" d="M37.16,77.38v2.78h6.68V83H37.16v2.82h7.62v2.8H33.6v-14h11v2.8Z"/><path class="cls-8" d="M58,76l-1.34,2.78a10.43,10.43,0,0,0-4.48-1.46c-.92,0-1.54.34-1.54,1,0,2.42,7.4,1,7.4,6.1,0,2.8-2.48,4.28-5.6,4.28A10.44,10.44,0,0,1,46,86.46l1.38-2.74a8.73,8.73,0,0,0,5.06,2.1c1.12,0,1.82-.42,1.82-1.22,0-2.48-7.4-1-7.4-6,0-2.58,2.22-4.22,5.58-4.22A10.51,10.51,0,0,1,58,76Z"/><path class="cls-8" d="M63.52,77.38v2.78H70.2V83H63.52v2.82h7.62v2.8H60v-14h11v2.8Z"/><path class="cls-8" d="M76.62,86l-1,2.58H71.93l6-14h3.66l5.9,14h-3.8l-1-2.58Zm3.08-7.88-2,5.18h4Z"/><path class="cls-8" d="M95.2,84.64H92.4v3.94H88.83v-14H95.1c3.7,0,5.82,1.76,5.82,4.88A4.67,4.67,0,0,1,98.38,84l2.94,4.62h-4Zm-.1-2.8a2.13,2.13,0,0,0,2.44-2.26c0-1.46-.9-2.2-2.44-2.2H92.4v4.46Z"/><path class="cls-8" d="M115.52,76.81l-2.06,2.44a4.79,4.79,0,0,0-3.52-1.82,4.1,4.1,0,0,0,0,8.18A5.25,5.25,0,0,0,113.46,84l2.08,2.2a8.46,8.46,0,0,1-5.78,2.56,7.11,7.11,0,0,1-7.36-7.2c0-4,3.22-7.08,7.48-7.08A8.13,8.13,0,0,1,115.52,76.81Z"/><path class="cls-8" d="M126.52,88.58V83.14h-5.8v5.44h-3.56v-14h3.56v5.76h5.8V74.57h3.56v14Z"/><path class="cls-8" d="M74.39,61.22c-3.91,0-8.61-1-8.95-3.65-.27-2.05,1.43-4.35,3.08-6.57a14.47,14.47,0,0,0,2.41-4,7.69,7.69,0,0,0,.2-3.05c0-.2,0-.42,0-.66a.86.86,0,0,1,.8-.93.88.88,0,0,1,.93.81c0,.23,0,.44,0,.64a9.43,9.43,0,0,1-.23,3.6A15,15,0,0,1,69.92,52c-1.38,1.85-2.93,4-2.76,5.32.14,1,2.93,2.13,7.23,2.13s7.09-1.11,7.23-2.13c.18-1.36-1.38-3.47-2.76-5.32a15.13,15.13,0,0,1-2.71-4.59c-.41-1.63-.17-5.81,0-8.81v-.19a.87.87,0,1,1,1.73.12v.19C77.6,43.2,77.58,46,77.83,47a14.65,14.65,0,0,0,2.42,4c1.65,2.22,3.36,4.52,3.09,6.57C83,60.27,78.3,61.22,74.39,61.22Z"/><path class="cls-8" d="M74.6,67.29a14.85,14.85,0,0,1-6.07-28.4.87.87,0,0,1,.71,1.59,13.11,13.11,0,1,0,18.47,12,13.66,13.66,0,0,0-10.81-13.1.87.87,0,1,1,.34-1.7,15.42,15.42,0,0,1,12.21,14.8A14.86,14.86,0,0,1,74.6,67.29Z"/><polygon class="cls-9" points="68.69 38.63 71.34 40.38 68.51 41.8 68.69 38.63"/><path class="cls-8" d="M68.73,43a1.18,1.18,0,0,1-1.4-1.22l.19-3.17a1.18,1.18,0,0,1,.64-1,1.15,1.15,0,0,1,1.17.07L72,39.4a1.17,1.17,0,0,1,.52,1,1.15,1.15,0,0,1-.64,1L69,42.85A1.46,1.46,0,0,1,68.73,43Z"/></svg>