<svg id="Layer_1" data-name="Layer 1" xmlns="http://www.w3.org/2000/svg" viewBox="0 0 77.33 87.75"><defs><style>.cls-1{fill:#2c3e50;}.cls-2{fill:none;stroke:#2c3e50;stroke-linecap:round;stroke-linejoin:round;stroke-width:1.84px;}.cls-3{fill:#e57e25;}</style></defs><title>teaching</title><path class="cls-1" d="M66.7,18.95H13.56a2.31,2.31,0,0,1,0-4.62H37.9V12a2.3,2.3,0,1,1,4.61,0v2.31H66.7a2.31,2.31,0,0,1,0,4.62Z"/><rect class="cls-2" x="13.56" y="21.26" width="53.14" height="34.64"/><path class="cls-3" d="M18.66,39.33a9.24,9.24,0,1,0,18.48,0H27.9V30.07A9.25,9.25,0,0,0,18.66,39.33Z"/><rect class="cls-3" x="43.66" y="28.18" width="2.3" height="2.31"/><rect class="cls-1" x="48.27" y="28.18" width="11.52" height="2.31"/><rect class="cls-3" x="43.66" y="36.5" width="2.3" height="2.31"/><rect class="cls-1" x="48.27" y="36.5" width="11.52" height="2.31"/><rect class="cls-3" x="43.66" y="44.82" width="2.3" height="2.31"/><rect class="cls-1" x="48.27" y="44.82" width="11.52" height="2.31"/><polygon class="cls-1" points="33.85 67.44 39.05 67.44 39.05 55.89 41.36 55.89 41.36 67.44 46.48 67.44 41.36 55.89 45.97 55.89 55.18 76.67 50.58 76.67 47.5 69.74 41.36 69.74 41.36 81.29 39.05 81.29 39.05 69.74 32.81 69.74 29.69 76.67 25.08 76.67 34.44 55.89 39.05 55.89 33.85 67.44"/><path class="cls-1" d="M30.89,36.5h9.24a9.24,9.24,0,0,0-9.24-9.24Z"/></svg>