<svg id="Layer_1" data-name="Layer 1" xmlns="http://www.w3.org/2000/svg" viewBox="0 0 148.33 100.67"><defs><style>.cls-1,.cls-2,.cls-3,.cls-4,.cls-5,.cls-6,.cls-7{fill:none;stroke:#35495e;stroke-miterlimit:10;}.cls-1{stroke-width:1.05px;}.cls-2{stroke-width:1.49px;}.cls-3{stroke-width:1.73px;}.cls-4{stroke-width:0.36px;}.cls-5{stroke-width:0.91px;}.cls-6{stroke-width:0.55px;}.cls-7{stroke-width:0.18px;}.cls-8{fill:#e57e25;}</style></defs><title>top-education-link</title><path class="cls-1" d="M52.45,42.49a24.17,24.17,0,0,1,12.3-13.15"/><path class="cls-1" d="M53.59,62.37A24,24,0,0,1,51,54.07"/><path class="cls-1" d="M98.77,54.55A24,24,0,0,1,91.95,68.2a24.32,24.32,0,0,1-2.33,2.05"/><path class="cls-1" d="M76.17,27.12A24.13,24.13,0,0,1,96.1,39.7"/><path class="cls-2" d="M55.48,22.6a34.52,34.52,0,0,1,25.27-4.72"/><path class="cls-2" d="M40,46.44A34.3,34.3,0,0,1,44,34.7"/><path class="cls-2" d="M98.55,75.67a34.24,34.24,0,0,1-19.4,9.94,34.72,34.72,0,0,1-4.41.39"/><path class="cls-2" d="M108.29,49.26a34.26,34.26,0,0,1-.24,7.09"/><path class="cls-2" d="M103.13,33.36a34.16,34.16,0,0,1,3.93,8.88"/><path class="cls-3" d="M61.81,89.41A40.1,40.1,0,0,1,40.15,68.85"/><path class="cls-3" d="M94.82,87.76A39.85,39.85,0,0,1,81,91.94"/><path class="cls-3" d="M82.38,12.72A39.78,39.78,0,0,1,105,24.2a40.34,40.34,0,0,1,3.37,3.89"/><path class="cls-4" d="M57.93,65.23A22.44,22.44,0,0,1,55,60.58"/><path class="cls-5" d="M67.35,72.11q-.71-.27-1.39-.59"/><path class="cls-4" d="M86,71a22.51,22.51,0,0,1-7.78,2.42"/><path class="cls-4" d="M83.55,30a22.4,22.4,0,0,1,4.16,2.11"/><path class="cls-4" d="M78.65,28.7A22.55,22.55,0,0,1,83.55,30"/><path class="cls-4" d="M58.15,36.6q.65-.78,1.38-1.5a22.72,22.72,0,0,1,2.85-2.42"/><path class="cls-4" d="M53,49.88a22.62,22.62,0,0,1,1-5.52"/><path class="cls-6" d="M78.54,19.33a31.77,31.77,0,0,1,8,2.14"/><path class="cls-7" d="M62.67,21.25A31.7,31.7,0,0,1,69,19.5"/><path class="cls-7" d="M44.26,40.21a31.85,31.85,0,0,1,5.79-10"/><path class="cls-7" d="M92.43,77.32A31.8,31.8,0,0,1,73,82.91a32.25,32.25,0,0,1-4.09-.44"/><path class="cls-7" d="M106,55a31.82,31.82,0,0,1-1.49,6.42"/><path class="cls-4" d="M104.17,39.57a31.72,31.72,0,0,1,2,8.79"/><path class="cls-8" d="M20.14,77.45v2.78h6.68V83H20.14v2.82h7.62v2.8H16.58v-14h11v2.8Z"/><path class="cls-8" d="M36.08,74.65c4.4,0,7.44,2.84,7.44,7s-3.08,7-7.58,7H30.06v-14ZM33.62,85.81h2.54c2.18,0,3.74-1.68,3.74-4.14A3.88,3.88,0,0,0,36,77.49H33.62Z"/><path class="cls-8" d="M58,82.77c0,3.7-2.46,6-6.38,6s-6.46-2.34-6.46-6V74.65h3.56v8.12a2.82,2.82,0,0,0,2.92,3.06,2.76,2.76,0,0,0,2.82-3.06V74.65H58Z"/><path class="cls-8" d="M72.76,76.89,70.7,79.33a4.79,4.79,0,0,0-3.52-1.82,4.1,4.1,0,0,0,0,8.18,5.25,5.25,0,0,0,3.52-1.64l2.08,2.2A8.46,8.46,0,0,1,67,88.81a7.11,7.11,0,0,1-7.36-7.2c0-4,3.22-7.08,7.48-7.08A8.13,8.13,0,0,1,72.76,76.89Z"/><path class="cls-8" d="M77.44,86.07l-1,2.58H72.76l6-14h3.66l5.9,14h-3.8l-1-2.58Zm3.08-7.88-2,5.18h4Z"/><path class="cls-8" d="M94.64,77.51V88.65H91.08V77.51H86.9V74.63h12v2.88Z"/><path class="cls-8" d="M100.38,88.65v-14h3.56v14Z"/><path class="cls-8" d="M121,81.63c0,4.08-3.24,7.18-7.58,7.18a7.21,7.21,0,0,1-7.56-7.18c0-4.08,3.24-7.1,7.56-7.1S121,77.57,121,81.63Zm-11.5,0a4.07,4.07,0,0,0,4,4.18,4.17,4.17,0,1,0-4-4.18Z"/><path class="cls-8" d="M132.62,88.65,126.18,80v8.62h-3.34v-14H126l6.46,8.64V74.65h3.32v14Z"/><path class="cls-8" d="M76.34,55.35a1.12,1.12,0,0,1-.41-.08L58.08,48.33a1.13,1.13,0,0,1,.06-2.13l17.5-5.75a1.12,1.12,0,0,1,.72,0l17.86,6.1a1.13,1.13,0,0,1,0,2.13l-17.5,6.6A1.12,1.12,0,0,1,76.34,55.35Zm-14.51-8L76.35,53l14.16-5.34L76,42.71Z"/><path class="cls-8" d="M76.17,63.48a1.13,1.13,0,0,1-.33,0,23.61,23.61,0,0,1-4-1.72c-2.91-1.59-4.6-3.43-5-5.46A12.32,12.32,0,0,1,67,52.82c.06-.43.12-.84.16-1.19a1.13,1.13,0,0,1,2.24.26c0,.36-.1.79-.17,1.24A17.75,17.75,0,0,0,69,55.8c.54,2.65,5.08,4.67,7.17,5.37,2.08-.69,6.62-2.72,7.17-5.37a17.77,17.77,0,0,0-.27-2.65c-.07-.51-.14-1-.18-1.38a1.13,1.13,0,0,1,2.25-.24c0,.37.11.82.18,1.31a12.36,12.36,0,0,1,.24,3.42c-.42,2-2.1,3.87-5,5.46a23.58,23.58,0,0,1-4,1.72A1.15,1.15,0,0,1,76.17,63.48Z"/><ellipse class="cls-8" cx="76.17" cy="46.83" rx="2.01" ry="0.67"/><path class="cls-8" d="M76.17,48.64c-1.95,0-3.15-.7-3.15-1.82S74.22,45,76.17,45s3.15.7,3.15,1.81S78.11,48.64,76.17,48.64Z"/><polygon class="cls-8" points="76.93 46.42 72.05 43.03 60.34 47.35 76.93 47.35 76.93 46.42"/><path class="cls-8" d="M76.93,48.5H60.34a1.15,1.15,0,0,1-.4-2.22L71.65,42a1.15,1.15,0,0,1,1.05.13l4.89,3.38a1.15,1.15,0,0,1,.49.94v.93A1.15,1.15,0,0,1,76.93,48.5ZM66.76,46.2h7.85l-2.73-1.89Z"/><polygon class="cls-8" points="59.35 47.44 59.35 57.82 63.17 55.78 63.17 49.48 59.35 47.44"/><path class="cls-8" d="M59.54,58.39a.58.58,0,0,1-.57-.57V47.44a.57.57,0,0,1,.84-.51l3.82,2a.58.58,0,0,1,.3.51v6.31a.57.57,0,0,1-.3.51l-3.82,2A.57.57,0,0,1,59.54,58.39Zm.57-10v8.46l2.67-1.42V49.82Z"/></svg>