<svg id="Layer_1" data-name="Layer 1" xmlns="http://www.w3.org/2000/svg" viewBox="0 0 148.33 100.67"><defs><style>.cls-1,.cls-2,.cls-3,.cls-4,.cls-5,.cls-6,.cls-7{fill:none;stroke:#35495e;stroke-miterlimit:10;}.cls-1{stroke-width:1.05px;}.cls-2{stroke-width:1.49px;}.cls-3{stroke-width:1.73px;}.cls-4{stroke-width:0.36px;}.cls-5{stroke-width:0.91px;}.cls-6{stroke-width:0.55px;}.cls-7{stroke-width:0.18px;}.cls-8,.cls-9{fill:#3b97d3;}.cls-9{fill-rule:evenodd;}</style></defs><title>top-research-link</title><path class="cls-1" d="M52.45,40.34a24.17,24.17,0,0,1,12.3-13.15"/><path class="cls-1" d="M53.59,60.23A24,24,0,0,1,51,51.92"/><path class="cls-1" d="M98.77,52.4a24,24,0,0,1-6.82,13.66,24.32,24.32,0,0,1-2.33,2.05"/><path class="cls-1" d="M76.17,25A24.13,24.13,0,0,1,96.1,37.55"/><path class="cls-2" d="M55.48,20.45a34.52,34.52,0,0,1,25.27-4.72"/><path class="cls-2" d="M40,44.29A34.3,34.3,0,0,1,44,32.56"/><path class="cls-2" d="M98.55,73.53a34.24,34.24,0,0,1-19.4,9.94,34.72,34.72,0,0,1-4.41.39"/><path class="cls-2" d="M108.29,47.11A34.26,34.26,0,0,1,108,54.2"/><path class="cls-2" d="M103.13,31.21a34.16,34.16,0,0,1,3.93,8.88"/><path class="cls-3" d="M61.81,87.27A40.1,40.1,0,0,1,40.15,66.71"/><path class="cls-3" d="M94.82,85.62A39.85,39.85,0,0,1,81,89.8"/><path class="cls-3" d="M82.38,10.57A39.78,39.78,0,0,1,105,22a40.34,40.34,0,0,1,3.37,3.89"/><path class="cls-4" d="M57.93,63.08A22.44,22.44,0,0,1,55,58.43"/><path class="cls-5" d="M67.35,70q-.71-.27-1.39-.59"/><path class="cls-4" d="M86,68.89a22.51,22.51,0,0,1-7.78,2.42"/><path class="cls-4" d="M83.55,27.82a22.4,22.4,0,0,1,4.16,2.11"/><path class="cls-4" d="M78.65,26.56a22.55,22.55,0,0,1,4.9,1.26"/><path class="cls-4" d="M58.15,34.45q.65-.78,1.38-1.5a22.72,22.72,0,0,1,2.85-2.42"/><path class="cls-4" d="M53,47.73a22.62,22.62,0,0,1,1-5.52"/><path class="cls-6" d="M78.54,17.18a31.77,31.77,0,0,1,8,2.14"/><path class="cls-7" d="M62.67,19.11A31.7,31.7,0,0,1,69,17.36"/><path class="cls-7" d="M44.26,38.06a31.85,31.85,0,0,1,5.79-10"/><path class="cls-7" d="M92.43,75.17A31.8,31.8,0,0,1,73,80.76a32.25,32.25,0,0,1-4.09-.44"/><path class="cls-7" d="M106,52.83a31.82,31.82,0,0,1-1.49,6.42"/><path class="cls-4" d="M104.17,37.42a31.72,31.72,0,0,1,2,8.79"/><path class="cls-8" d="M27.61,83h-2.8V87H21.25V73h6.26c3.7,0,5.82,1.76,5.82,4.88a4.67,4.67,0,0,1-2.54,4.5L33.73,87h-4Zm-.1-2.8A2.13,2.13,0,0,0,30,78c0-1.46-.9-2.2-2.44-2.2h-2.7v4.46Z"/><path class="cls-8" d="M39.29,75.78v2.78H46v2.8H39.29v2.82h7.62V87H35.73V73h11v2.8Z"/><path class="cls-8" d="M60.11,74.38l-1.34,2.78a10.43,10.43,0,0,0-4.48-1.46c-.92,0-1.54.34-1.54,1,0,2.42,7.4,1,7.4,6.1,0,2.8-2.48,4.28-5.6,4.28a10.44,10.44,0,0,1-6.4-2.24l1.38-2.74a8.73,8.73,0,0,0,5.06,2.1c1.12,0,1.82-.42,1.82-1.22,0-2.48-7.4-1-7.4-6,0-2.58,2.22-4.22,5.58-4.22A10.51,10.51,0,0,1,60.11,74.38Z"/><path class="cls-8" d="M65.65,75.78v2.78h6.68v2.8H65.65v2.82h7.62V87H62.09V73h11v2.8Z"/><path class="cls-8" d="M78.75,84.4l-1,2.58H74.07l6-14h3.66l5.9,14h-3.8l-1-2.58Zm3.08-7.88-2,5.18h4Z"/><path class="cls-8" d="M97.33,83h-2.8V87H91V73h6.26c3.7,0,5.82,1.76,5.82,4.88a4.67,4.67,0,0,1-2.54,4.5L103.45,87h-4Zm-.1-2.8A2.13,2.13,0,0,0,99.67,78c0-1.46-.9-2.2-2.44-2.2h-2.7v4.46Z"/><path class="cls-8" d="M117.65,75.22l-2.06,2.44a4.79,4.79,0,0,0-3.52-1.82,4.1,4.1,0,0,0,0,8.18,5.25,5.25,0,0,0,3.52-1.64l2.08,2.2a8.46,8.46,0,0,1-5.78,2.56,7.11,7.11,0,0,1-7.36-7.2c0-4,3.22-7.08,7.48-7.08A8.13,8.13,0,0,1,117.65,75.22Z"/><path class="cls-8" d="M128.65,87V81.54h-5.8V87h-3.56V73h3.56v5.76h5.8V73h3.56V87Z"/><path class="cls-8" d="M76.52,58.17c-3.91,0-8.61-1-8.95-3.65-.27-2.05,1.43-4.35,3.08-6.57a14.47,14.47,0,0,0,2.41-4,7.69,7.69,0,0,0,.2-3.05c0-.2,0-.42,0-.66a.86.86,0,0,1,.8-.93.88.88,0,0,1,.93.81c0,.23,0,.44,0,.64a9.43,9.43,0,0,1-.23,3.6A15,15,0,0,1,72.05,49c-1.38,1.85-2.93,4-2.76,5.32.14,1,2.93,2.13,7.23,2.13s7.09-1.11,7.23-2.13c.18-1.36-1.38-3.47-2.76-5.32a15.13,15.13,0,0,1-2.71-4.59c-.41-1.63-.17-5.81,0-8.81v-.19a.87.87,0,1,1,1.73.12v.19c-.31,4.46-.34,7.25-.09,8.28a14.65,14.65,0,0,0,2.42,4c1.65,2.22,3.36,4.52,3.09,6.57C85.12,57.21,80.43,58.17,76.52,58.17Z"/><path class="cls-8" d="M76.73,64.24a14.85,14.85,0,0,1-6.07-28.4.87.87,0,0,1,.71,1.59,13.11,13.11,0,1,0,18.47,12A13.66,13.66,0,0,0,79,36.29a.87.87,0,1,1,.34-1.7,15.42,15.42,0,0,1,12.21,14.8A14.86,14.86,0,0,1,76.73,64.24Z"/><polygon class="cls-9" points="71.18 35.76 73.15 37.42 70.73 38.28 71.18 35.76"/><path class="cls-8" d="M70.8,39.23a1,1,0,0,1-1-1.12l.46-2.53a1,1,0,0,1,.61-.72.93.93,0,0,1,.93.17l2,1.66a1,1,0,0,1,.31.89.93.93,0,0,1-.61.72l-2.41.87A1.18,1.18,0,0,1,70.8,39.23Z"/></svg>