<svg id="Layer_1" data-name="Layer 1" xmlns="http://www.w3.org/2000/svg" viewBox="0 0 238.2 135.33"><defs><style>.cls-1{fill:#bdc3c7;}.cls-2{fill:#f29c1f;}.cls-3{fill:#ecf0f1;}.cls-4{fill:#e57e25;}.cls-5{fill:#2c3e50;}.cls-10,.cls-11,.cls-12,.cls-13,.cls-14,.cls-15,.cls-16,.cls-17,.cls-6,.cls-7,.cls-8,.cls-9{fill:none;stroke-miterlimit:10;}.cls-12,.cls-6,.cls-9{stroke:#35495e;}.cls-6,.cls-7{stroke-width:1.26px;}.cls-11,.cls-13,.cls-14,.cls-17,.cls-7,.cls-8{stroke:#bdc3c7;}.cls-8,.cls-9{stroke-width:1.8px;}.cls-10{stroke:#e57e25;}.cls-10,.cls-11,.cls-12{stroke-width:2.1px;}.cls-13{stroke-width:0.44px;}.cls-14{stroke-width:1.1px;}.cls-15,.cls-16{stroke:#2c3e50;}.cls-15{stroke-width:0.66px;}.cls-16,.cls-17{stroke-width:0.22px;}</style></defs><title>visualize</title><circle class="cls-1" cx="177.35" cy="38.55" r="1.6"/><circle class="cls-2" cx="32.66" cy="61.49" r="2.05"/><circle class="cls-3" cx="68.61" cy="53.52" r="2.05"/><polygon class="cls-4" points="104.53 18.38 118.26 68.82 102.61 18.94 104.53 18.38"/><polygon class="cls-4" points="177.54 126.23 122.99 70.9 178.31 125.45 177.54 126.23"/><polygon class="cls-5" points="12.41 58.83 116.8 70.24 12.3 59.92 12.41 58.83"/><polygon class="cls-4" points="204.78 24.63 118.74 70.42 203.82 22.88 204.78 24.63"/><path class="cls-6" d="M91.86,58.44a29.21,29.21,0,0,1,14.86-15.89"/><path class="cls-7" d="M93.24,82.47a29,29,0,0,1-3.12-10"/><path class="cls-7" d="M147.84,73a29,29,0,0,1-8.24,16.51A29.39,29.39,0,0,1,136.78,92"/><path class="cls-7" d="M120.52,39.86a29.16,29.16,0,0,1,24.09,15.21"/><path class="cls-8" d="M95.53,34.4a41.72,41.72,0,0,1,30.54-5.7"/><path class="cls-9" d="M76.77,63.21A41.45,41.45,0,0,1,81.67,49"/><path class="cls-8" d="M147.57,98.54a41.38,41.38,0,0,1-23.45,12,42,42,0,0,1-5.34.47"/><path class="cls-9" d="M159.34,66.62a41.41,41.41,0,0,1-.29,8.57"/><path class="cls-8" d="M153.11,47.4a41.28,41.28,0,0,1,4.75,10.73"/><path class="cls-10" d="M103.18,115.15A48.46,48.46,0,0,1,77,90.3"/><path class="cls-11" d="M143.06,113.15a48.16,48.16,0,0,1-16.68,5.05"/><path class="cls-12" d="M128,22.46a48.07,48.07,0,0,1,27.28,13.87A48.75,48.75,0,0,1,159.4,41"/><path class="cls-13" d="M98.48,85.92A27.11,27.11,0,0,1,95,80.31"/><path class="cls-14" d="M109.87,94.23q-.85-.33-1.69-.72"/><path class="cls-13" d="M132.39,92.94a27.2,27.2,0,0,1-9.4,2.92"/><path class="cls-13" d="M129.45,43.31a27.07,27.07,0,0,1,5,2.54"/><path class="cls-13" d="M123.52,41.78a27.25,27.25,0,0,1,5.93,1.53"/><path class="cls-13" d="M98.76,51.32q.78-.94,1.66-1.82a27.46,27.46,0,0,1,3.45-2.92"/><path class="cls-13" d="M92.47,67.37a27.34,27.34,0,0,1,1.18-6.67"/><path class="cls-15" d="M123.39,30.45A38.39,38.39,0,0,1,133.06,33"/><path class="cls-16" d="M104.21,32.78a38.31,38.31,0,0,1,7.61-2.12"/><path class="cls-17" d="M82,55.68a38.5,38.5,0,0,1,7-12"/><path class="cls-17" d="M140.18,100.51a38.43,38.43,0,0,1-23.5,6.79,39,39,0,0,1-4.95-.52"/><path class="cls-16" d="M156.61,73.54a38.45,38.45,0,0,1-1.8,7.76"/><path class="cls-13" d="M154.37,54.91a38.34,38.34,0,0,1,2.42,10.63"/><circle class="cls-2" cx="101.31" cy="39.86" r="1.35"/><circle class="cls-5" cx="73.41" cy="90.99" r="0.69"/><circle class="cls-4" cx="165.58" cy="61.14" r="2"/><circle class="cls-4" cx="52.8" cy="31.72" r="0.69"/><circle class="cls-4" cx="70.66" cy="54.22" r="0.69"/><circle class="cls-4" cx="91.64" cy="37.63" r="0.69"/><circle class="cls-2" cx="132.39" cy="112.73" r="0.69"/><circle class="cls-2" cx="94.98" cy="85.41" r="0.69"/><circle class="cls-4" cx="102.67" cy="15.57" r="1.6"/><circle class="cls-4" cx="110.62" cy="113.43" r="1.11"/></svg>