<?xml version="1.0" encoding="UTF-8"?>
<svg width="100px" height="100px" viewBox="0 0 100 100" version="1.1" xmlns="http://www.w3.org/2000/svg" xmlns:xlink="http://www.w3.org/1999/xlink">
    <!-- Generator: Sketch 47.1 (45422) - http://www.bohemiancoding.com/sketch -->
    <title>Slice</title>
    <desc>Created with Sketch.</desc>
    <defs></defs>
    <g id="Page-1" stroke="none" stroke-width="1" fill="none" fill-rule="evenodd">
        <g id="visualize" transform="translate(-58.000000, -8.000000)">
            <circle id="Oval" fill="#ECF0F1" fill-rule="nonzero" cx="56.61" cy="40.52" r="2.05"></circle>
            <polygon id="Shape" fill="#E57E25" fill-rule="nonzero" points="92.53 5.38 106.26 55.82 90.61 5.94"></polygon>
            <polygon id="Shape" fill="#E57E25" fill-rule="nonzero" points="165.54 113.23 110.99 57.9 166.31 112.45"></polygon>
            <polygon id="Shape" fill="#2C3E50" fill-rule="nonzero" points="0.41 45.83 104.8 57.24 0.3 46.92"></polygon>
            <polygon id="Shape" fill="#E57E25" fill-rule="nonzero" points="192.78 11.63 106.74 57.42 191.82 9.88"></polygon>
            <path d="M79.86,45.44 C82.5824695,38.4274832 87.9053803,32.7356224 94.72,29.55" id="Shape" stroke="#35495E" stroke-width="1.26"></path>
            <path d="M81.24,69.47 C79.6015955,66.3536952 78.5443506,62.9650896 78.12,59.47" id="Shape" stroke="#BDC3C7" stroke-width="1.26"></path>
            <path d="M135.84,60 C134.964107,66.2536814 132.070929,72.0505707 127.6,76.51 C126.71414,77.399371 125.772211,78.2310744 124.78,79" id="Shape" stroke="#BDC3C7" stroke-width="1.26"></path>
            <path d="M108.52,26.86 C118.648802,27.3952495 127.771803,33.1553506 132.61,42.07" id="Shape" stroke="#BDC3C7" stroke-width="1.26"></path>
            <path d="M83.53,21.4 C92.5965686,15.6391693 103.535809,13.5974643 114.07,15.7" id="Shape" stroke="#BDC3C7" stroke-width="1.8"></path>
            <path d="M64.77,50.21 C65.5236728,45.2142923 67.1843051,40.3984587 69.67,36" id="Shape" stroke="#35495E" stroke-width="1.8"></path>
            <path d="M135.57,85.54 C129.269193,91.987632 121.035144,96.2012182 112.12,97.54 C110.351824,97.8102173 108.568192,97.9672037 106.78,98.01" id="Shape" stroke="#BDC3C7" stroke-width="1.8"></path>
            <path d="M147.34,53.62 C147.54016,56.4790051 147.442973,59.3510659 147.05,62.19" id="Shape" stroke="#35495E" stroke-width="1.8"></path>
            <path d="M141.11,34.4 C143.196205,37.732229 144.795695,41.3453919 145.86,45.13" id="Shape" stroke="#BDC3C7" stroke-width="1.8"></path>
            <path d="M91.18,102.15 C79.5788748,97.5470728 70.2009901,88.6456047 65,77.3" id="Shape" stroke="#E57E25" stroke-width="2.1"></path>
            <path d="M131.06,100.15 C125.853375,102.833698 120.200843,104.545046 114.38,105.2" id="Shape" stroke="#BDC3C7" stroke-width="2.1"></path>
            <path d="M116,9.46 C126.361522,10.9879678 135.940499,15.8582173 143.28,23.33 C144.75146,24.797267 146.127601,26.3571156 147.4,28" id="Shape" stroke="#35495E" stroke-width="2.1"></path>
            <path d="M86.48,72.92 C85.0957943,71.1987489 83.9271315,69.3147838 83,67.31" id="Shape" stroke="#BDC3C7" stroke-width="0.44"></path>
            <path d="M97.87,81.23 C97.3033333,81.01 96.74,80.77 96.18,80.51" id="Shape" stroke="#BDC3C7" stroke-width="1.1"></path>
            <path d="M120.39,79.94 C117.46032,81.4768942 114.274839,82.4664267 110.99,82.86" id="Shape" stroke="#BDC3C7" stroke-width="0.44"></path>
            <path d="M117.45,30.31 C119.200111,30.9812734 120.875768,31.832507 122.45,32.85" id="Shape" stroke="#BDC3C7" stroke-width="0.44"></path>
            <path d="M111.52,28.78 C113.547878,29.0655549 115.537104,29.5787953 117.45,30.31" id="Shape" stroke="#BDC3C7" stroke-width="0.44"></path>
            <path d="M86.76,38.32 C87.28,37.6933333 87.8333333,37.0866667 88.42,36.5 C89.4878061,35.4335163 90.6417139,34.4568755 91.87,33.58" id="Shape" stroke="#BDC3C7" stroke-width="0.44"></path>
            <path d="M80.47,54.37 C80.5853289,52.1063491 80.9817035,49.8658246 81.65,47.7" id="Shape" stroke="#BDC3C7" stroke-width="0.44"></path>
            <path d="M111.39,17.45 C114.710731,17.87473 117.961641,18.7320019 121.06,20" id="Shape" stroke="#2C3E50" stroke-width="0.66"></path>
            <path d="M92.21,19.78 C94.6668348,18.8129838 97.2170564,18.102541 99.82,17.66" id="Shape" stroke="#2C3E50" stroke-width="0.22"></path>
            <path d="M70,42.68 C71.5863732,38.2886267 73.9583147,34.2224413 77,30.68" id="Shape" stroke="#BDC3C7" stroke-width="0.22"></path>
            <path d="M128.18,87.51 C121.295302,92.2724817 113.043797,94.6566399 104.68,94.3 C103.020611,94.2322386 101.367245,94.0585517 99.73,93.78" id="Shape" stroke="#BDC3C7" stroke-width="0.22"></path>
            <path d="M144.61,60.54 C144.280292,63.1820113 143.677056,65.7826314 142.81,68.3" id="Shape" stroke="#2C3E50" stroke-width="0.22"></path>
            <path d="M142.37,41.91 C143.678894,45.3199706 144.493797,48.8994826 144.79,52.54" id="Shape" stroke="#BDC3C7" stroke-width="0.44"></path>
            <circle id="Oval" fill="#F29C1F" fill-rule="nonzero" cx="89.31" cy="26.86" r="1.35"></circle>
            <circle id="Oval" fill="#2C3E50" fill-rule="nonzero" cx="61.41" cy="77.99" r="1"></circle>
            <circle id="Oval" fill="#E57E25" fill-rule="nonzero" cx="153.58" cy="48.14" r="2"></circle>
            <circle id="Oval" fill="#E57E25" fill-rule="nonzero" cx="58.66" cy="41.22" r="1"></circle>
            <circle id="Oval" fill="#E57E25" fill-rule="nonzero" cx="79.64" cy="24.63" r="1"></circle>
            <circle id="Oval" fill="#F29C1F" fill-rule="nonzero" cx="120.39" cy="99.73" r="1"></circle>
            <circle id="Oval" fill="#F29C1F" fill-rule="nonzero" cx="82.98" cy="72.41" r="1"></circle>
            <circle id="Oval" fill="#E57E25" fill-rule="nonzero" cx="98.62" cy="100.43" r="1.11"></circle>
        </g>
    </g>
</svg>