<svg id="Layer_1" data-name="Layer 1" xmlns="http://www.w3.org/2000/svg" viewBox="0 0 177.99 116.67"><defs><style>.cls-1{fill:#2c3e50;}.cls-2{fill:#3b97d3;}.cls-3{fill:#ecf0f1;}.cls-4{fill:#233140;}.cls-5{fill:#be1e2d;}.cls-6{fill:#39b54a;}.cls-7{fill:#f7941d;}.cls-8{fill:#307aab;}.cls-9{fill:#d1d3d4;}.cls-10{fill:#fff;}.cls-11{fill:#eceff0;}.cls-12{fill:#3b97d2;}</style></defs><title>vm</title><polygon class="cls-1" points="92.43 109.1 92.43 56.89 141.26 32.88 141.26 83.46 92.43 109.1"/><polygon class="cls-2" points="41.88 33.17 41.88 84.22 92.43 109.1 92.43 56.93 41.88 33.17"/><polygon class="cls-3" points="41.8 33.37 89.55 7.86 141.34 32.63 92.41 57.28 41.8 33.37"/><polygon class="cls-4" points="99.45 97.18 99.45 64.91 136.44 45.57 136.44 77.78 99.45 97.18"/><circle class="cls-5" cx="102.2" cy="66.4" r="0.64"/><circle class="cls-6" cx="106.24" cy="64.5" r="0.64"/><circle class="cls-7" cx="104.37" cy="65.42" r="0.64"/><polygon class="cls-8" points="85.21 64.48 46.34 45.89 46.34 77.61 84.91 96.98 85.21 64.48"/><circle class="cls-5" cx="48.24" cy="49.92" r="0.64" transform="translate(-20.83 42.96) rotate(-40.23)"/><circle class="cls-6" cx="52.3" cy="51.78" r="0.64" transform="translate(-21.07 46.02) rotate(-40.23)"/><circle class="cls-7" cx="50.39" cy="50.95" r="0.64" transform="translate(-20.99 44.59) rotate(-40.23)"/><polygon class="cls-2" points="49.45 54.87 49.45 74.99 68.12 84.22 68.12 63.86 49.45 54.87"/><polygon class="cls-2" points="70.54 64.81 70.54 85.27 80.68 90.11 80.68 69.24 70.54 64.81"/><polygon class="cls-9" points="52.64 32.57 89.6 12.21 130.09 32.22 92.43 51.14 52.64 32.57"/><circle class="cls-5" cx="58.39" cy="32.18" r="0.64" transform="translate(-4.17 9.15) rotate(-8.65)"/><circle class="cls-6" cx="62.41" cy="30" r="0.64" transform="translate(-3.8 9.73) rotate(-8.65)"/><circle class="cls-7" cx="60.4" cy="31.19" r="0.64" transform="translate(-4 9.44) rotate(-8.65)"/><polygon class="cls-10" points="63.41 35.26 94.29 18.47 110.38 26.11 79.75 42.82 63.41 35.26"/><polygon class="cls-10" points="81.53 43.57 112.42 26.78 122.71 31.67 91.37 48.13 81.53 43.57"/><path class="cls-10" d="M59.88,73.52l-.18-.08v0h0l.18.08v0Zm-.48-.22h0l-.3-.15v0h0l.3.15a0,0,0,0,1,0,0Zm-.6-.3h0l-.3-.16a0,0,0,0,1,0,0h0l.3.16v0Zm-.6-.32h0l-.3-.16v0h0l.3.16v0Zm-.6-.33h0l-.3-.17a0,0,0,0,1,0,0h0l.3.17v0ZM57,72h0l-.3-.18v0h0L57,72a0,0,0,0,1,0,0Zm-.59-.36h0l-.3-.18a0,0,0,0,1,0,0h0l.3.18v0Zm-.59-.37h0l-.3-.19a0,0,0,0,1,0,0h0l.3.19a0,0,0,0,1,0,0Zm-.59-.38h0l-.29-.2a0,0,0,0,1,0,0h0l.29.2v0Zm-.59-.4h0l-.29-.2a0,0,0,0,1,0,0h0l.29.2s0,0,0,0ZM54,70.1h0l-.29-.22a0,0,0,0,1,0,0h0l.29.22a0,0,0,0,1,0,0Zm-.57-.44h0l-.28-.24s0,0,0,0h0l.28.24s0,0,0,0Zm-.54-.5h0a.58.58,0,0,1-.18-.32h0v0a.55.55,0,0,0,.17.29,0,0,0,0,1,0,0Z"/><path class="cls-10" d="M57,66.29h0v0c0-.1,0-.2,0-.3h0v0c0,.1,0,.2,0,.3Zm0-.59h0v0c0-.1,0-.2,0-.29h0v0c0,.09,0,.19,0,.29Zm.06-.57h0v0c0-.1,0-.19,0-.28h0a0,0,0,0,1,0,0c0,.09,0,.18,0,.28Zm.11-.55h0a0,0,0,0,1,0,0c0-.09,0-.18.08-.26h0a0,0,0,0,1,0,0c0,.08-.05.17-.08.26Zm.17-.5h0a0,0,0,0,1,0,0,2,2,0,0,1,.12-.22h0a0,0,0,0,1,0,0,1.77,1.77,0,0,0-.12.22Zm.27-.42h0s0,0,0,0a1,1,0,0,1,.18-.16h0s0,0,0,0a1.09,1.09,0,0,0-.18.16Zm.4-.27h0s0,0,0,0a.93.93,0,0,1,.26,0l0,0s0,0,0,0a.87.87,0,0,0-.25,0Zm.54,0,0,0s0,0,0,0a1.73,1.73,0,0,1,.3.1l0,0h0a1.68,1.68,0,0,0-.3-.1Z"/><path class="cls-10" d="M58.84,76.33c-3.56-1.56-6.46-5.73-6.46-9.3s2.9-5.2,6.46-3.63,6.46,5.73,6.46,9.3a4.62,4.62,0,0,1-.85,2.83s-.05,0-.08,0,0-.07,0-.09a4.53,4.53,0,0,0,.83-2.78c0-3.5-2.85-7.59-6.34-9.12s-6.34.07-6.34,3.57,2.85,7.59,6.34,9.12a.11.11,0,0,1,.06.09S58.88,76.35,58.84,76.33Z"/><path class="cls-10" d="M64.33,75.59h0s0,0,0,0l.08-.1h0s0,0,0,0l-.08.1Z"/><path class="cls-10" d="M59.31,76.48v0h0l.3.1,0,0h0l-.31-.11Zm.61.19v0s0,0,0,0l.3.07,0,0s0,0,0,0l-.3-.07Zm.6.13v0s0,0,0,0l.29,0,0,0s0,0,0,0l-.29,0Zm.58.07v0s0,0,0,0h.28l0,0s0,0,0,0H61.1Zm.56,0h0s0,0,0,0l.27,0,0,0s0,0,0,0l-.27,0Zm.54-.06h0s0,0,0,0l.26-.05h0s0,0,0,0l-.26.05Zm.51-.12h0s0,0,0,0l.24-.09h0s0,0,0,0l-.24.09Zm.47-.19h0s0,0,0,0l.22-.12h0s0,0,0,0l-.22.12Zm.43-.25h0s0,0,0,0l.2-.14h0s0,0,0,0l-.2.15ZM64,76h0a0,0,0,0,1,0,0l.18-.17h0s0,0,0,0L64,76Z"/><path class="cls-10" d="M58.84,76.29v0h0l.15.06h0l0,0h0Z"/><path class="cls-10" d="M57.84,70.68a.11.11,0,0,1-.06-.09s0,0,.06,0c3.2,1.4,5.8.27,5.8-2.51,0,0,0,0,.06,0a.1.1,0,0,1,.06.09C63.76,71,61.11,72.11,57.84,70.68Z"/><path class="cls-10" d="M62.7,71.94a.11.11,0,0,1-.06-.09c0-4.29-1.4-7.27-3.93-8.38a.11.11,0,0,1-.06-.09s0,0,.06,0c2.61,1.14,4.06,4.18,4.06,8.56C62.76,71.94,62.74,71.95,62.7,71.94Z"/><path class="cls-10" d="M61.52,69.33a.1.1,0,0,1-.06-.09s0,0,.06,0c.81.36,2.12-.36,2.12-1.16,0,0,0,0,.06,0a.1.1,0,0,1,.06.09C63.76,69,62.4,69.72,61.52,69.33Z"/><path class="cls-10" d="M52.76,68.84v0a1,1,0,0,1,0-.16h0v0a1,1,0,0,0,0,.16Zm.09-.41h0s0,0,0,0A.92.92,0,0,1,53,68.2h0s0,0,0,0a.93.93,0,0,0-.14.2Zm.32-.37h0s0,0,0,0l.21-.13h0s0,0,0,0l-.21.13Zm.43-.23h0s0,0,0,0l.24-.08h0s0,0,0,0l-.24.08Zm.49-.13h0s0,0,0,0l.26,0,0,0s0,0,0,0l-.26,0Zm.52-.07h0s0,0,0,0l.27,0,0,0s0,0,0,0l-.27,0Zm.55,0v0s0,0,0,0h.28l0,0s0,0,0,0h-.28Zm.56,0v0s0,0,0,0l.28,0,0,0s0,0,0,0l-.28,0Zm.57.05v0a0,0,0,0,1,0,0l.29,0,0,0s0,0,0,0l-.29,0Zm.58.08v0s0,0,0,0l.29.05,0,0a0,0,0,0,1,0,0l-.29-.05Zm.59.11v0s0,0,0,0l.3.07,0,0s0,0,0,0l-.29-.07Zm.59.14v0s0,0,0,0l.3.08,0,0h0l-.3-.08Zm.59.16v0s0,0,0,0l.3.09,0,0s0,0,0,0l-.3-.09Zm.6.19v0a0,0,0,0,1,0,0l.3.1h0v0h0l-.3-.1Zm.6.21v0h0l.3.12,0,0h0l-.3-.12Zm.6.24,0,0h0l.3.13,0,0h0l-.3-.13Z"/><path class="cls-10" d="M57,66.47c-1.45-.63-2.87-2.14-2.87-3,0,0,0,0,.06,0a.11.11,0,0,1,.06.09c0,.82,1.39,2.26,2.75,2.86a.11.11,0,0,1,.06.09S57,66.49,57,66.47Z"/><path class="cls-10" d="M59.88,73.57a.11.11,0,0,1-.06-.09c0-2.82-1.44-6.32-2.85-6.94a.11.11,0,0,1-.06-.09s0,0,.06,0c1.47.64,3,4.23,3,7.11C59.94,73.57,59.92,73.58,59.88,73.57Z"/><path class="cls-10" d="M60.32,73.7c0,.24-.2.35-.44.24a.76.76,0,0,1-.44-.63c0-.24.19-.35.44-.25A.76.76,0,0,1,60.32,73.7Z"/><path class="cls-10" d="M59.88,74a.86.86,0,0,1-.5-.71c0-.27.22-.4.5-.28a.86.86,0,0,1,.5.71C60.38,74,60.16,74.12,59.88,74Zm0-.87c-.21-.09-.38,0-.38.21a.66.66,0,0,0,.38.54c.21.09.37,0,.37-.21A.65.65,0,0,0,59.88,73.13Z"/><path class="cls-10" d="M63.14,72.07c0,.24-.2.35-.44.25a.76.76,0,0,1-.44-.63c0-.24.19-.35.44-.25A.76.76,0,0,1,63.14,72.07Z"/><path class="cls-10" d="M62.7,72.37a.87.87,0,0,1-.5-.71c0-.27.22-.4.5-.28a.86.86,0,0,1,.5.71C63.2,72.37,63,72.49,62.7,72.37Zm0-.87c-.21-.09-.38,0-.38.21a.65.65,0,0,0,.38.54c.21.09.37,0,.37-.21A.65.65,0,0,0,62.7,71.5Z"/><path class="cls-10" d="M57.84,70.62c0,.24-.2.35-.44.25a.76.76,0,0,1-.44-.63c0-.24.19-.35.44-.25A.76.76,0,0,1,57.84,70.62Z"/><path class="cls-10" d="M57.41,70.92a.86.86,0,0,1-.5-.71c0-.27.22-.4.5-.28a.86.86,0,0,1,.5.71C57.91,70.92,57.68,71,57.41,70.92Zm0-.87c-.21-.09-.38,0-.38.21a.65.65,0,0,0,.38.54c.21.09.38,0,.38-.21A.65.65,0,0,0,57.41,70.05Z"/><path class="cls-10" d="M53.2,69c0,.24-.2.35-.44.25a.76.76,0,0,1-.44-.63c0-.24.2-.35.44-.24A.76.76,0,0,1,53.2,69Z"/><path class="cls-10" d="M52.76,69.33a.86.86,0,0,1-.5-.71c0-.27.22-.4.5-.28a.86.86,0,0,1,.5.71C53.26,69.32,53,69.44,52.76,69.33Zm0-.87c-.21-.09-.38,0-.38.21a.65.65,0,0,0,.38.54c.21.09.38,0,.38-.21A.65.65,0,0,0,52.76,68.45Z"/><path class="cls-10" d="M59.15,63.6c0,.1-.2.1-.44,0s-.44-.28-.44-.38.2-.1.44,0S59.15,63.49,59.15,63.6Z"/><path class="cls-10" d="M58.71,63.65c-.25-.11-.5-.3-.5-.47,0-.33,1,.11,1,.43C59.2,63.79,59,63.76,58.71,63.65Zm0-.38c-.24-.11-.37-.08-.37,0s.13.19.37.29.38.08.38,0S59,63.39,58.71,63.28Z"/><path class="cls-10" d="M64.14,68.27c0,.24-.2.35-.44.25a.76.76,0,0,1-.44-.63c0-.24.19-.35.44-.24A.76.76,0,0,1,64.14,68.27Z"/><path class="cls-10" d="M63.7,68.57a.86.86,0,0,1-.5-.71c0-.27.22-.4.5-.28a.86.86,0,0,1,.5.71C64.2,68.57,64,68.69,63.7,68.57Zm0-.87c-.21-.09-.38,0-.38.21a.65.65,0,0,0,.38.54c.21.09.38,0,.38-.21A.65.65,0,0,0,63.7,67.7Z"/><path class="cls-10" d="M58.84,76.29v0h0l.3.1,0,0s0,0,0,0A1.76,1.76,0,0,1,58.84,76.29Zm.59.14v0s0,0,0,0a1.14,1.14,0,0,0,.26,0h0s0,0,0,0a1.17,1.17,0,0,1-.27,0Zm.5-.11h0s0,0,0,0l.21-.13h0s0,0,0,0l-.21.13Zm.39-.29h0a0,0,0,0,1,0,0l.16-.18h0a0,0,0,0,1,0,0l-.16.19Zm.3-.39h0a0,0,0,0,1,0,0l.12-.22h0a0,0,0,0,1,0,0l-.12.22Zm.23-.45h0a0,0,0,0,1,0,0l.1-.24h0a0,0,0,0,1,0,0l-.1.24ZM61,74.7h0s0,0,0,0l.08-.26h0a0,0,0,0,1,0,0l-.08.26Zm.15-.52h0a0,0,0,0,1,0,0l.06-.27h0a0,0,0,0,1,0,0l-.06.27Zm.12-.54h0a0,0,0,0,1,0,0l0-.28h0a0,0,0,0,1,0,0l0,.28Zm.09-.55h0v0l0-.28h0v0c0,.09,0,.19,0,.28Zm.07-.57h0v0l0-.29h0v0l0,.29Zm.06-.58h0v0l0-.29h0v0c0,.1,0,.2,0,.29Zm0-.58h0v0c0-.1,0-.19,0-.29h0v0c0,.1,0,.2,0,.29Zm0-.59h0a0,0,0,0,1,0,0c0-.1,0-.2,0-.3h0v0c0,.1,0,.2,0,.3Zm0-.59h0v0c0-.1,0-.2,0-.3h0v0c0,.1,0,.2,0,.3Zm0-.6h0l0,0c0-.08,0-.16,0-.25h0l0,0c0,.08,0,.16,0,.25Z"/><path class="cls-10" d="M62.09,69.52c0,.24-.19.35-.44.25a.76.76,0,0,1-.44-.63c0-.24.2-.35.44-.25A.76.76,0,0,1,62.09,69.52Z"/><path class="cls-10" d="M61.66,69.83a.86.86,0,0,1-.5-.71c0-.27.22-.4.5-.28a.86.86,0,0,1,.5.71C62.15,69.82,61.93,69.95,61.66,69.83Zm0-.87c-.21-.09-.37,0-.37.21a.65.65,0,0,0,.37.54c.21.09.38,0,.38-.21A.65.65,0,0,0,61.66,69Z"/><path class="cls-10" d="M58.84,76.29l-.3-.15a0,0,0,0,1,0,0h0l.3.14,0,0Zm-.6-.32h0l-.29-.2a0,0,0,0,1,0,0h0l.29.2a0,0,0,0,1,0,0Zm-.58-.42h0l-.27-.25s0,0,0,0h0l.27.24a0,0,0,0,1,0,0ZM57.14,75h0l-.24-.28s0,0,0,0h0l.24.28a0,0,0,0,1,0,0Zm-.47-.58h0l-.21-.31s0,0,0,0h0l.21.3s0,0,0,0Zm-.41-.62h0l-.18-.32s0,0,0,0h0l.18.32s0,0,0,0Zm-.35-.64h0l-.16-.33s0,0,0,0l0,0,.16.32s0,0,0,0Zm-.3-.65h0l-.13-.33s0,0,0,0l0,0,.13.33s0,0,0,0Zm-.26-.66v0l-.11-.33s0,0,0,0l0,0,.11.33s0,0,0,0Zm-.22-.66v0l-.1-.33s0,0,0,0l0,0,.1.33s0,0,0,0Zm-.19-.65v0l-.08-.33s0,0,0,0l0,0,.08.33s0,0,0,0Zm-.16-.65v0l-.07-.32s0,0,0,0l0,0,.07.32s0,0,0,0Zm-.13-.65v0l-.06-.32s0,0,0,0l0,0,.06.32s0,0,0,0Zm-.11-.64v0l0-.32s0,0,0,0l0,0,0,.32h0ZM54.44,68v0l0-.32h0l0,0,0,.32h0Zm-.08-.63,0,0,0-.31s0,0,0,0l0,0,0,.31h0Zm-.06-.63v0l0-.31h0l0,0,0,.31s0,0,0,0Zm0-.62v0l0-.31h0v0l0,.31h0Zm0-.62v-.33h0v0c0,.1,0,.21,0,.31h0Zm0-.61v0c0-.1,0-.2,0-.31h0l0,0c0,.1,0,.21,0,.31Zm0-.61,0,0V64h0v0c0,.1,0,.2,0,.3Zm0-.61,0,0v-.2h0v0c0,.07,0,.13,0,.2Z"/><path class="cls-10" d="M54.6,63.65c0,.24-.19.35-.44.25a.76.76,0,0,1-.44-.63c0-.24.2-.35.44-.24A.76.76,0,0,1,54.6,63.65Z"/><path class="cls-10" d="M54.16,64a.86.86,0,0,1-.5-.71c0-.27.22-.4.5-.28a.86.86,0,0,1,.5.71C54.66,64,54.44,64.08,54.16,64Zm0-.87c-.21-.09-.38,0-.38.21a.66.66,0,0,0,.38.54c.21.09.37,0,.37-.21A.65.65,0,0,0,54.16,63.09Z"/><path class="cls-10" d="M57,66.47a.11.11,0,0,1-.06-.09s0,0,.06,0c.34.15,1.81-2,1.81-2.91,0,0,0,0,.06,0a.11.11,0,0,1,.06.09C58.9,64.29,57.47,66.69,57,66.47Z"/><path class="cls-10" d="M57.41,66.6c0,.24-.2.35-.44.24a.76.76,0,0,1-.44-.63c0-.24.2-.35.44-.24A.76.76,0,0,1,57.41,66.6Z"/><path class="cls-10" d="M57,66.91a.86.86,0,0,1-.5-.71c0-.27.22-.4.5-.28a.86.86,0,0,1,.5.71C57.47,66.9,57.25,67,57,66.91ZM57,66c-.21-.09-.37,0-.37.21a.65.65,0,0,0,.37.54c.21.09.38,0,.38-.21A.65.65,0,0,0,57,66Z"/><path class="cls-10" d="M58.71,76.28a.11.11,0,0,1-.06-.09c0-1.48,3.18-1.9,5.76-.77a.1.1,0,0,1,.06.09s0,0-.06,0c-2.48-1.08-5.64-.69-5.64.7C58.77,76.27,58.74,76.29,58.71,76.28Z"/><path class="cls-10" d="M64.75,75.64c0,.24-.2.35-.44.24a.76.76,0,0,1-.44-.63c0-.24.19-.35.44-.25A.76.76,0,0,1,64.75,75.64Z"/><path class="cls-10" d="M64.32,75.95a.86.86,0,0,1-.5-.71c0-.27.22-.4.5-.28a.86.86,0,0,1,.5.71C64.81,75.94,64.59,76.07,64.32,75.95Zm0-.87c-.21-.09-.38,0-.38.21a.65.65,0,0,0,.38.54c.21.09.37,0,.37-.21A.65.65,0,0,0,64.32,75.07Z"/><path class="cls-10" d="M59.15,76.41c0,.1-.2.1-.44,0s-.44-.27-.44-.38.2-.1.44,0S59.15,76.3,59.15,76.41Z"/><path class="cls-10" d="M58.71,76.46c-.25-.11-.5-.3-.5-.46,0-.33,1,.11,1,.43C59.2,76.59,59,76.57,58.71,76.46Zm0-.38c-.24-.11-.37-.08-.37,0s.13.19.37.29.38.08.38,0S59,76.19,58.71,76.09Z"/><rect class="cls-8" x="75.89" y="74.97" width="0.3" height="14.76" transform="translate(-30.51 117.13) rotate(-65.36)"/><rect class="cls-8" x="75.46" y="69.77" width="0.3" height="14.76" transform="translate(-26.03 113.71) rotate(-65.36)"/><rect class="cls-8" x="75.46" y="64.56" width="0.3" height="14.76" transform="translate(-21.3 110.67) rotate(-65.36)"/><rect class="cls-9" x="67.71" y="29.61" width="25.13" height="0.3" transform="translate(-4.57 41.19) rotate(-28.02)"/><rect class="cls-9" x="76.72" y="29.38" width="20.78" height="0.3" transform="translate(-3.6 44.77) rotate(-28.27)"/><rect class="cls-9" x="91.83" y="27.07" width="9.56" height="0.3" transform="translate(-1.14 50.03) rotate(-28.87)"/><path class="cls-11" d="M117.28,74.7a1.64,1.64,0,0,1-.91-.25,1.71,1.71,0,0,1-.71-1.5,4.44,4.44,0,0,1,2.55-3.67,2.05,2.05,0,0,1,2,0,1.71,1.71,0,0,1,.71,1.5,4.44,4.44,0,0,1-2.55,3.67A2.63,2.63,0,0,1,117.28,74.7Zm2-5.38a2.35,2.35,0,0,0-.93.21A4.13,4.13,0,0,0,115.94,73a1.44,1.44,0,0,0,.58,1.27,1.78,1.78,0,0,0,1.69,0,4.13,4.13,0,0,0,2.38-3.41,1.44,1.44,0,0,0-.58-1.27A1.37,1.37,0,0,0,119.26,69.32Z"/><path class="cls-1" d="M116.74,76.47a2.75,2.75,0,0,1-1.52-.43,2.85,2.85,0,0,1-1.19-2.5,7.11,7.11,0,0,1,4.08-5.88,3.38,3.38,0,0,1,3.22,0,2.85,2.85,0,0,1,1.19,2.5,7.11,7.11,0,0,1-4.08,5.88A4.28,4.28,0,0,1,116.74,76.47Zm3.06-8.35a3.45,3.45,0,0,0-1.36.31,6.2,6.2,0,0,0-3.58,5.12,2,2,0,0,0,.82,1.8,2.58,2.58,0,0,0,2.43,0,6.2,6.2,0,0,0,3.58-5.12,2,2,0,0,0-.82-1.8A1.92,1.92,0,0,0,119.8,68.12Z"/><path class="cls-10" d="M116.59,79.1l-3-.43-1.76-2.28v-3.5l1.73-3.72,3-3,3.43-1.5h0l3,.42,1.76,2.28v3.5L123,74.59l-3,3Zm-2.89-.69,2.85.4,3.34-1.46,2.91-2.95,1.68-3.63V67.46l-1.63-2.12-2.85-.4-3.34,1.46-2.91,2.95L112.07,73v3.32Z"/><path class="cls-10" d="M116.14,81.21l-3.95-.56-2.3-3v-4.5l2.22-4.81,3.83-3.88,4.46-1.95,3.95.56,2.3,3v4.5l-2.22,4.81-3.83,3.88Zm-3.65-1.08,3.57.5,4.22-1.84L124,75.05l2.12-4.61V66.26l-2-2.65-3.57-.5L116.26,65l-3.69,3.74-2.12,4.61v4.18Z"/><path class="cls-10" d="M115.73,82.92l-4.66-.66-2.71-3.51V73.44l2.63-5.7,4.54-4.6,5.28-2.31,4.66.66L128.18,65v5.32L125.55,76,121,80.61Zm-4.36-1.18,4.28.6,5-2.2,4.4-4.46,2.54-5.5v-5L125.17,62l-4.28-.6-5,2.2-4.4,4.46-2.54,5.5v5Z"/><path class="cls-12" d="M118.4,71.79h-.11c0-3.91,3.18-8.49,7.1-10.2l0,.1C121.55,63.38,118.4,67.91,118.4,71.79Z"/><path class="cls-12" d="M111.19,82l0-.1c3.94-1.72,7.15-6.32,7.15-10.26h.11C118.4,75.65,115.17,80.3,111.19,82Z"/><path class="cls-12" d="M118.29,71.72h-.11c0-3.54,3.29-7.85,7.33-9.61l0,.1C121.54,64,118.29,68.23,118.29,71.72Z"/><path class="cls-12" d="M118.34,71.53h-.11c0-4,2.82-8.5,6.29-10l0,.1C121.14,63.11,118.34,67.56,118.34,71.53Z"/><path class="cls-12" d="M118.29,71.55h-.11c0-3.12,3.31-7.11,7.38-8.89l0,.1C121.57,64.53,118.29,68.47,118.29,71.55Z"/><path class="cls-12" d="M110.61,80.39l0-.1c4.19-1.83,7.6-5.67,7.6-8.57h.11C118.29,74.66,114.84,78.55,110.61,80.39Z"/><path class="cls-12" d="M114.75,82.21l0-.1c2-.86,3.59-5.52,3.59-10.37h.11C118.4,76.63,116.76,81.33,114.75,82.21Z"/><path class="cls-12" d="M118.4,71.73h-.11a2,2,0,0,0-.92-1.77c-1.19-.78-3.38-.63-5.72.39l0-.1c2.41-1.05,4.59-1.2,5.83-.38A2.12,2.12,0,0,1,118.4,71.73Z"/><path class="cls-10" d="M119,72a1,1,0,0,1-.52-.1.27.27,0,0,1-.13-.24h.11a.16.16,0,0,0,.08.14c.61.4,4-.56,7.82-2.24l0,.1C123.1,71.09,120.23,72,119,72Z"/><path class="cls-12" d="M118.29,71.84h-.11c0-1.67,4.34-4.92,9.68-7.25l0,.1C122.6,67,118.29,70.21,118.29,71.84Z"/><path class="cls-12" d="M118.29,71.72h-.11c0-.32,2.36-1.47,3.94-2.16l0,.1A15.56,15.56,0,0,0,118.29,71.72Z"/><path class="cls-12" d="M118.4,71.67h-.11a.92.92,0,0,0-.42-.82,3.33,3.33,0,0,0-2.89.22l0-.1a3.43,3.43,0,0,1,3-.21A1,1,0,0,1,118.4,71.67Z"/><path class="cls-1" d="M118.72,71.68a.79.79,0,0,1-.45.65c-.25.11-.45,0-.45-.26a.79.79,0,0,1,.45-.65C118.52,71.31,118.72,71.43,118.72,71.68Z"/><path class="cls-10" d="M118.09,72.44a.35.35,0,0,1-.19-.05.36.36,0,0,1-.15-.31.85.85,0,0,1,.5-.72.42.42,0,0,1,.4,0,.36.36,0,0,1,.15.31.85.85,0,0,1-.5.72A.53.53,0,0,1,118.09,72.44Zm.36-1a.39.39,0,0,0-.15,0,.72.72,0,0,0-.41.59.22.22,0,0,0,.09.2.28.28,0,0,0,.27,0,.72.72,0,0,0,.41-.59.22.22,0,0,0-.09-.2A.21.21,0,0,0,118.45,71.45Z"/><rect class="cls-9" x="88.73" y="36.78" width="27.15" height="0.6" transform="translate(-5.35 52.97) rotate(-28.32)"/><ellipse class="cls-9" cx="113.79" cy="43.23" rx="2.32" ry="1.26"/><circle class="cls-4" cx="120.44" cy="89.93" r="1.74"/><ellipse class="cls-8" cx="62.94" cy="90.15" rx="1.35" ry="1.74"/><polygon class="cls-1" points="18.28 73.18 18.28 64.56 26.35 60.59 26.35 68.95 18.28 73.18"/><polygon class="cls-2" points="9.93 60.64 9.93 69.07 18.28 73.18 18.28 64.56 9.93 60.64"/><polygon class="cls-3" points="9.91 60.67 17.8 56.46 26.36 60.55 18.27 64.62 9.91 60.67"/><polygon class="cls-1" points="158.84 81.74 158.84 78.2 162.15 76.57 162.15 80 158.84 81.74"/><polygon class="cls-2" points="155.41 76.59 155.41 80.06 158.84 81.74 158.84 78.21 155.41 76.59"/><polygon class="cls-3" points="155.4 76.61 158.64 74.88 162.16 76.56 158.84 78.23 155.4 76.61"/></svg>