<?xml version="1.0" encoding="UTF-8" standalone="no"?>
<svg width="616px" height="278px" viewBox="0 0 616 278" version="1.1" xmlns="http://www.w3.org/2000/svg" xmlns:xlink="http://www.w3.org/1999/xlink" xmlns:sketch="http://www.bohemiancoding.com/sketch/ns">
    <!-- Generator: Sketch 3.0 (7574) - http://www.bohemiancoding.com/sketch -->
    <title>Slice 1</title>
    <description>Created with Sketch.</description>
    <defs></defs>
    <g id="Page-1" stroke="none" stroke-width="1" fill="none" fill-rule="evenodd" sketch:type="MSPage">
        <g id="home_net" sketch:type="MSLayerGroup" transform="translate(-20.000000, -12.000000)" stroke-width="0.4" stroke="#DC9724">
            <g id="Page-1" sketch:type="MSShapeGroup">
                <g id="home_net">
                    <g id="Page-1">
                        <path d="M176,0.0201905869 C176,0.0201905869 207.635693,-1.35105617 244.313846,18.5075174 C255.348933,24.4835929 281.758232,43.6470414 293.103052,60.5740875 C319.460888,99.8991641 328,149 328,149" id="Path-2"></path>
                        <path d="M63,20 C63,20 130.071445,42.1737909 203.058228,78.3043847 C246.798602,99.9581888 308.218933,132.261241 327.110869,149.696266 C397.834525,214.964082 517,177.048965 517,177.048965" id="Path-4"></path>
                        <path d="M0,160.347633 C0,160.347633 165.165244,267.365701 330.304628,153.69613 C495.444013,40.0265582 635,135.546726 635,135.546726" id="Path-5"></path>
                        <path d="M65,122 C65,122 92.9074394,214.664834 325.174483,151.574606 C328.510888,150.668833 192.105162,166.793802 335.702737,149.737066 C479.298397,132.68133 532,262 532,262" id="Path-6"></path>
                        <path d="M141,282 C141,282 311.273132,247.193102 331.091072,145.836457 C395.453464,92.1641106 376.348974,7 376.348974,7" id="Path-5_1_"></path>
                        <path d="M370.691908,254.622235 C370.691908,254.622235 267.948946,303.292159 327.645007,150.621313 C327.645007,0.137835113 405,29.2694099 405,29.2694099" id="Path-6_1_"></path>
                        <path d="M575,171.442222 C575,171.442222 469.194022,311.660849 329.138643,150.535391 C264.367107,98.0222011 270.13161,81 270.13161,81" id="Path-7"></path>
                        <path d="M412,248 C379.118685,238.172336 362.819002,203.665559 332.024679,151.649508 C317.003291,142.801411 302,112 302,112" id="Path-8"></path>
                        <path d="M483,134.563288 C483,134.563288 404.305142,62.0280688 330.322002,148.137113 C162.820571,215.679108 48,210.927717 48,210.927717" id="Path-9"></path>
                        <path d="M113,102.099659 C113,102.099659 283.985069,97.9610638 327.586823,143.023754 C356.20569,148.494691 411,178 411,178" id="Path-10"></path>
                        <path d="M132,131.941507 C132,131.941507 240.497134,110.595762 328.620363,148.822928 C391.042662,171.900749 474,131.941507 474,131.941507" id="Path-11"></path>
                        <path d="M556,13 C556,13 497.175614,145.242603 330.412546,145.242603 C298.872495,189.548203 233,221 233,221" id="Path-12"></path>
                    </g>
                </g>
            </g>
        </g>
    </g>
</svg>