<?xml version="1.0" encoding="UTF-8" standalone="no"?>
<svg width="665px" height="156px" viewBox="0 0 665 156" version="1.1" xmlns="http://www.w3.org/2000/svg" xmlns:xlink="http://www.w3.org/1999/xlink" xmlns:sketch="http://www.bohemiancoding.com/sketch/ns">
    <!-- Generator: Sketch 3.0 (7574) - http://www.bohemiancoding.com/sketch -->
    <title>Slice 1</title>
    <description>Created with Sketch.</description>
    <defs></defs>
    <g id="Page-1" stroke="none" stroke-width="1" fill="none" fill-rule="evenodd" sketch:type="MSPage">
        <g id="home_net" sketch:type="MSLayerGroup" transform="translate(1.000000, 1.000000)" stroke="#DC9724">
            <g id="Page-1" sketch:type="MSShapeGroup">
                <path d="M183.926,-0.105 C183.926,-0.105 217.121,-1.476 255.607,18.379 C267.186,24.354 294.897,43.514 306.801,60.438 C334.458,99.756 343.418,148.848 343.418,148.848" id="Path-2"></path>
                <path d="M65.258,20.262 C65.258,20.262 135.319,42.479 211.559,78.68 C257.249,100.376 321.407,132.742 341.141,150.211 C415.017,215.606 539.494,177.617 539.494,177.617" id="Path-4"></path>
                <path d="M0.196,159.992 C0.196,159.992 172.641,266.648 345.059,153.363 C517.477,40.078 663.184,135.275 663.184,135.275" id="Path-5"></path>
                <path d="M68.309,122.391 C68.309,122.391 97.451,215.079 339.993,151.973 C343.477,151.067 201.037,167.196 350.987,150.135 C500.935,133.075 555.968,262.426 555.968,262.426" id="Path-6"></path>
                <path d="M147.04,281.699 C147.04,281.699 324.127,246.904 344.738,145.582 C411.676,91.928 391.807,6.793 391.807,6.793" id="Path-5_1_"></path>
                <path d="M386.528,254.496 C386.528,254.496 279.997,303.18 341.894,150.465 C341.894,-0.062 422.101,29.078 422.101,29.078" id="Path-6_1_"></path>
                <path d="M599.848,170.949 C599.848,170.949 489.536,310.82 343.516,150.094 C275.986,97.711 281.996,80.731 281.996,80.731" id="Path-7"></path>
                <path d="M431.285,248.16 C396.765,238.328 379.653,203.806 347.324,151.767 C331.554,142.915 315.803,112.1 315.803,112.1" id="Path-8"></path>
                <path d="M504.59,134.723 C504.59,134.723 422.383,62.438 345.098,148.25 C170.121,215.559 50.176,210.824 50.176,210.824" id="Path-9"></path>
                <path d="M117.865,101.736 C117.865,101.736 296.098,97.614 341.548,142.496 C371.38,147.945 428.497,177.332 428.497,177.332" id="Path-10"></path>
                <path d="M137.412,131.574 C137.412,131.574 250.532,110.488 342.41,148.25 C407.492,171.047 493.984,131.574 493.984,131.574" id="Path-11"></path>
                <path d="M579.922,12.691 C579.922,12.691 518.578,144.699 344.672,144.699 C311.781,188.926 243.087,220.322 243.087,220.322" id="Path-12"></path>
            </g>
        </g>
    </g>
</svg>