<?xml version="1.0" encoding="UTF-8" standalone="no"?>
<!-- Generator: Adobe Illustrator 13.0.1, SVG Export Plug-In . SVG Version: 6.00 Build 14948)  -->

<svg
   xmlns:dc="http://purl.org/dc/elements/1.1/"
   xmlns:cc="http://creativecommons.org/ns#"
   xmlns:rdf="http://www.w3.org/1999/02/22-rdf-syntax-ns#"
   xmlns:svg="http://www.w3.org/2000/svg"
   xmlns="http://www.w3.org/2000/svg"
   xmlns:sodipodi="http://sodipodi.sourceforge.net/DTD/sodipodi-0.dtd"
   xmlns:inkscape="http://www.inkscape.org/namespaces/inkscape"
   version="1.1"
   id="Capa_1"
   x="0px"
   y="0px"
   width="200px"
   height="75px"
   viewBox="-23.858 -13.136 200 75"
   enable-background="new -23.858 -13.136 200 75"
   xml:space="preserve"
   inkscape:version="0.91 r13725"
   sodipodi:docname="opendata_logo.svg"><metadata
     id="metadata3529"><rdf:RDF><cc:Work
         rdf:about=""><dc:format>image/svg+xml</dc:format><dc:type
           rdf:resource="http://purl.org/dc/dcmitype/StillImage" /></cc:Work></rdf:RDF></metadata><defs
     id="defs3527" /><sodipodi:namedview
     pagecolor="#ffffff"
     bordercolor="#666666"
     borderopacity="1"
     objecttolerance="10"
     gridtolerance="10"
     guidetolerance="10"
     inkscape:pageopacity="0"
     inkscape:pageshadow="2"
     inkscape:window-width="640"
     inkscape:window-height="480"
     id="namedview3525"
     showgrid="false"
     inkscape:snap-page="true"
     inkscape:zoom="1.55"
     inkscape:cx="90.322581"
     inkscape:cy="37.5"
     inkscape:window-x="20"
     inkscape:window-y="42"
     inkscape:window-maximized="0"
     inkscape:current-layer="Capa_1" /><path
     inkscape:connector-curvature="0"
     id="rect3513"
     d="m 146.64167,45.122364 34.60176,0 0,15.870441 -34.60176,0 z"
     style="fill:none" /><g
     id="g3600"><g
       transform="matrix(1.3311442,0,0,1.3923883,-54.950797,-25.010844)"
       id="g3493"
       enable-background="new    "><path
         id="path3495"
         d="m 28.419,35.302 c 0,-8.238 4.239,-10.998 8.079,-10.998 3.52,0 8.119,2.36 8.119,10.998 0,8.599 -4.559,11.038 -8.119,11.038 -3.56,0 -8.079,-2.4 -8.079,-11.038 z m 14.318,0 c 0,-4.119 -1.04,-9.398 -6.239,-9.398 -5.159,0 -6.199,5.279 -6.199,9.398 0,4.16 1.04,9.438 6.199,9.438 5.199,0 6.239,-5.318 6.239,-9.438 z"
         inkscape:connector-curvature="0"
         style="fill:#3e5a6d" /><path
         id="path3497"
         d="m 47.539,32.143 c 0,-2.56 -0.2,-5.119 -0.96,-7.599 l 1.76,-0.24 0.72,3.479 0.08,0 c 1.08,-2.199 3.12,-3.479 5.599,-3.479 3.52,0 8.199,2.84 8.199,11.158 0,8.479 -5.439,10.878 -8.318,10.878 -1.88,0 -3.76,-0.64 -5.199,-1.799 l 0,9.838 -1.88,0 0,-22.236 z m 1.879,10.518 c 1.32,1.159 2.919,2.079 4.719,2.079 2.399,0 6.919,-1.68 6.919,-9.398 0,-7.358 -3.959,-9.438 -6.359,-9.438 -2.799,0 -4.239,1.96 -5.279,4.239 l 0,12.518 z"
         inkscape:connector-curvature="0"
         style="fill:#3e5a6d" /><path
         id="path3499"
         d="m 80.416,44.421 c -2.439,1.079 -4.839,1.919 -7.559,1.919 -6.199,0 -8.479,-5.559 -8.479,-10.918 0,-5.358 2.359,-11.118 8.599,-11.118 3.559,0 7.759,2.56 7.759,11.318 l -14.478,0 c 0.36,7.438 3.439,9.118 6.679,9.118 2.399,0 4.679,-0.88 6.679,-2.079 l 0.8,1.76 z m -1.56,-10.399 c 0.2,-3.64 -1.959,-8.119 -6.119,-8.119 -4.119,0 -6.599,4.399 -6.479,8.119 l 12.598,0 z"
         inkscape:connector-curvature="0"
         style="fill:#3e5a6d" /><path
         id="path3501"
         d="m 85.218,45.9 -1.879,0 0,-10.598 c 0,-3.599 -0.12,-7.198 -0.84,-10.798 l 1.759,0 0.76,6.079 0.08,0 c 0.8,-3.159 4.159,-6.279 7.519,-6.279 3.839,0 4.919,3.319 4.919,6.52 l 0,15.076 -1.879,0 0,-14.197 c 0,-2.439 0,-5.8 -3.28,-5.8 -3.039,0 -7.159,3.04 -7.159,11.278 l 0,8.719 z"
         inkscape:connector-curvature="0"
         style="fill:#3e5a6d" /></g><g
       transform="matrix(1.3311442,0,0,1.3923883,-54.950797,-25.010844)"
       id="g3503"
       enable-background="new    "><path
         id="path3505"
         d="m 114.055,46.34 -0.64,-2.399 c -1.8,1.6 -2.759,2.399 -5.239,2.399 -3.76,0 -8.558,-2.879 -8.558,-11.277 0,-8.159 5.199,-10.998 8.678,-10.998 1.8,0 3.04,0.439 4.52,1.239 l 0,-9.078 2.999,0 0,22.036 c 0,2.64 0.24,5.279 1.08,7.719 l -2.84,0.359 z m -1.24,-17.996 c -1.16,-0.96 -2.52,-1.76 -4.04,-1.76 -3.199,0 -6.158,2.68 -6.158,8.599 0,6.958 3.639,8.638 5.639,8.638 2.32,0 3.76,-1.72 4.56,-3.679 l 0,-11.798 z"
         inkscape:connector-curvature="0"
         style="fill:#3e5a6d" /><path
         id="path3507"
         d="m 120.097,25.544 c 2.04,-0.8 3.919,-1.479 6.159,-1.479 4.079,0 6.559,3.359 6.559,6.918 l 0,9.279 c 0,1.959 0.279,3.959 0.92,5.799 l -2.8,0.359 -0.76,-2.679 c -1.439,1.72 -3.079,2.599 -5.319,2.599 -4.079,0 -6.358,-3.199 -6.358,-6.998 0,-4.119 2.52,-7.719 6.839,-7.719 1.6,0 3.119,0.479 4.479,1.04 l 0,-2.04 c 0,-2.359 -1.439,-4.039 -3.679,-4.039 -1.88,0 -3.64,0.88 -5.359,1.6 l -0.681,-2.64 z m 9.717,9.639 c -1.279,-0.561 -2.639,-1.04 -4.078,-1.04 -3.04,0 -4.24,2.64 -4.24,5.359 0,1.999 1.04,4.318 3.359,4.318 2.32,0 3.72,-1.959 4.959,-3.679 l 0,-4.958 z"
         inkscape:connector-curvature="0"
         style="fill:#3e5a6d" /><path
         id="path3509"
         d="m 150.975,27.023 -7.639,0 0,12.198 c 0,2.079 0.039,4.599 2.759,4.599 2.28,0 3.68,-1.879 4.52,-3.759 l 2.88,0.72 c -1.44,3.079 -3.88,5.559 -7.479,5.559 -3.479,0 -5.679,-1.68 -5.679,-8.078 l 0,-11.239 -4.6,0 0,-2.52 4.6,0 0,-6.559 3,0 0,6.559 7.639,0 0,2.52 z"
         inkscape:connector-curvature="0"
         style="fill:#3e5a6d" /><path
         id="path3511"
         d="m 156.096,25.544 c 2.04,-0.8 3.92,-1.479 6.159,-1.479 4.079,0 6.56,3.359 6.56,6.918 l 0,9.279 c 0,1.959 0.279,3.959 0.92,5.799 l -2.801,0.359 -0.76,-2.679 c -1.439,1.72 -3.079,2.599 -5.318,2.599 -4.08,0 -6.359,-3.199 -6.359,-6.998 0,-4.119 2.52,-7.719 6.84,-7.719 1.6,0 3.119,0.479 4.479,1.04 l 0,-2.04 c 0,-2.359 -1.439,-4.039 -3.68,-4.039 -1.879,0 -3.639,0.88 -5.359,1.6 l -0.681,-2.64 z m 9.718,9.639 c -1.279,-0.561 -2.64,-1.04 -4.079,-1.04 -3.04,0 -4.239,2.64 -4.239,5.359 0,1.999 1.039,4.318 3.359,4.318 2.319,0 3.719,-1.959 4.959,-3.679 l 0,-4.958 z"
         inkscape:connector-curvature="0"
         style="fill:#3e5a6d" /></g><g
       transform="matrix(1.3311442,0,0,1.3923883,-56.92145,-25.010844)"
       id="g3515"
       enable-background="new    "><path
         id="path3517"
         d="m 155.892,51.95 c -0.03,-0.63 -0.56,-1.1 -1.189,-1.1 -1.669,0 -1.8,2.169 -1.8,3.389 0,1.189 0.121,3.288 1.74,3.288 0.749,0 1.318,-0.56 1.349,-1.3 l 0.47,0 c -0.1,1.06 -0.789,1.699 -1.859,1.699 -1.898,0 -2.198,-2.179 -2.198,-3.638 0,-1.529 0.271,-3.838 2.299,-3.838 0.88,0 1.579,0.619 1.659,1.499 l -0.471,0 z"
         inkscape:connector-curvature="0"
         style="fill:#3e5a6d" /><path
         id="path3519"
         d="m 161.471,50.991 -3.048,0 0,2.898 2.188,0 0,0.399 -2.188,0 0,3.099 3.118,0 0,0.399 -3.588,0 0,-7.196 3.518,0 0,0.401 z"
         inkscape:connector-curvature="0"
         style="fill:#3e5a6d" /><path
         id="path3521"
         d="m 162.883,50.591 1.709,0 c 1.209,0 1.909,0.81 1.909,1.979 0,0.909 -0.51,1.719 -1.39,1.999 l 1.939,3.218 -0.59,0 -1.789,-3.108 -1.318,0 0,3.108 -0.471,0 0,-7.196 z m 0.471,3.688 1.168,0 c 0.641,0 1.48,-0.49 1.48,-1.749 0,-0.84 -0.4,-1.539 -1.41,-1.539 l -1.238,0 0,3.288 z"
         inkscape:connector-curvature="0"
         style="fill:#3e5a6d" /><path
         id="path3523"
         d="m 168.183,51.24 -0.021,0.021 0,6.526 -0.469,0 0,-7.196 0.679,0 2.448,6.167 0.021,-0.021 0,-6.146 0.47,0 0,7.267 -0.49,0 -2.638,-6.618 z"
         inkscape:connector-curvature="0"
         style="fill:#3e5a6d" /></g></g></svg>