<?xml version="1.0" encoding="utf-8"?>
<!-- Generator: Adobe Illustrator 13.0.1, SVG Export Plug-In . SVG Version: 6.00 Build 14948)  -->
<!DOCTYPE svg PUBLIC "-//W3C//DTD SVG 1.1//EN" "http://www.w3.org/Graphics/SVG/1.1/DTD/svg11.dtd">
<svg version="1.1" id="Capa_1" xmlns="http://www.w3.org/2000/svg" xmlns:xlink="http://www.w3.org/1999/xlink" x="0px" y="0px"
	 width="150px" height="50px" viewBox="0 0 150 50" enable-background="new 0 0 150 50" xml:space="preserve">
<g>
	<circle fill="#7CC356" cx="35.176" cy="52.506" r="14"/>
	<polyline fill="#7CC356" points="87.983,-2.199 132.56,-13.773 106.355,24.061 	"/>
	<polygon fill="#7CC356" points="101.125,15.772 49.176,52.506 42.254,40.694 93.776,5.536 	"/>
</g>
<path fill="#336633" stroke="#336633" d="M-43.535-66.566"/>
<rect x="40.25" y="-0.75" fill="none" width="79.75" height="66.5"/>
<g>
	<path fill="#336633" d="M87.961,10.01c3.45,3.174,5.176,7.675,5.176,13.501H62.131c0.325,7.535,2.034,13.025,5.127,16.467
		c3.092,3.443,6.754,5.164,10.986,5.164c3.418,0,6.299-0.893,8.643-2.68c2.344-1.786,4.508-4.319,6.494-7.601l1.709,0.586
		c-1.335,4.141-3.833,7.972-7.495,11.492c-3.662,3.522-8.146,5.282-13.452,5.282c-6.12,0-10.848-2.311-14.185-6.934
		c-3.337-4.622-5.005-9.944-5.005-15.967c0-6.543,1.937-12.19,5.811-16.943c3.874-4.752,8.919-7.129,15.137-7.129
		C80.49,5.249,84.51,6.836,87.961,10.01z M64.572,13.745c-1.042,1.758-1.791,3.972-2.246,6.641h20.605
		c-0.358-3.255-0.977-5.68-1.855-7.275c-1.596-2.864-4.265-4.297-8.008-4.297C69.357,8.813,66.525,10.458,64.572,13.745z"/>
</g>
</svg>
