<?xml version="1.0" encoding="utf-8"?>
<!-- Generator: Adobe Illustrator 13.0.1, SVG Export Plug-In . SVG Version: 6.00 Build 14948)  -->
<!DOCTYPE svg PUBLIC "-//W3C//DTD SVG 1.1//EN" "http://www.w3.org/Graphics/SVG/1.1/DTD/svg11.dtd">
<svg version="1.1" id="Capa_1" xmlns="http://www.w3.org/2000/svg" xmlns:xlink="http://www.w3.org/1999/xlink" x="0px" y="0px"
	 width="150px" height="50px" viewBox="0 0 150 50" enable-background="new 0 0 150 50" xml:space="preserve">
<g>
	<circle fill="#66CCFF" cx="35.176" cy="52.506" r="14"/>
	<polyline fill="#66CCFF" points="87.982,-2.199 132.561,-13.773 106.355,24.061 	"/>
	<polygon fill="#66CCFF" points="101.125,15.772 49.176,52.506 42.254,40.693 93.775,5.536 	"/>
</g>
<path fill="#336633" stroke="#336633" d="M-43.535-66.566"/>
<g>
	<path fill="#0D26A0" d="M69.889,8.856H81.76v26.723c0,5.586-1.323,10.029-3.968,13.33c-3.364,4.189-7.998,6.285-13.901,6.285
		c-1.798,0-3.83-0.381-6.094-1.143V42.848c1.989,0.931,3.671,1.396,5.046,1.396c4.697,0,7.046-3.46,7.046-10.378V8.856z
		 M75.475-5.268c1.608,0,3,0.566,4.173,1.698s1.762,2.47,1.762,4.015c0,1.65-0.555,3.005-1.666,4.062
		c-1.111,1.058-2.534,1.587-4.269,1.587c-1.735,0-3.158-0.529-4.269-1.587C70.095,3.45,69.54,2.096,69.54,0.445
		c0-1.544,0.587-2.883,1.761-4.015C72.476-4.701,73.867-5.268,75.475-5.268z"/>
</g>
</svg>
