<?xml version="1.0" encoding="utf-8"?>
<!-- Generator: Adobe Illustrator 13.0.1, SVG Export Plug-In . SVG Version: 6.00 Build 14948)  -->
<!DOCTYPE svg PUBLIC "-//W3C//DTD SVG 1.1//EN" "http://www.w3.org/Graphics/SVG/1.1/DTD/svg11.dtd">
<svg version="1.1" id="Capa_1" xmlns="http://www.w3.org/2000/svg" xmlns:xlink="http://www.w3.org/1999/xlink" x="0px" y="0px"
	 width="150px" height="50px" viewBox="0 0 150 50" enable-background="new 0 0 150 50" xml:space="preserve">
<g>
	<circle fill="#66CCFF" cx="35.176" cy="52.506" r="14"/>
	<polyline fill="#66CCFF" points="87.982,-2.199 132.561,-13.773 106.355,24.061 	"/>
	<polygon fill="#66CCFF" points="101.125,15.772 49.176,52.506 42.254,40.693 93.775,5.536 	"/>
</g>
<path fill="#336633" stroke="#336633" d="M-43.535-66.566"/>
<g>
	<path fill="#0D26A0" d="M69.889,8.856H81.76v26.723c0,5.586-1.323,10.029-3.968,13.33c-3.364,4.189-7.998,6.285-13.901,6.285
		c-1.798,0-3.83-0.381-6.094-1.143V42.848c1.989,0.931,3.671,1.396,5.046,1.396c4.697,0,7.046-3.46,7.046-10.378V8.856z
		 M75.475-5.268c1.608,0,3,0.566,4.173,1.698s1.762,2.47,1.762,4.015c0,1.65-0.555,3.005-1.666,4.062
		c-1.111,1.058-2.534,1.587-4.269,1.587c-1.735,0-3.158-0.529-4.269-1.587C70.095,3.45,69.54,2.096,69.54,0.445
		c0-1.544,0.587-2.883,1.761-4.015C72.476-4.701,73.867-5.268,75.475-5.268z"/>
</g>
<g>
	<path fill="#0D26A0" d="M84.603,29.358V28.86c1.117-0.254,2.121-0.537,3.013-0.85s1.372-0.469,1.44-0.469
		c0.02,0.059,0.029,0.117,0.029,0.176v8.92c0.253-0.468,0.634-0.912,1.141-1.332c0.897-0.732,1.931-1.099,3.101-1.099
		c1.434,0,2.657,0.605,3.671,1.816c1.015,1.211,1.521,2.783,1.521,4.717c0,2.07-0.659,3.843-1.978,5.317s-3.052,2.212-5.2,2.212
		c-1.084,0-2.148-0.215-3.193-0.645s-1.567-0.859-1.567-1.289V30.853c0-0.566-0.078-0.969-0.234-1.209
		c-0.156-0.238-0.518-0.358-1.084-0.358L84.603,29.358z M90.179,46.93c0.671,0.22,1.259,0.329,1.765,0.329
		c1.361,0,2.371-0.512,3.027-1.536c0.656-1.023,0.984-2.263,0.984-3.716s-0.307-2.797-0.919-4.03s-1.604-1.851-2.976-1.851
		c-0.69,0-1.366,0.212-2.027,0.637c-0.662,0.424-0.992,0.963-0.992,1.616v7.461C89.129,46.347,89.508,46.71,90.179,46.93z"/>
</g>
</svg>
