<?xml version="1.0" encoding="utf-8"?>
<!-- Generator: Adobe Illustrator 13.0.1, SVG Export Plug-In . SVG Version: 6.00 Build 14948)  -->
<!DOCTYPE svg PUBLIC "-//W3C//DTD SVG 1.1//EN" "http://www.w3.org/Graphics/SVG/1.1/DTD/svg11.dtd">
<svg version="1.1" id="Capa_1" xmlns="http://www.w3.org/2000/svg" xmlns:xlink="http://www.w3.org/1999/xlink" x="0px" y="0px"
	 width="150px" height="50px" viewBox="0 0 150 50" enable-background="new 0 0 150 50" xml:space="preserve">
<g>
	<circle fill="#FF6666" cx="35.176" cy="52.506" r="14"/>
	<polyline fill="#FF6666" points="87.983,-2.199 132.56,-13.773 106.355,24.061 	"/>
	<polygon fill="#FF6666" points="101.125,15.772 49.176,52.506 42.254,40.694 93.776,5.536 	"/>
</g>
<path fill="#336633" stroke="#336633" d="M-43.535-66.566"/>
<rect x="40.25" y="-0.75" fill="none" width="79.75" height="66.5"/>
<g>
	<path fill="#990000" d="M87.039,35.138c-0.131,4.753,1.334,7.162,4.395,7.227c1.204,0,2.181-0.472,2.93-1.416
		c0.716-0.879,1.27-1.904,1.66-3.076c0.684-2.734,1.025-5.403,1.025-8.008h2.49c0,1.596-0.065,3.32-0.195,5.176
		c-0.261,1.823-0.766,3.564-1.514,5.225c-0.651,1.596-1.742,2.93-3.271,4.004c-1.465,1.106-3.467,1.692-6.006,1.758
		c-3.125-0.065-5.502-0.928-7.129-2.588c-1.66-1.66-2.621-3.694-2.881-6.104h-0.195c-1.465,2.539-3.369,4.606-5.713,6.201
		c-2.312,1.595-4.802,2.425-7.471,2.49c-1.595,0-3.532-0.424-5.811-1.27c-2.279-0.943-4.313-2.848-6.104-5.713l-0.195,0.195
		c0.521,3.288,1.286,6.656,2.295,10.107c0.944,3.482,1.448,7.08,1.514,10.791c0,2.408-0.31,4.346-0.928,5.811
		c-0.651,1.529-1.872,2.327-3.662,2.393c-1.758-0.065-2.962-0.863-3.613-2.393c-0.684-1.465-1.025-3.402-1.025-5.811
		c0.065-3.711,0.472-7.309,1.221-10.791c0.716-3.386,1.106-6.624,1.172-9.717V-1.923h8.838v32.568c0,2.734,0.732,4.932,2.197,6.592
		c1.399,1.758,3.597,2.637,6.592,2.637c2.669-0.098,4.964-0.879,6.885-2.344c1.888-1.334,3.125-2.669,3.711-4.004V-1.923h8.789
		V35.138z"/>
</g>
</svg>
