<?xml version="1.0" encoding="utf-8"?>
<!-- Generator: Adobe Illustrator 13.0.1, SVG Export Plug-In . SVG Version: 6.00 Build 14948)  -->
<!DOCTYPE svg PUBLIC "-//W3C//DTD SVG 1.1//EN" "http://www.w3.org/Graphics/SVG/1.1/DTD/svg11.dtd">
<svg version="1.1" id="Capa_1" xmlns="http://www.w3.org/2000/svg" xmlns:xlink="http://www.w3.org/1999/xlink" x="0px" y="0px"
	 width="150px" height="50px" viewBox="0 0 150 50" enable-background="new 0 0 150 50" xml:space="preserve">
<g>
	<circle fill="#FFFF33" cx="35.176" cy="52.506" r="14"/>
	<polyline fill="#FFFF33" points="87.983,-2.199 132.56,-13.773 106.355,24.061 	"/>
	<polygon fill="#FFFF33" points="101.125,15.772 49.176,52.506 42.254,40.694 93.776,5.536 	"/>
</g>
<path fill="#336633" stroke="#336633" d="M-43.535-66.566"/>
<g>
	<path fill="#B2AE4A" d="M41.752,14.152c0-1.725,0.098-3.531,0.293-5.42c0.195-1.855,0.537-3.581,1.025-5.176
		c0.521-1.66,1.318-2.995,2.393-4.004c0.977-1.074,2.344-1.611,4.102-1.611c2.441,0.065,4.606,1.335,6.494,3.809
		c1.79,2.604,3.32,5.908,4.59,9.912c2.604,8.529,4.801,16.895,6.592,25.098h0.195c2.539-5.208,4.606-10.286,6.201-15.234
		c1.595-4.785,2.832-10.579,3.711-17.383c0.325-1.985,1.058-3.548,2.197-4.688c1.074-1.009,2.376-1.514,3.906-1.514
		c1.399,0,2.457,0.472,3.174,1.416c0.748,0.977,1.123,2.246,1.123,3.809c-0.065,1.855-1.059,4.655-2.979,8.398
		c-1.953,3.776-4.232,7.764-6.836,11.963c-2.441,4.199-4.639,7.878-6.592,11.035c-2.051,3.19-3.109,5.111-3.174,5.762
		c0,0.424,0.163,1.221,0.488,2.393c0.195,1.27,0.456,2.881,0.781,4.834c0.813,3.873,1.253,8.643,1.318,14.307
		c-0.065,4.85-1.872,7.308-5.42,7.373c-1.726-0.065-2.995-0.961-3.809-2.686c-0.716-1.53-1.074-2.963-1.074-4.297
		c0.065-5.6,0.928-10.466,2.588-14.6c0.749-2.018,1.383-3.694,1.904-5.029c0.456-1.334,0.684-2.197,0.684-2.588
		s-0.098-1.155-0.293-2.295c-0.195-1.074-0.521-2.408-0.977-4.004c-0.944-3.255-2.214-6.885-3.809-10.889
		c-1.53-4.068-3.304-7.633-5.322-10.693c-2.116-2.994-4.346-4.524-6.689-4.59c-1.791,0.065-3.027,0.798-3.711,2.197
		c-0.716,1.4-1.074,2.865-1.074,4.395H41.752z"/>
</g>
</svg>
