<?xml version="1.0" encoding="utf-8"?>
<!-- Generator: Adobe Illustrator 13.0.1, SVG Export Plug-In . SVG Version: 6.00 Build 14948)  -->
<!DOCTYPE svg PUBLIC "-//W3C//DTD SVG 1.1//EN" "http://www.w3.org/Graphics/SVG/1.1/DTD/svg11.dtd">
<svg version="1.1" id="Capa_1" xmlns="http://www.w3.org/2000/svg" xmlns:xlink="http://www.w3.org/1999/xlink" x="0px" y="0px"
	 width="150px" height="50px" viewBox="0 0 150 50" enable-background="new 0 0 150 50" xml:space="preserve">
<g>
	<circle fill="#CC66FF" cx="35.176" cy="52.506" r="14"/>
	<polyline fill="#CC66FF" points="87.982,-2.199 132.561,-13.773 106.355,24.061 	"/>
	<polygon fill="#CC66FF" points="101.125,15.772 49.176,52.506 42.254,40.693 93.775,5.536 	"/>
</g>
<path fill="#336633" stroke="#336633" d="M-43.535-66.566"/>
<rect x="40.25" y="-0.75" fill="none" width="79.75" height="66.5"/>
<g>
	<path fill="#660099" d="M56.652,2.327C62.641,2.522,70.47,2.75,80.139,3.011c0.942,0,1.807-0.195,2.588-0.586
		c0.812-0.423,1.285-1.058,1.416-1.904h2.002c-0.065,2.8-0.732,5.127-2.002,6.982c-1.271,2.051-3.436,3.076-6.494,3.076
		c-2.865,0-5.566-0.098-8.105-0.293v28.319c0,2.931,0.374,4.998,1.123,6.201c0.651,1.271,1.807,1.873,3.467,1.808
		c2.475,0,4.117-1.236,4.932-3.712c0.455-1.139,0.781-2.473,0.978-4.004c0.063-1.398,0.099-2.961,0.099-4.688h2.489
		c0,2.116-0.065,4.15-0.194,6.104c-0.262,1.855-0.781,3.55-1.562,5.078c-0.814,1.53-1.953,2.703-3.418,3.517
		c-1.465,0.911-3.435,1.366-5.908,1.366c-1.14,0-2.312-0.194-3.516-0.586c-1.172-0.26-2.328-0.83-3.467-1.709
		c-1.074-0.91-1.986-2.196-2.734-3.856c-0.716-1.692-1.074-3.873-1.074-6.543v-27.49c-2.409-0.13-4.916-0.195-7.52-0.195
		c-1.726,0-3.093,0.31-4.102,0.928c-0.912,0.716-1.579,1.97-2.002,3.76H45.13c0.228-4.134,1.204-7.227,2.93-9.277
		C49.653,3.32,52.518,2.327,56.652,2.327z"/>
</g>
</svg>
