<?xml version="1.0" encoding="utf-8"?>
<!-- Generator: Adobe Illustrator 16.0.0, SVG Export Plug-In . SVG Version: 6.00 Build 0)  -->
<!DOCTYPE svg PUBLIC "-//W3C//DTD SVG 1.1//EN" "http://www.w3.org/Graphics/SVG/1.1/DTD/svg11.dtd">
<svg version="1.1" id="Capa_1" xmlns:sketch="http://www.bohemiancoding.com/sketch/ns"
	 xmlns="http://www.w3.org/2000/svg" xmlns:xlink="http://www.w3.org/1999/xlink" x="0px" y="0px" width="455.5px" height="517.5px"
	 viewBox="162 -88.5 455.5 517.5" enable-background="new 162 -88.5 455.5 517.5" xml:space="preserve">
<title>home_net</title>
<description>Created with Sketch.</description>
<g id="Page-1" sketch:type="MSPage">
	<path id="Path-4_1_" sketch:type="MSShapeGroup" fill="none" stroke="#66CCCC" stroke-width="2" d="M162,429
		c0,0,36.082-40.471,81.602-91.596c27.278-30.639,66.573-74.781,82.568-92.788C386.043,177.223,617.5-88.5,617.5-88.5"/>
	<path id="Path-2" sketch:type="MSShapeGroup" fill="none" stroke="#DC9724" d="M219.338,131.726c0,0,14.403-16.201,45.943-20.036
		c9.49-1.153,35.566-0.525,52.787,5.804c40.006,14.704,78.129,44.808,78.129,44.808"/>
	<path id="Path-4" sketch:type="MSShapeGroup" fill="none" stroke="#DC9724" d="M178.557,200.418c0,0,47.778-16.689,108.094-26.469
		c36.146-5.861,88.221-12.767,109.439-9.652c79.427,11.652,110.698-71.992,110.698-71.992"/>
	<path id="Path-5" sketch:type="MSShapeGroup" fill="none" stroke="#DC9724" d="M242.596,327.693c0,0,153.574-4.855,154.895-163
		C407.165,59.831,449.5,36,449.5,36"/>
	<path id="Path-5_1_" sketch:type="MSShapeGroup" fill="none" stroke="#DC9724" d="M420,230.482c0,1.018-30.587-0.428-22.51-65.79
		C391.309,96.556,320.247,56,320.247,56"/>
	<path id="Path-6_1_" sketch:type="MSShapeGroup" fill="none" stroke="#DC9724" d="M489.263,216.141
		c-12.649,47.871-92.647-52.013-92.647-52.013L349.685,42.685"/>
	<path id="Path-7" sketch:type="MSShapeGroup" fill="none" stroke="#DC9724" d="M537.166,87.499c0,0-49.871,32.667-140.061,75.626
		c-67.488-5.5-76.465-20.096-76.465-20.096"/>
	<path id="Path-8" sketch:type="MSShapeGroup" fill="none" stroke="#DC9724" d="M500.064,200.268c0,0-53.909-11.143-103.192-36.208
		c-13.465,0.094-40.969-16.188-40.969-16.188"/>
	<path id="Path-9" sketch:type="MSShapeGroup" fill="none" stroke="#DC9724" d="M426.002,107.081c0,0,0.293-0.345-28.512,57.614
		c-34.33,127.272-91.872,179.571-91.872,179.571"/>
	<path id="Path-10" sketch:type="MSShapeGroup" fill="none" stroke="#DC9724" d="M267.084,238.105c0,0,79.572-84.729,131.657-74.315
		c17.566-9.902,73.76-11.127,73.76-11.127"/>
	<path id="Path-11" sketch:type="MSShapeGroup" fill="none" stroke="#DC9724" d="M365.522,186.529c0,0-2.609,0.058,30.712-22.48
		C393.268,74.869,586.5,118.5,586.5,118.5"/>
	<path id="Path-12" sketch:type="MSShapeGroup" fill="none" stroke="#DC9724" d="M356.25,19.75c0,0,231.75,68.75,38.952,143.079
		C434.498,272.166,218.5,221.5,218.5,221.5"/>
	<path id="Path-10_1_" sketch:type="MSShapeGroup" fill="none" stroke="#DC9724" d="M472.5,163c0,0-50.965,22.773-74.444-0.707
		c17.566-9.902,56.444-3.019,56.444-3.019"/>
	<path id="Path-10_2_" sketch:type="MSShapeGroup" fill="none" stroke="#DC9724" d="M397.832,161.87
		c17.567,11.366,62.668,0.335,62.668,0.335"/>
	<path id="Path-10_3_" sketch:type="MSShapeGroup" fill="none" stroke="#DC9724" d="M397.866,163.424
		C421.32,151.971,467.5,156.5,467.5,156.5"/>
</g>
<circle fill="#3685CC" cx="356.699" cy="187.622" r="11.5"/>
<circle fill="#990000" cx="339.089" cy="16.597" r="11.5"/>
<circle fill="#33CC66" cx="436.466" cy="240.859" r="11.5"/>
<circle fill="#CCCCCC" cx="432.615" cy="89.146" r="11.5"/>
<g>
	<path fill="#FFFFFF" d="M427.325,86.038c0-0.414,0.021-0.848,0.067-1.301c0.049-0.445,0.131-0.859,0.246-1.242
		c0.125-0.398,0.315-0.719,0.574-0.961c0.233-0.258,0.562-0.387,0.983-0.387c0.586,0.016,1.104,0.32,1.56,0.914
		c0.43,0.625,0.797,1.418,1.104,2.379c0.625,2.047,1.15,4.055,1.582,6.023h0.047c0.607-1.25,1.104-2.469,1.486-3.656
		c0.385-1.148,0.682-2.539,0.894-4.172c0.077-0.477,0.254-0.852,0.524-1.125c0.26-0.242,0.57-0.363,0.938-0.363
		c0.336,0,0.591,0.113,0.763,0.34c0.182,0.234,0.271,0.539,0.271,0.914c-0.018,0.445-0.254,1.117-0.715,2.016
		c-0.471,0.906-1.018,1.863-1.643,2.871c-0.586,1.008-1.113,1.891-1.582,2.648c-0.492,0.766-0.746,1.227-0.763,1.383
		c0,0.102,0.039,0.293,0.116,0.574c0.048,0.305,0.107,0.691,0.188,1.16c0.194,0.93,0.301,2.074,0.315,3.434
		c-0.019,1.164-0.449,1.754-1.302,1.77c-0.414-0.016-0.721-0.23-0.914-0.645c-0.174-0.367-0.26-0.711-0.26-1.031
		c0.019-1.344,0.226-2.512,0.621-3.504c0.182-0.484,0.332-0.887,0.457-1.207c0.108-0.32,0.164-0.527,0.164-0.621
		s-0.021-0.277-0.068-0.551c-0.049-0.258-0.125-0.578-0.233-0.961c-0.229-0.781-0.53-1.652-0.914-2.613
		c-0.366-0.977-0.793-1.832-1.276-2.566c-0.508-0.719-1.043-1.086-1.604-1.102c-0.431,0.016-0.729,0.191-0.894,0.527
		c-0.172,0.336-0.258,0.688-0.258,1.055H427.325L427.325,86.038z"/>
</g>
<g>
	<path fill="#FFFFFF" d="M439.796,236.421c0.827,0.763,1.241,1.843,1.241,3.24h-7.439c0.078,1.81,0.487,3.127,1.229,3.95
		c0.742,0.826,1.621,1.24,2.639,1.24c0.818,0,1.513-0.215,2.073-0.646c0.562-0.431,1.082-1.037,1.561-1.824l0.409,0.144
		c-0.318,0.992-0.92,1.912-1.799,2.759c-0.88,0.846-1.955,1.269-3.229,1.269c-1.47,0-2.604-0.556-3.404-1.664
		c-0.8-1.109-1.2-2.388-1.2-3.832c0-1.57,0.466-2.927,1.396-4.064c0.931-1.141,2.142-1.713,3.634-1.713
		C438.003,235.277,438.968,235.659,439.796,236.421z M434.183,237.316c-0.25,0.422-0.431,0.953-0.539,1.597h4.944
		c-0.086-0.781-0.232-1.363-0.444-1.746c-0.383-0.688-1.022-1.03-1.922-1.03C435.33,236.134,434.651,236.527,434.183,237.316z"/>
</g>
<g>
	<path fill="#FFFFFF" d="M343.429,19.005c-0.029,1.141,0.319,1.719,1.057,1.734c0.289,0,0.521-0.113,0.701-0.34
		c0.174-0.211,0.307-0.457,0.398-0.738c0.163-0.656,0.245-1.297,0.245-1.922h0.599c0,0.383-0.017,0.797-0.047,1.242
		c-0.062,0.438-0.185,0.855-0.363,1.254c-0.154,0.383-0.418,0.703-0.783,0.961c-0.354,0.266-0.832,0.406-1.439,0.422
		c-0.75-0.016-1.32-0.223-1.711-0.621c-0.397-0.398-0.631-0.887-0.69-1.465h-0.048c-0.354,0.609-0.811,1.105-1.371,1.488
		c-0.555,0.383-1.149,0.582-1.793,0.598c-0.383,0-0.848-0.102-1.396-0.305c-0.547-0.227-1.033-0.684-1.465-1.371l-0.047,0.047
		c0.125,0.789,0.311,1.598,0.551,2.426c0.229,0.836,0.35,1.699,0.361,2.59c0,0.578-0.072,1.043-0.223,1.395
		c-0.156,0.367-0.449,0.559-0.879,0.574c-0.423-0.016-0.712-0.207-0.867-0.574c-0.164-0.352-0.246-0.816-0.246-1.395
		c0.018-0.891,0.113-1.754,0.293-2.59c0.172-0.812,0.268-1.59,0.281-2.332V10.11h2.12v7.816c0,0.656,0.177,1.184,0.527,1.582
		c0.336,0.422,0.861,0.633,1.582,0.633c0.641-0.023,1.188-0.211,1.649-0.562c0.453-0.32,0.75-0.641,0.894-0.961V10.11h2.106
		L343.429,19.005L343.429,19.005z"/>
</g>
<g>
	<path fill="#FFFFFF" d="M354.221,182.32c1.438,0.048,3.315,0.104,5.638,0.164c0.229,0,0.435-0.047,0.62-0.143
		c0.195-0.104,0.31-0.255,0.341-0.457h0.479c-0.017,0.674-0.177,1.229-0.479,1.678c-0.306,0.492-0.824,0.736-1.56,0.736
		c-0.688,0-1.336-0.021-1.944-0.068v6.797c0,0.703,0.09,1.199,0.271,1.488c0.154,0.305,0.434,0.446,0.831,0.435
		c0.595,0,0.987-0.298,1.185-0.892c0.109-0.272,0.188-0.597,0.234-0.961c0.016-0.338,0.021-0.713,0.021-1.125h0.598
		c0,0.508-0.016,0.994-0.047,1.465c-0.062,0.443-0.188,0.853-0.375,1.22c-0.193,0.366-0.469,0.647-0.818,0.844
		c-0.354,0.222-0.824,0.328-1.418,0.328c-0.271,0-0.557-0.047-0.846-0.142c-0.279-0.062-0.56-0.199-0.832-0.41
		c-0.258-0.219-0.478-0.526-0.654-0.926c-0.173-0.406-0.26-0.933-0.26-1.569v-6.599c-0.576-0.031-1.18-0.049-1.805-0.049
		c-0.414,0-0.742,0.073-0.983,0.225c-0.22,0.173-0.38,0.474-0.479,0.9h-0.479c0.055-0.99,0.288-1.732,0.702-2.229
		C352.54,182.559,353.229,182.32,354.221,182.32z"/>
</g>
<rect x="239.096" y="326.333" fill="none" stroke="#DC9724" width="3" height="3"/>
<rect x="302.761" y="344.238" fill="none" stroke="#DC9724" width="3" height="3"/>
<rect x="420" y="229.5" fill="none" stroke="#DC9724" width="3" height="3"/>
<rect x="488.168" y="212.832" fill="none" stroke="#DC9724" width="3" height="3"/>
<rect x="500.5" y="199.666" fill="none" stroke="#DC9724" width="3" height="3"/>
<rect x="264.25" y="237.863" fill="none" stroke="#DC9724" width="3" height="3"/>
<rect x="215.5" y="219.988" fill="none" stroke="#DC9724" width="3" height="3"/>
<rect x="175.557" y="198.988" fill="none" stroke="#DC9724" width="3" height="3"/>
<rect x="216.5" y="131.239" fill="none" stroke="#DC9724" width="3" height="3"/>
<rect x="317.625" y="54.5" fill="none" stroke="#DC9724" width="3" height="3"/>
<rect x="346.685" y="39.685" fill="none" stroke="#DC9724" width="3" height="3"/>
<rect x="317.644" y="140.03" fill="none" stroke="#DC9724" width="3" height="3"/>
<rect x="352.903" y="144.872" fill="none" stroke="#DC9724" width="3" height="3"/>
<rect x="353.5" y="18" fill="none" stroke="#DC9724" width="3" height="3"/>
<rect x="449.75" y="34" fill="none" stroke="#DC9724" width="3" height="3"/>
<rect x="505.5" y="89.305" fill="none" stroke="#DC9724" width="3" height="3"/>
<rect x="537.012" y="84.499" fill="none" stroke="#DC9724" width="3" height="3"/>
<rect x="586.262" y="117.5" fill="none" stroke="#DC9724" width="3" height="3"/>
<rect x="472.501" y="151.25" fill="none" stroke="#DC9724" width="3" height="3"/>
<rect x="425.75" y="103.5" fill="none" stroke="#DC9724" width="3" height="3"/>
<rect x="472.5" y="162" fill="none" stroke="#DC9724" width="3" height="3"/>
<rect x="460.5" y="160.25" fill="none" stroke="#DC9724" width="3" height="3"/>
<rect x="454.5" y="158.25" fill="none" stroke="#DC9724" width="3" height="3"/>
<rect x="467.5" y="155.25" fill="none" stroke="#DC9724" width="3" height="3"/>
<circle fill="#DDE849" cx="491.216" cy="158.86" r="11.5"/>
<rect x="485.01" y="146.667" fill="none" width="29.947" height="32.001"/>
<g enable-background="new    ">
	<path fill="#FFFFFF" d="M494.408,151.827v12.654c0,0.63,0.043,1.035,0.129,1.214c0.086,0.179,0.221,0.318,0.403,0.419
		c0.182,0.101,0.538,0.15,1.068,0.15v0.397h-4.963v-0.397h0.204c0.4,0,0.704-0.058,0.912-0.172c0.144-0.079,0.259-0.22,0.345-0.425
		c0.086-0.203,0.129-0.6,0.129-1.187v-4.232c-0.652,0.773-1.222,1.302-1.708,1.585c-0.487,0.282-0.992,0.424-1.516,0.424
		c-0.953,0-1.803-0.434-2.551-1.3c-0.749-0.866-1.123-2.026-1.123-3.48c0-1.669,0.494-3.027,1.482-4.077
		c0.988-1.049,2.181-1.573,3.577-1.573c0.407,0,0.783,0.058,1.128,0.172c0.344,0.114,0.65,0.286,0.924,0.516
		c0.415-0.2,0.812-0.43,1.191-0.688H494.408z M492.637,159.572v-4.619c0-0.537-0.07-0.96-0.209-1.268
		c-0.142-0.308-0.39-0.569-0.747-0.784c-0.358-0.215-0.763-0.322-1.214-0.322c-0.804,0-1.49,0.34-2.062,1.021
		c-0.573,0.681-0.858,1.712-0.858,3.094c0,1.325,0.291,2.331,0.875,3.019s1.286,1.031,2.11,1.031c0.422,0,0.799-0.091,1.128-0.274
		C491.988,160.287,492.314,159.987,492.637,159.572z"/>
</g>
<path id="Path-10_4_" sketch:type="MSShapeGroup" fill="none" stroke="#DC9724" d="M398.996,164.447
	C416.564,154.545,470,168.5,470,168.5"/>
<rect x="470.5" y="167" fill="none" stroke="#DC9724" width="3" height="3"/>
<path id="Path-10_5_" sketch:type="MSShapeGroup" fill="none" stroke="#DC9724" d="M464.5,155c0,0-43.965,29.773-67.444,6.293"/>
<rect x="463.5" y="152" fill="none" stroke="#DC9724" width="3" height="3"/>
</svg>
