<?xml version="1.0" encoding="utf-8"?>
<!-- Generator: Adobe Illustrator 16.0.4, SVG Export Plug-In . SVG Version: 6.00 Build 0)  -->
<!DOCTYPE svg PUBLIC "-//W3C//DTD SVG 1.1//EN" "http://www.w3.org/Graphics/SVG/1.1/DTD/svg11.dtd">
<svg version="1.1" id="Layer_1" xmlns="http://www.w3.org/2000/svg" xmlns:xlink="http://www.w3.org/1999/xlink" x="0px" y="0px"
	 width="259px" height="259px" viewBox="0 0 259 259" enable-background="new 0 0 259 259" xml:space="preserve">
<g>
	<defs>
		<rect id="SVGID_1_" y="0.479" width="258.518" height="258.461"/>
	</defs>
	<clipPath id="SVGID_2_">
		<use xlink:href="#SVGID_1_"  overflow="visible"/>
	</clipPath>
	<rect y="0.479" clip-path="url(#SVGID_2_)" fill="#FFFFFF" width="258.518" height="258.461"/>
</g>
<path fill="#0D80C1" d="M71.5,154.601c-1.15-2.226-2.207-4.526-3.136-6.907c0.284,0.01,0.569,0.019,0.866,0.019
	c8.253,0,19.048-1.981,31.858-5.947c-1.001-1.426-1.982-2.873-2.958-4.323c-14.024,4.217-24.539,5.616-31.563,5.176
	c-1.829-5.813-3.047-11.971-3.598-18.354c2.255-2.873,5.27-6.148,9.217-9.82c3.792-3.526,8.121-7.115,12.876-10.701
	c3.508,7.435,7.568,14.966,12.13,22.408c6.352,10.385,13.287,20.002,20.453,28.451h10.591c-8.122-8.842-16.436-19.768-24.281-32.587
	c-4.691-7.664-8.84-15.404-12.362-23.01c9.771-6.834,20.991-13.574,33.018-19.796c37.499-19.389,65.353-25.579,77.808-23.922
	c1.385,3.209,2.586,6.572,3.565,10.097c0.528,1.928,0.969,3.875,1.373,5.844c-6.617,9.227-20.38,21.342-39.72,33.609
	c-2.828-5.537-5.94-11.109-9.321-16.642c-3.056-4.981-6.277-9.844-9.591-14.487c-1.545,0.661-3.123,1.34-4.725,2.057
	c3.457,4.801,6.831,9.865,10.008,15.069c3.396,5.544,6.51,11.128,9.323,16.673c-5.918,3.608-12.301,7.209-19.127,10.741
	c-9.424,4.869-18.85,9.162-28.04,12.777c1,1.435,2.001,2.825,2.994,4.184c8.979-3.579,18.159-7.784,27.342-12.528
	c6.459-3.34,12.874-6.945,19.04-10.703c6.306,13.117,10.847,25.897,13.15,37.254c0.377,1.856,0.674,3.643,0.918,5.37h5.094
	c-0.274-2.045-0.62-4.161-1.069-6.368c-2.408-11.897-7.172-25.254-13.778-38.928c16.102-10.187,30.163-21.303,38.606-31.349
	c2.104,17.132-0.658,35.414-8.127,52.662c-3.845,8.883-8.728,16.92-14.343,23.983h6.129c4.906-6.635,9.212-14.004,12.69-22.049
	c8.531-19.693,11.203-40.719,7.765-60.101c0.828-1.282,1.543-2.536,2.136-3.76c4.452,10.363,6.924,21.767,6.924,33.74
	c0,19.617-6.629,37.707-17.752,52.169h9.774c10.028-14.922,15.906-32.867,15.906-52.169c0-51.664-42.031-93.697-93.699-93.697
	c-20.751,0-39.945,6.785-55.492,18.25l-0.015-0.026c-1.051,0.637-2.004,1.399-2.887,2.258
	c-21.503,17.18-35.305,43.617-35.305,73.215c0,19.297,5.866,37.248,15.898,52.169H71.5 M209.251,58.595l0.233-0.123
	c0.762,1.274,1.493,2.57,2.188,3.885c-0.138,0.822-0.388,1.701-0.759,2.639c-0.079-0.305-0.147-0.612-0.235-0.915
	c-0.599-2.163-1.293-4.263-2.037-6.322C208.884,58.025,209.095,58.296,209.251,58.595z M63.027,147.261
	c0.121,0.328,0.231,0.653,0.35,0.978c-0.215-0.34-0.429-0.683-0.639-1.024C62.834,147.23,62.929,147.248,63.027,147.261z
	 M148.878,17.65c15.276,2.332,29.241,8.719,40.758,18.015c3.248,3.413,6.136,7.245,8.636,11.461
	c-19.375-0.146-50.023,10.946-77.299,25.045c-11.485,5.944-22.66,12.582-32.632,19.44c-3.981-9.6-6.891-18.86-8.528-27.336
	c-0.278-1.428-0.505-2.811-0.699-4.168c6.367-10.123,14.152-18.725,22.782-25.481c9.033,4.854,19.614,13.866,30.28,26.157
	c1.606-0.739,3.205-1.463,4.793-2.166c-10.703-12.532-21.197-21.78-30.603-27.27C119.57,22.255,134.386,17.355,148.878,17.65z
	 M121.357,17.896c-6.863,2.672-13.537,6.346-19.821,10.924c-1.978-0.914-3.905-1.652-5.757-2.194
	C103.663,22.443,112.26,19.453,121.357,17.896z M82.814,35.087c2.031-1.609,4.144-3.121,6.316-4.539
	c2.367,0.082,5.011,0.694,7.854,1.799c-6.839,5.637-13.129,12.373-18.601,20.078C78.091,44.316,79.604,38.302,82.814,35.087z
	 M81.726,96.318c-7.353,5.424-13.843,10.922-19.042,16.252c0.457-12.379,3.278-25.27,8.713-37.815
	c0.558-1.302,1.147-2.586,1.759-3.851C75.09,78.941,77.985,87.517,81.726,96.318z M50.092,102.431
	c0-21.17,7.722-40.574,20.48-55.555c-0.342,4.815-0.005,10.315,1.018,16.411c-1.679,3.06-3.248,6.24-4.675,9.529
	c-6.501,15.019-9.41,30.517-9.127,45.185c-1.877,2.291-3.47,4.528-4.756,6.704C51.123,117.601,50.092,110.134,50.092,102.431z
	 M58.846,130.578c0.578,3.824,1.367,7.565,2.397,11.193c-0.73-0.218-1.388-0.472-1.966-0.75c-0.559-1.107-1.098-2.222-1.608-3.357
	l0.029-0.018C56.989,136.275,57.191,133.896,58.846,130.578z"/>
<polyline fill="#0D80C1" points="19.54,250.615 7.561,250.615 7.561,229.304 19.54,229.304 19.54,232.244 11.024,232.244
	11.024,238.044 19.008,238.044 19.008,240.962 11.024,240.962 11.024,247.654 19.54,247.654 19.54,250.615 "/>
<polyline fill="#0D80C1" points="47.397,250.615 43.411,250.615 38.111,241.894 32.763,250.615 29.051,250.615 36.081,239.56
	29.508,229.304 33.356,229.304 38.253,237.365 43.151,229.304 46.89,229.304 40.27,239.623 47.397,250.615 "/>
<path fill="#0D80C1" d="M71.42,235.746c0,2.226-0.727,3.927-2.176,5.113c-1.446,1.187-3.506,1.778-6.187,1.778h-2.201v7.978h-3.464
	v-21.312h6.106c2.642,0,4.628,0.539,5.944,1.631C70.761,232.025,71.42,233.623,71.42,235.746 M60.856,239.712h1.842
	c1.779,0,3.085-0.313,3.912-0.937c0.829-0.621,1.246-1.591,1.246-2.916c0-1.224-0.372-2.134-1.116-2.738
	c-0.742-0.606-1.904-0.907-3.477-0.907h-2.407V239.712z"/>
<polyline fill="#0D80C1" points="94.049,250.615 82.069,250.615 82.069,229.304 94.049,229.304 94.049,232.244 85.533,232.244
	85.533,238.044 93.52,238.044 93.52,240.962 85.533,240.962 85.533,247.654 94.049,247.654 94.049,250.615 "/>
<path fill="#0D80C1" d="M108.745,242.101v8.515h-3.462v-21.312h5.988c2.73,0,4.752,0.515,6.066,1.545
	c1.313,1.029,1.971,2.584,1.971,4.662c0,2.653-1.372,4.545-4.113,5.666l5.986,9.438h-3.94l-5.076-8.515H108.745 M108.745,239.212
	h2.405c1.616,0,2.786-0.298,3.507-0.904c0.724-0.601,1.089-1.498,1.089-2.683c0-1.206-0.394-2.069-1.174-2.596
	c-0.78-0.521-1.964-0.785-3.535-0.785h-2.292V239.212z"/>
<rect x="131.265" y="229.304" fill="#0D80C1" width="3.466" height="21.312"/>
<path fill="#0D80C1" d="M156.144,250.615l-6.143-17.801h-0.121c0.166,2.643,0.25,5.12,0.25,7.434v10.367h-3.144v-21.312h4.881
	l5.881,16.949h0.091l6.058-16.949h4.899v21.312h-3.336v-10.539c0-1.063,0.03-2.44,0.081-4.142c0.052-1.704,0.099-2.731,0.134-3.092
	h-0.11l-6.359,17.772H156.144"/>
<polyline fill="#0D80C1" points="193.046,250.615 181.06,250.615 181.06,229.304 193.046,229.304 193.046,232.244 184.523,232.244
	184.523,238.044 192.511,238.044 192.511,240.962 184.523,240.962 184.523,247.654 193.046,247.654 193.046,250.615 "/>
<path fill="#0D80C1" d="M221.927,250.615h-4.248l-10.416-16.983h-0.114l0.065,0.942c0.144,1.812,0.207,3.463,0.207,4.957v11.084
	h-3.146v-21.312h4.202l10.394,16.896h0.086c-0.022-0.226-0.063-1.039-0.122-2.446c-0.05-1.404-0.08-2.496-0.08-3.289v-11.16h3.172
	V250.615"/>
<polyline fill="#0D80C1" points="241.773,250.615 238.31,250.615 238.31,232.291 232.078,232.291 232.078,229.304 248.007,229.304
	248.007,232.291 241.773,232.291 241.773,250.615 "/>
<path fill="#0D80C1" d="M50.438,220.962l-4.279-14.021H24.687l-4.272,14.021H6.957l20.795-59.152H43.02l20.875,59.152H50.438
	 M43.181,196.468c-3.949-12.709-6.172-19.897-6.667-21.558c-0.5-1.668-0.849-2.983-1.07-3.953
	c-0.884,3.441-3.422,11.943-7.611,25.511H43.181z"/>
<polyline fill="#0D80C1" points="84.54,220.962 72.049,220.962 72.049,172.451 56.056,172.451 56.056,162.052 100.536,162.052
	100.536,172.451 84.54,172.451 84.54,220.962 "/>
<polyline fill="#0D80C1" points="108.172,220.962 108.172,162.052 120.666,162.052 120.666,210.644 144.56,210.644 144.56,220.962
	108.172,220.962 "/>
<path fill="#0D80C1" d="M191.183,220.962l-4.271-14.021h-21.476l-4.271,14.021H147.71l20.788-59.152h15.271l20.871,59.152H191.183
	 M183.929,196.468c-3.946-12.709-6.168-19.897-6.668-21.558c-0.5-1.668-0.851-2.983-1.067-3.953
	c-0.89,3.441-3.422,11.943-7.615,25.511H183.929z"/>
<path fill="#0D80C1" d="M247.953,204.605c0,5.317-1.909,9.508-5.739,12.569c-3.83,3.063-9.156,4.594-15.972,4.594
	c-6.293,0-11.849-1.182-16.687-3.545v-11.604c3.974,1.772,7.341,3.019,10.095,3.746c2.754,0.724,5.271,1.088,7.555,1.088
	c2.738,0,4.843-0.524,6.304-1.573c1.465-1.045,2.198-2.603,2.198-4.673c0-1.157-0.321-2.182-0.969-3.081
	c-0.646-0.9-1.588-1.767-2.838-2.601c-1.252-0.834-3.798-2.162-7.638-3.986c-3.597-1.696-6.301-3.321-8.097-4.877
	c-1.801-1.555-3.243-3.37-4.313-5.44c-1.073-2.067-1.606-4.481-1.606-7.254c0-5.213,1.759-9.306,5.296-12.283
	c3.534-2.983,8.415-4.475,14.649-4.475c3.059,0,5.976,0.364,8.762,1.084c2.777,0.729,5.683,1.752,8.718,3.067l-4.027,9.709
	c-3.143-1.289-5.743-2.19-7.797-2.701c-2.053-0.51-4.075-0.767-6.06-0.767c-2.366,0-4.18,0.556-5.442,1.652
	c-1.265,1.104-1.896,2.539-1.896,4.313c0,1.099,0.256,2.06,0.771,2.881c0.504,0.817,1.319,1.61,2.433,2.377
	c1.114,0.765,3.756,2.142,7.92,4.129c5.508,2.634,9.278,5.275,11.321,7.918C246.931,197.519,247.953,200.761,247.953,204.605"/>
</svg>
