<?xml version="1.0" encoding="UTF-8" standalone="no"?>
<svg width="242px" height="410px" viewBox="0 0 242 410" version="1.1" xmlns="http://www.w3.org/2000/svg" xmlns:xlink="http://www.w3.org/1999/xlink" xmlns:sketch="http://www.bohemiancoding.com/sketch/ns">
    <!-- Generator: Sketch 3.0 (7574) - http://www.bohemiancoding.com/sketch -->
    <title>Slice 1</title>
    <description>Created with Sketch.</description>
    <defs>
        <circle id="path-1" cx="120.5" cy="120.5" r="103.5"></circle>
    </defs>
    <g id="Page-1" stroke="none" stroke-width="1" fill="none" fill-rule="evenodd" sketch:type="MSPage">
        <g id="Fill-44-+-Fill-46-+-Fill-59" sketch:type="MSLayerGroup">
            <path d="M103.457249,233.77193 L136.743494,233.77193 L136.743494,267.938596 L103.457249,267.938596 L103.457249,233.77193 Z" id="Fill-44" fill="#2B2C2C" sketch:type="MSShapeGroup"></path>
            <path d="M86.3643123,263.442982 L154.736059,263.442982 L154.736059,410 L86.3643123,410 L86.3643123,263.442982 Z" id="Fill-46" fill="#F3B33F" sketch:type="MSShapeGroup"></path>
            <path d="M120.550186,18.0885526 C63.7611524,18.0885526 17.5607435,64.2639035 17.5607435,121.021031 C17.5607435,177.778158 63.7611524,223.953509 120.550186,223.953509 C177.339219,223.953509 223.539628,177.778158 223.539628,121.021031 C223.539628,64.2639035 177.339219,18.0885526 120.550186,18.0885526 L120.550186,18.0885526 Z M120.550186,241.935066 C53.8409517,241.935066 -0.431821561,187.693684 -0.431821561,121.021031 C-0.431821561,54.3483772 53.8409517,0.106096491 120.550186,0.106096491 C187.25942,0.106096491 241.532193,54.3483772 241.532193,121.021031 C241.532193,187.693684 187.25942,241.935066 120.550186,241.935066 L120.550186,241.935066 Z" id="Fill-59" fill="#2B2C2C" sketch:type="MSShapeGroup"></path>
        </g>
        <mask id="mask-2" sketch:name="Oval 1" fill="white">
            <use xlink:href="#path-1"></use>
        </mask>
        <use id="Oval-1" sketch:type="MSShapeGroup" xlink:href="#path-1"></use>
        <g id="Group" sketch:type="MSLayerGroup" mask="url(#mask-2)" stroke="#DC9724" stroke-width="4.81430912">
            <g transform="translate(-503.000000, -139.000000)" sketch:type="MSShapeGroup">
                <path d="M334.71653,0.0367000383 C334.71653,0.0367000383 394.830664,-2.45558792 464.52288,33.6363961 C485.493895,44.4967986 535.675379,79.3250634 557.233618,110.087778 C607.319096,181.557683 623.544503,270.794014 623.544503,270.794014" id="Path-2"></path>
                <path d="M118.770381,35.9859155 C118.770381,35.9859155 245.848509,76.3545404 384.136331,142.134127 C467.012711,181.556065 583.382608,240.3686 619.177173,272.10979 C753.177295,390.935743 978.955871,321.907188 978.955871,321.907188" id="Path-4"></path>
                <path d="M0,290.460826 C0,290.460826 312.903781,484.817613 625.757945,278.381153 C938.612108,71.944693 1203,245.419154 1203,245.419154" id="Path-5"></path>
                <path d="M123.26926,220.413732 C123.26926,220.413732 176.177614,388.93169 616.52876,274.197338 C622.85766,272.54833 364.245763,301.87479 636.489684,270.856947 C908.733605,239.839105 1008.64847,475.014085 1008.64847,475.014085" id="Path-6"></path>
                <path d="M267.233358,511 C267.233358,511 589.741216,447.916991 627.276694,264.220008 C749.183567,166.945567 713.000345,12.5950704 713.000345,12.5950704" id="Path-5"></path>
                <path d="M702.563806,460.755154 C702.563806,460.755154 508.024421,548.884975 621.058709,272.431831 C621.058709,-0.061695423 767.526779,52.690644 767.526779,52.690644" id="Path-6"></path>
                <path d="M1087.82872,311.389779 C1087.82872,311.389779 887.748086,565.411616 622.903404,273.513872 C500.417783,178.380719 511.321611,147.542254 511.321611,147.542254" id="Path-7"></path>
                <path d="M781.905011,448.924296 C719.507293,431.111653 688.573605,368.565076 630.132962,274.285509 C601.629506,258.249682 573.157068,202.420775 573.157068,202.420775" id="Path-8"></path>
                <path d="M914.158184,244.162899 C914.158184,244.162899 765.220288,113.029464 625.199558,268.703028 C308.187246,390.808412 90.8773373,382.219721 90.8773373,382.219721" id="Path-9"></path>
                <path d="M214.146597,185.507917 C214.146597,185.507917 537.340998,178.012676 619.751853,259.633336 C673.847255,269.543564 777.417743,322.985587 777.417743,322.985587" id="Path-10"></path>
                <path d="M248.33807,238.485791 C248.33807,238.485791 453.859619,199.416259 620.788377,269.38405 C739.032888,311.623975 896.176515,238.485791 896.176515,238.485791" id="Path-11"></path>
            </g>
        </g>
    </g>
</svg>