<?xml version="1.0" encoding="utf-8"?>
<!-- Generator: Adobe Illustrator 13.0.1, SVG Export Plug-In . SVG Version: 6.00 Build 14948)  -->
<!DOCTYPE svg PUBLIC "-//W3C//DTD SVG 1.1//EN" "http://www.w3.org/Graphics/SVG/1.1/DTD/svg11.dtd">
<svg version="1.1" id="Capa_1" xmlns:sketch="http://www.bohemiancoding.com/sketch/ns"
	 xmlns="http://www.w3.org/2000/svg" xmlns:xlink="http://www.w3.org/1999/xlink" x="0px" y="0px" width="764px" height="338px"
	 viewBox="0 0 764 338" enable-background="new 0 0 764 338" xml:space="preserve">
<title>home_net</title>
<description>Created with Sketch.</description>
<g id="Page-1" sketch:type="MSPage">
	<path id="Path-4_1_" sketch:type="MSShapeGroup" fill="none" stroke="#66CCCC" stroke-width="2" d="M162,429
		c0,0,36.082-40.471,81.602-91.596c27.278-30.639,66.573-74.781,82.568-92.788C386.043,177.223,617.5-88.5,617.5-88.5"/>
	<path id="Path-2" sketch:type="MSShapeGroup" fill="none" stroke="#DC9724" d="M219.338,131.726c0,0,14.403-16.201,45.944-20.036
		c9.49-1.153,35.567-0.525,52.787,5.804c40.006,14.704,78.129,44.808,78.129,44.808"/>
	<path id="Path-4" sketch:type="MSShapeGroup" fill="none" stroke="#DC9724" d="M178.557,200.418c0,0,47.778-16.689,108.094-26.469
		c36.146-5.861,88.221-12.767,109.439-9.652c79.427,11.652,110.699-71.992,110.699-71.992"/>
	<path id="Path-5" sketch:type="MSShapeGroup" fill="none" stroke="#DC9724" d="M242.596,327.693c0,0,153.574-4.855,154.895-162.999
		C407.166,59.831,449.5,36,449.5,36"/>
	<path id="Path-5_1_" sketch:type="MSShapeGroup" fill="none" stroke="#DC9724" d="M420,230.482c0,1.018-30.586-0.428-22.509-65.788
		C391.309,96.556,320.248,56,320.248,56"/>
	<path id="Path-6_1_" sketch:type="MSShapeGroup" fill="none" stroke="#DC9724" d="M489.263,216.141
		c-12.65,47.871-92.648-52.013-92.648-52.013l-46.93-121.443"/>
	<path id="Path-7" sketch:type="MSShapeGroup" fill="none" stroke="#DC9724" d="M537.166,87.499c0,0-49.871,32.667-140.06,75.626
		c-67.488-5.5-76.464-20.096-76.464-20.096"/>
	<path id="Path-8" sketch:type="MSShapeGroup" fill="none" stroke="#DC9724" d="M500.064,200.268c0,0-53.909-11.143-103.192-36.208
		c-13.465,0.094-40.969-16.188-40.969-16.188"/>
	<path id="Path-9" sketch:type="MSShapeGroup" fill="none" stroke="#DC9724" d="M426.002,107.081c0,0,0.293-0.345-28.511,57.614
		c-34.33,127.272-91.872,179.571-91.872,179.571"/>
	<path id="Path-10" sketch:type="MSShapeGroup" fill="none" stroke="#DC9724" d="M267.084,238.105c0,0,79.573-84.727,131.658-74.315
		c17.567-9.902,73.759-11.127,73.759-11.127"/>
	<path id="Path-11" sketch:type="MSShapeGroup" fill="none" stroke="#DC9724" d="M365.522,186.53c0,0-2.609,0.057,30.712-22.481
		C393.268,74.869,586.5,118.5,586.5,118.5"/>
	<path id="Path-12" sketch:type="MSShapeGroup" fill="none" stroke="#DC9724" d="M356.25,19.75c0,0,231.75,68.75,38.953,143.079
		C434.499,272.166,218.5,221.5,218.5,221.5"/>
	<path id="Path-10_1_" sketch:type="MSShapeGroup" fill="none" stroke="#DC9724" d="M472.5,163c0,0-50.964,22.773-74.444-0.707
		c17.567-9.902,56.444-3.019,56.444-3.019"/>
	<path id="Path-10_2_" sketch:type="MSShapeGroup" fill="none" stroke="#DC9724" d="M397.833,161.87
		c17.567,11.367,62.667,0.335,62.667,0.335"/>
	<path id="Path-10_3_" sketch:type="MSShapeGroup" fill="none" stroke="#DC9724" d="M397.867,163.424
		C421.32,151.971,467.5,156.5,467.5,156.5"/>
</g>
<circle fill="#33CCCC" cx="356.7" cy="187.622" r="11.5"/>
<circle fill="#990000" cx="339.089" cy="16.597" r="11.5"/>
<circle fill="#33CC66" cx="436.466" cy="240.86" r="11.5"/>
<circle fill="#CCCCCC" cx="432.616" cy="89.146" r="11.5"/>
<g>
	<path fill="#FFFFFF" d="M427.326,86.038c0-0.414,0.021-0.848,0.068-1.301c0.048-0.445,0.13-0.859,0.246-1.242
		c0.125-0.398,0.316-0.719,0.574-0.961c0.234-0.258,0.562-0.387,0.984-0.387c0.586,0.016,1.104,0.32,1.559,0.914
		c0.43,0.625,0.797,1.418,1.103,2.379c0.625,2.047,1.151,4.055,1.582,6.023h0.047c0.608-1.25,1.104-2.469,1.487-3.656
		c0.384-1.148,0.681-2.539,0.893-4.172c0.077-0.477,0.254-0.852,0.525-1.125c0.259-0.242,0.57-0.363,0.938-0.363
		c0.336,0,0.59,0.113,0.762,0.34c0.181,0.234,0.271,0.539,0.271,0.914c-0.017,0.445-0.254,1.117-0.715,2.016
		c-0.47,0.906-1.017,1.863-1.642,2.871c-0.586,1.008-1.113,1.891-1.582,2.648c-0.492,0.766-0.746,1.227-0.762,1.383
		c0,0.102,0.039,0.293,0.116,0.574c0.048,0.305,0.108,0.691,0.188,1.16c0.195,0.93,0.301,2.074,0.316,3.434
		c-0.018,1.164-0.449,1.754-1.302,1.77c-0.414-0.016-0.72-0.23-0.914-0.645c-0.173-0.367-0.259-0.711-0.259-1.031
		c0.018-1.344,0.225-2.512,0.621-3.504c0.181-0.484,0.332-0.887,0.457-1.207c0.109-0.32,0.164-0.527,0.164-0.621
		c0-0.094-0.022-0.277-0.069-0.551c-0.048-0.258-0.125-0.578-0.233-0.961c-0.229-0.781-0.531-1.652-0.914-2.613
		c-0.367-0.977-0.793-1.832-1.277-2.566c-0.508-0.719-1.043-1.086-1.604-1.102c-0.431,0.016-0.729,0.191-0.893,0.527
		c-0.172,0.336-0.258,0.688-0.258,1.055H427.326z"/>
</g>
<g>
	<path fill="#FFFFFF" d="M439.796,236.421c0.828,0.763,1.242,1.842,1.242,3.24h-7.44c0.078,1.809,0.487,3.127,1.229,3.951
		c0.742,0.826,1.621,1.24,2.638,1.24c0.819,0,1.513-0.215,2.074-0.645c0.562-0.429,1.082-1.037,1.56-1.824l0.409,0.143
		c-0.319,0.992-0.92,1.912-1.799,2.758s-1.955,1.268-3.229,1.268c-1.469,0-2.604-0.555-3.404-1.664c-0.8-1.108-1.2-2.387-1.2-3.832
		c0-1.569,0.465-2.926,1.396-4.065c0.93-1.14,2.141-1.711,3.633-1.711C438.003,235.278,438.968,235.659,439.796,236.421z
		 M434.183,237.317c-0.25,0.422-0.431,0.953-0.539,1.596h4.944c-0.086-0.781-0.233-1.363-0.444-1.746
		c-0.383-0.688-1.023-1.031-1.922-1.031C435.331,236.134,434.651,236.528,434.183,237.317z"/>
</g>
<g>
	<path fill="#FFFFFF" d="M343.429,19.005c-0.03,1.141,0.32,1.719,1.056,1.734c0.289,0,0.522-0.113,0.702-0.34
		c0.173-0.211,0.306-0.457,0.398-0.738c0.164-0.656,0.246-1.297,0.246-1.922h0.598c0,0.383-0.016,0.797-0.047,1.242
		c-0.062,0.438-0.184,0.855-0.363,1.254c-0.155,0.383-0.418,0.703-0.784,0.961c-0.353,0.266-0.832,0.406-1.44,0.422
		c-0.75-0.016-1.32-0.223-1.711-0.621c-0.397-0.398-0.63-0.887-0.69-1.465h-0.048c-0.353,0.609-0.81,1.105-1.371,1.488
		c-0.555,0.383-1.15,0.582-1.793,0.598c-0.383,0-0.848-0.102-1.396-0.305c-0.547-0.227-1.034-0.684-1.465-1.371l-0.047,0.047
		c0.125,0.789,0.31,1.598,0.551,2.426c0.228,0.836,0.349,1.699,0.362,2.59c0,0.578-0.073,1.043-0.223,1.395
		c-0.156,0.367-0.449,0.559-0.879,0.574c-0.422-0.016-0.711-0.207-0.867-0.574c-0.164-0.352-0.246-0.816-0.246-1.395
		c0.017-0.891,0.113-1.754,0.293-2.59c0.172-0.812,0.267-1.59,0.281-2.332V10.11h2.121v7.816c0,0.656,0.176,1.184,0.527,1.582
		c0.336,0.422,0.862,0.633,1.582,0.633c0.641-0.023,1.189-0.211,1.65-0.562c0.453-0.32,0.75-0.641,0.893-0.961V10.11h2.107
		L343.429,19.005L343.429,19.005z"/>
</g>
<g>
	<path fill="#FFFFFF" d="M354.221,182.321c1.438,0.047,3.316,0.104,5.637,0.163c0.228,0,0.434-0.047,0.621-0.141
		c0.195-0.103,0.309-0.255,0.34-0.457h0.48c-0.016,0.672-0.176,1.229-0.48,1.676c-0.305,0.492-0.824,0.738-1.559,0.738
		c-0.688,0-1.336-0.023-1.945-0.07v6.797c0,0.703,0.09,1.199,0.271,1.488c0.155,0.305,0.434,0.448,0.831,0.435
		c0.595,0,0.988-0.298,1.185-0.892c0.109-0.272,0.188-0.595,0.234-0.961c0.016-0.336,0.022-0.711,0.022-1.125h0.598
		c0,0.508-0.016,0.996-0.047,1.465c-0.062,0.445-0.188,0.853-0.375,1.22c-0.194,0.366-0.469,0.647-0.819,0.844
		c-0.353,0.221-0.824,0.328-1.418,0.328c-0.272,0-0.556-0.047-0.845-0.142c-0.28-0.062-0.559-0.198-0.832-0.41
		c-0.258-0.219-0.477-0.526-0.655-0.926c-0.173-0.406-0.259-0.931-0.259-1.569v-6.599c-0.577-0.031-1.18-0.047-1.805-0.047
		c-0.414,0-0.742,0.073-0.984,0.223c-0.219,0.173-0.379,0.474-0.479,0.902h-0.479c0.055-0.992,0.289-1.734,0.703-2.228
		C352.541,182.559,353.229,182.321,354.221,182.321z"/>
</g>
<rect x="239.096" y="326.333" fill="none" stroke="#DC9724" width="3" height="3"/>
<rect x="302.761" y="344.239" fill="none" stroke="#DC9724" width="3" height="3"/>
<rect x="420" y="229.5" fill="none" stroke="#DC9724" width="3" height="3"/>
<rect x="488.168" y="212.832" fill="none" stroke="#DC9724" width="3" height="3"/>
<rect x="500.5" y="199.666" fill="none" stroke="#DC9724" width="3" height="3"/>
<rect x="264.25" y="237.863" fill="none" stroke="#DC9724" width="3" height="3"/>
<rect x="215.5" y="219.988" fill="none" stroke="#DC9724" width="3" height="3"/>
<rect x="175.557" y="198.988" fill="none" stroke="#DC9724" width="3" height="3"/>
<rect x="216.5" y="131.239" fill="none" stroke="#DC9724" width="3" height="3"/>
<rect x="317.625" y="54.5" fill="none" stroke="#DC9724" width="3" height="3"/>
<rect x="346.685" y="39.685" fill="none" stroke="#DC9724" width="3" height="3"/>
<rect x="317.644" y="140.03" fill="none" stroke="#DC9724" width="3" height="3"/>
<rect x="352.903" y="144.872" fill="none" stroke="#DC9724" width="3" height="3"/>
<rect x="353.5" y="18" fill="none" stroke="#DC9724" width="3" height="3"/>
<rect x="449.75" y="34" fill="none" stroke="#DC9724" width="3" height="3"/>
<rect x="505.5" y="89.305" fill="none" stroke="#DC9724" width="3" height="3"/>
<rect x="537.012" y="84.499" fill="none" stroke="#DC9724" width="3" height="3"/>
<rect x="586.262" y="117.5" fill="none" stroke="#DC9724" width="3" height="3"/>
<rect x="472.501" y="151.25" fill="none" stroke="#DC9724" width="3" height="3"/>
<rect x="425.75" y="103.5" fill="none" stroke="#DC9724" width="3" height="3"/>
<rect x="472.5" y="162" fill="none" stroke="#DC9724" width="3" height="3"/>
<rect x="460.5" y="160.25" fill="none" stroke="#DC9724" width="3" height="3"/>
<rect x="454.5" y="158.25" fill="none" stroke="#DC9724" width="3" height="3"/>
<rect x="467.5" y="155.25" fill="none" stroke="#DC9724" width="3" height="3"/>
<circle fill="#DDE849" cx="491.216" cy="158.86" r="11.5"/>
<rect x="485.01" y="146.667" fill="none" width="29.948" height="32.001"/>
<text transform="matrix(1 0 0 1 485.0098 161.957)" fill="#FFFFFF" font-family="'TimesNewRomanPSMT'" font-size="22">q</text>
<path id="Path-10_4_" sketch:type="MSShapeGroup" fill="none" stroke="#DC9724" d="M398.997,164.447
	C416.564,154.545,470,168.5,470,168.5"/>
<rect x="470.5" y="167" fill="none" stroke="#DC9724" width="3" height="3"/>
<path id="Path-10_5_" sketch:type="MSShapeGroup" fill="none" stroke="#DC9724" d="M464.5,155c0,0-43.964,29.773-67.444,6.293"/>
<rect x="463.5" y="152" fill="none" stroke="#DC9724" width="3" height="3"/>
</svg>
