<?xml version="1.0" encoding="utf-8"?>
<!-- Generator: Adobe Illustrator 13.0.1, SVG Export Plug-In . SVG Version: 6.00 Build 14948)  -->
<!DOCTYPE svg PUBLIC "-//W3C//DTD SVG 1.1//EN" "http://www.w3.org/Graphics/SVG/1.1/DTD/svg11.dtd">
<svg version="1.1" id="Capa_1" xmlns:sketch="http://www.bohemiancoding.com/sketch/ns"
	 xmlns="http://www.w3.org/2000/svg" xmlns:xlink="http://www.w3.org/1999/xlink" x="0px" y="0px" width="764px" height="338px"
	 viewBox="0 0 764 338" enable-background="new 0 0 764 338" xml:space="preserve">
<title>home_net</title>
<description>Created with Sketch.</description>
<g id="Page-1" sketch:type="MSPage">
	<path id="Path-2" sketch:type="MSShapeGroup" fill="none" stroke="#DC9724" d="M227.926,21.895c0,0,33.195-1.371,71.681,18.484
		c11.579,5.975,39.29,25.135,51.194,42.059c27.657,39.318,36.617,88.41,36.617,88.41"/>
	<path id="Path-4" sketch:type="MSShapeGroup" fill="none" stroke="#DC9724" d="M109.258,42.262c0,0,70.061,22.217,146.301,58.418
		c45.69,21.696,109.848,54.062,129.582,71.531c73.876,65.395,198.353,27.406,198.353,27.406"/>
	<path id="Path-5" sketch:type="MSShapeGroup" fill="none" stroke="#DC9724" d="M44.196,181.992c0,0,172.445,106.656,344.863-6.629
		c172.418-113.285,318.125-18.088,318.125-18.088"/>
	<path id="Path-6" sketch:type="MSShapeGroup" fill="none" stroke="#DC9724" d="M112.309,144.391c0,0,29.142,92.688,271.684,29.582
		c3.484-0.906-138.956,15.223,10.994-1.838c149.948-17.06,204.981,112.291,204.981,112.291"/>
	<path id="Path-5_1_" sketch:type="MSShapeGroup" fill="none" stroke="#DC9724" d="M191.04,303.699
		c0,0,177.087-34.795,197.698-136.117c66.938-53.654,47.069-138.789,47.069-138.789"/>
	<path id="Path-6_1_" sketch:type="MSShapeGroup" fill="none" stroke="#DC9724" d="M430.528,276.496
		c0,0-106.531,48.684-44.634-104.031c0-150.527,80.207-121.387,80.207-121.387"/>
	<path id="Path-7" sketch:type="MSShapeGroup" fill="none" stroke="#DC9724" d="M643.848,192.949
		c0,0-110.312,139.871-256.332-20.855c-67.53-52.383-61.52-69.363-61.52-69.363"/>
	<path id="Path-8" sketch:type="MSShapeGroup" fill="none" stroke="#DC9724" d="M475.285,270.16
		c-34.52-9.832-51.632-44.354-83.961-96.393c-15.77-8.852-31.521-39.667-31.521-39.667"/>
	<path id="Path-9" sketch:type="MSShapeGroup" fill="none" stroke="#DC9724" d="M548.59,156.723c0,0-82.207-72.285-159.492,13.527
		c-174.977,67.309-294.922,62.574-294.922,62.574"/>
	<path id="Path-10" sketch:type="MSShapeGroup" fill="none" stroke="#DC9724" d="M161.865,123.736c0,0,178.233-4.122,223.683,40.76
		c29.832,5.449,86.949,34.836,86.949,34.836"/>
	<path id="Path-11" sketch:type="MSShapeGroup" fill="none" stroke="#DC9724" d="M181.412,153.574c0,0,113.12-21.086,204.998,16.676
		c65.082,22.797,151.574-16.676,151.574-16.676"/>
	<path id="Path-12" sketch:type="MSShapeGroup" fill="none" stroke="#DC9724" d="M623.922,34.691c0,0-61.344,132.008-235.25,132.008
		c-32.891,44.227-101.585,75.623-101.585,75.623"/>
</g>
</svg>
