<?xml version="1.0" encoding="UTF-8" standalone="no"?>
<svg width="800px" height="350px" viewBox="0 0 800 350" version="1.1" xmlns="http://www.w3.org/2000/svg" xmlns:xlink="http://www.w3.org/1999/xlink" xmlns:sketch="http://www.bohemiancoding.com/sketch/ns">
    <!-- Generator: Sketch 3.0 (7574) - http://www.bohemiancoding.com/sketch -->
    <title>home_net</title>
    <description>Created with Sketch.</description>
    <defs></defs>
    <g id="Page-1" stroke="none" stroke-width="1" fill="none" fill-rule="evenodd" sketch:type="MSPage">
        <path d="M241.925781,24.8945312 C241.925781,24.8945312 275.121094,23.523436 313.605469,43.3789062 C325.185763,49.3535958 352.896219,68.5138497 364.800781,85.4375012 C392.458222,124.755611 401.417969,173.847656 401.417969,173.847656" id="Path-2" stroke="#DC9724" sketch:type="MSShapeGroup"></path>
        <path d="M123.257813,45.2617188 C123.257813,45.2617188 193.318155,67.4783255 269.558594,103.679688 C315.249758,125.375292 379.40647,157.742383 399.140625,175.210938 C473.017181,240.606018 597.492767,202.616608 597.492767,202.616608" id="Path-4" stroke="#DC9724" sketch:type="MSShapeGroup"></path>
        <path d="M58.1953115,184.992186 C58.1953115,184.992186 230.640625,291.648438 403.058594,178.363281 C575.476562,65.078125 721.184143,160.274882 721.184143,160.274882" id="Path-5" stroke="#DC9724" sketch:type="MSShapeGroup"></path>
        <path d="M126.308594,147.390625 C126.308594,147.390625 155.450115,240.078786 397.992187,176.972656 C401.478098,176.06567 259.036625,192.195794 408.986513,175.135377 C558.936401,158.074959 613.96875,287.425781 613.96875,287.425781" id="Path-6" stroke="#DC9724" sketch:type="MSShapeGroup"></path>
        <path d="M205.040771,306.698761 C205.040771,306.698761 382.127789,271.903992 402.738281,170.582031 C469.676571,116.928253 449.808594,31.7929688 449.808594,31.7929688" id="Path-5" stroke="#DC9724" sketch:type="MSShapeGroup"></path>
        <path d="M444.527344,279.496094 C444.527344,279.496094 337.996094,328.179683 399.894531,175.464844 C399.894531,24.9373277 480.101562,54.078125 480.101562,54.078125" id="Path-6" stroke="#DC9724" sketch:type="MSShapeGroup"></path>
        <path d="M657.847656,195.949219 C657.847656,195.949219 547.535153,335.820312 401.515625,175.09375 C333.984375,122.710937 339.996094,105.730469 339.996094,105.730469" id="Path-7" stroke="#DC9724" sketch:type="MSShapeGroup"></path>
        <path d="M489.285759,273.160126 C454.76683,263.328369 437.654061,228.805547 405.324219,176.767578 C389.555873,167.916542 373.804688,137.101562 373.804688,137.101562" id="Path-8" stroke="#DC9724" sketch:type="MSShapeGroup"></path>
        <path d="M562.589844,159.722656 C562.589844,159.722656 480.382812,87.4375 403.097656,173.25 C228.121094,240.558591 108.175781,235.824216 108.175781,235.824216" id="Path-9" stroke="#DC9724" sketch:type="MSShapeGroup"></path>
        <path d="M175.864632,126.73624 C175.864632,126.73624 354.099129,122.61478 399.546875,167.496094 C429.379282,172.945499 486.496094,202.332031 486.496094,202.332031" id="Path-10" stroke="#DC9724" sketch:type="MSShapeGroup"></path>
        <path d="M195.412712,156.574219 C195.412712,156.574219 308.532211,135.488403 400.410156,173.25 C465.492188,196.046875 551.984375,156.574219 551.984375,156.574219" id="Path-11" stroke="#DC9724" sketch:type="MSShapeGroup"></path>
        <path d="M637.921875,37.6914062 C637.921875,37.6914062 576.578125,169.699219 402.671875,169.699219 C369.78125,213.925781 301.087101,245.321594 301.087101,245.321594" id="Path-12" stroke="#DC9724" sketch:type="MSShapeGroup"></path>
        <g id="img1" sketch:type="MSLayerGroup" transform="translate(736.000000, 160.000000)">
            <path d="M34.1248148,5.84 C41.9351852,13.65 41.9351852,26.3137037 34.1244444,34.1240741 C26.3140741,41.9344444 13.6503704,41.9344444 5.84037037,34.1240741 C-1.97037037,26.3137037 -1.97037037,13.65 5.84,5.84 C13.6503704,-1.97074074 26.3140741,-1.97074074 34.1248148,5.84" id="Fill-88" fill="#FFFFFF" sketch:type="MSShapeGroup"></path>
            <path d="M34.1248148,5.84 C41.9351852,13.65 41.9351852,26.3137037 34.1244444,34.1240741 C26.3140741,41.9344444 13.6503704,41.9344444 5.84037037,34.1240741 C-1.97037037,26.3137037 -1.97037037,13.65 5.84,5.84 C13.6503704,-1.97074074 26.3140741,-1.97074074 34.1248148,5.84 L34.1248148,5.84 Z" id="Stroke-89" stroke="#FFFFFF" stroke-width="4" sketch:type="MSShapeGroup"></path>
            <path d="M22.6818519,19.9455556 C22.6818519,21.7018519 21.2577778,23.1255556 19.5014815,23.1255556 C17.7451852,23.1255556 16.3211111,21.7018519 16.3211111,19.9455556 C16.3211111,18.1888889 17.7451852,16.7651852 19.5014815,16.7651852 C21.2577778,16.7651852 22.6818519,18.1888889 22.6818519,19.9455556" id="Fill-111" fill="#238291" sketch:type="MSShapeGroup"></path>
            <path d="M19.5725926,5.14555556 C16.6407407,5.14555556 14.1640741,11.9396296 14.1640741,19.9818519 C14.1640741,28.0240741 16.6407407,34.8185185 19.5725926,34.8185185 C22.5040741,34.8185185 24.9803704,28.0240741 24.9803704,19.9818519 C24.9803704,11.9396296 22.5040741,5.14555556 19.5725926,5.14555556 L19.5725926,5.14555556 Z M19.5725926,35.4911111 C16.182963,35.4911111 13.5277778,28.6788889 13.5277778,19.9818519 C13.5277778,11.2851852 16.182963,4.47259259 19.5725926,4.47259259 C22.9618519,4.47259259 25.6166667,11.2851852 25.6166667,19.9818519 C25.6166667,28.6788889 22.9618519,35.4911111 19.5725926,35.4911111 L19.5725926,35.4911111 Z" id="Fill-112" fill="#B03236" sketch:type="MSShapeGroup"></path>
            <path d="M19.5725926,5.14555556 C16.6407407,5.14555556 14.1640741,11.9396296 14.1640741,19.9818519 C14.1640741,28.0240741 16.6407407,34.8185185 19.5725926,34.8185185 C22.5040741,34.8185185 24.9803704,28.0240741 24.9803704,19.9818519 C24.9803704,11.9396296 22.5040741,5.14555556 19.5725926,5.14555556 L19.5725926,5.14555556 Z M19.5725926,35.4911111 C16.182963,35.4911111 13.5277778,28.6788889 13.5277778,19.9818519 C13.5277778,11.2851852 16.182963,4.47259259 19.5725926,4.47259259 C22.9618519,4.47259259 25.6166667,11.2851852 25.6166667,19.9818519 C25.6166667,28.6788889 22.9618519,35.4911111 19.5725926,35.4911111 L19.5725926,35.4911111 Z" id="Stroke-113" stroke="#B03236" sketch:type="MSShapeGroup"></path>
            <path d="M9.22407407,9.02962963 C8.18814815,9.02962963 7.4462963,9.29814815 7.01962963,9.82814815 C6.17,10.8822222 6.61851852,12.9888889 8.25037037,15.6081481 C9.96888889,18.3662963 12.7814815,21.3896296 16.1703704,24.1207407 C21.2237037,28.1937037 26.6040741,30.8251852 29.8762963,30.8251852 C30.9122222,30.8251852 31.6540741,30.5562963 32.0811111,30.0262963 C33.912963,27.7533333 29.7222222,21.2085185 22.9303704,15.7340741 C17.8766667,11.6614815 12.4966667,9.02962963 9.22407407,9.02962963 L9.22407407,9.02962963 Z M29.8762963,31.5059259 C26.4577778,31.5059259 20.9103704,28.8151852 15.7433333,24.6511111 C12.2962963,21.8733333 9.43,18.7892593 7.67222222,15.9677778 C5.85185185,13.0455556 5.43185185,10.7133333 6.48925926,9.40074074 C7.05222222,8.70296296 7.97222222,8.34888889 9.22407407,8.34888889 C12.6422222,8.34888889 18.19,11.0396296 23.3574074,15.2040741 C30.6811111,21.1066667 34.7459259,27.8051852 32.6114815,30.4537037 C32.0485185,31.1518519 31.1285185,31.5059259 29.8762963,31.5059259 L29.8762963,31.5059259 Z" id="Fill-114" fill="#B03236" sketch:type="MSShapeGroup"></path>
            <path d="M9.22407407,9.02962963 C8.18814815,9.02962963 7.4462963,9.29814815 7.01962963,9.82814815 C6.17,10.8822222 6.61851852,12.9888889 8.25037037,15.6081481 C9.96888889,18.3662963 12.7814815,21.3896296 16.1703704,24.1207407 C21.2237037,28.1937037 26.6040741,30.8251852 29.8762963,30.8251852 C30.9122222,30.8251852 31.6540741,30.5562963 32.0811111,30.0262963 C33.912963,27.7533333 29.7222222,21.2085185 22.9303704,15.7340741 C17.8766667,11.6614815 12.4966667,9.02962963 9.22407407,9.02962963 L9.22407407,9.02962963 Z M29.8762963,31.5059259 C26.4577778,31.5059259 20.9103704,28.8151852 15.7433333,24.6511111 C12.2962963,21.8733333 9.43,18.7892593 7.67222222,15.9677778 C5.85185185,13.0455556 5.43185185,10.7133333 6.48925926,9.40074074 C7.05222222,8.70296296 7.97222222,8.34888889 9.22407407,8.34888889 C12.6422222,8.34888889 18.19,11.0396296 23.3574074,15.2040741 C30.6811111,21.1066667 34.7459259,27.8051852 32.6114815,30.4537037 C32.0485185,31.1518519 31.1285185,31.5059259 29.8762963,31.5059259 L29.8762963,31.5059259 Z" id="Stroke-115" stroke="#B03236" sketch:type="MSShapeGroup"></path>
            <path d="M29.612963,8.55444444 C26.4148148,8.55444444 20.9359259,11.5048148 15.9788889,15.8959259 C9.44925926,21.6814815 5.56814815,28.4148148 7.5037037,30.6 C7.91592593,31.0651852 8.58333333,31.3011111 9.48777778,31.3011111 C12.6859259,31.3011111 18.1651852,28.3503704 23.1218519,23.9592593 C26.3796296,21.0725926 29.0485185,17.9214815 30.6366667,15.0859259 C32.1440741,12.3933333 32.4937037,10.2685185 31.5962963,9.25518519 C31.1840741,8.79 30.517037,8.55444444 29.612963,8.55444444 L29.612963,8.55444444 Z M9.48777778,31.9818519 C8.38,31.9818519 7.54111111,31.6688889 6.99407407,31.0514815 C4.73851852,28.5051852 8.48703704,21.6244444 15.5274074,15.3862963 C20.6788889,10.8225926 26.2081481,7.87333333 29.612963,7.87333333 C30.72,7.87333333 31.5588889,8.1862963 32.1059259,8.8037037 C33.2237037,10.0651852 32.912963,12.4144444 31.2303704,15.4185185 C29.6062963,18.3188889 26.887037,21.532963 23.5733333,24.4688889 C18.4218519,29.032963 12.892963,31.9818519 9.48777778,31.9818519 L9.48777778,31.9818519 Z" id="Fill-116" fill="#B03236" sketch:type="MSShapeGroup"></path>
            <path d="M29.612963,8.55444444 C26.4148148,8.55444444 20.9359259,11.5048148 15.9788889,15.8959259 C9.44925926,21.6814815 5.56814815,28.4148148 7.5037037,30.6 C7.91592593,31.0651852 8.58333333,31.3011111 9.48777778,31.3011111 C12.6859259,31.3011111 18.1651852,28.3503704 23.1218519,23.9592593 C26.3796296,21.0725926 29.0485185,17.9214815 30.6366667,15.0859259 C32.1440741,12.3933333 32.4937037,10.2685185 31.5962963,9.25518519 C31.1840741,8.79 30.517037,8.55444444 29.612963,8.55444444 L29.612963,8.55444444 Z M9.48777778,31.9818519 C8.38,31.9818519 7.54111111,31.6688889 6.99407407,31.0514815 C4.73851852,28.5051852 8.48703704,21.6244444 15.5274074,15.3862963 C20.6788889,10.8225926 26.2081481,7.87333333 29.612963,7.87333333 C30.72,7.87333333 31.5588889,8.1862963 32.1059259,8.8037037 C33.2237037,10.0651852 32.912963,12.4144444 31.2303704,15.4185185 C29.6062963,18.3188889 26.887037,21.532963 23.5733333,24.4688889 C18.4218519,29.032963 12.892963,31.9818519 9.48777778,31.9818519 L9.48777778,31.9818519 Z" id="Stroke-117" stroke="#B03236" sketch:type="MSShapeGroup"></path>
            <path d="M10.9474074,22.9851852 C10.9474074,24.0003704 10.1244444,24.8233333 9.10925926,24.8233333 C8.09407407,24.8233333 7.27111111,24.0003704 7.27111111,22.9851852 C7.27111111,21.97 8.09407407,21.147037 9.10925926,21.147037 C10.1244444,21.147037 10.9474074,21.97 10.9474074,22.9851852" id="Fill-118" fill="#238291" sketch:type="MSShapeGroup"></path>
            <path d="M34.0648148,26.3785185 C34.0648148,27.3937037 33.2414815,28.2166667 32.2266667,28.2166667 C31.2114815,28.2166667 30.3885185,27.3937037 30.3885185,26.3785185 C30.3885185,25.3633333 31.2114815,24.5403704 32.2266667,24.5403704 C33.2414815,24.5403704 34.0648148,25.3633333 34.0648148,26.3785185" id="Fill-119" fill="#238291" sketch:type="MSShapeGroup"></path>
            <path d="M18.7437037,6.60111111 C18.7437037,7.61592593 17.9207407,8.43925926 16.9059259,8.43925926 C15.8907407,8.43925926 15.0677778,7.61592593 15.0677778,6.60111111 C15.0677778,5.58592593 15.8907407,4.76296296 16.9059259,4.76296296 C17.9207407,4.76296296 18.7437037,5.58592593 18.7437037,6.60111111" id="Fill-120" fill="#238291" sketch:type="MSShapeGroup"></path>
        </g>
        <g id="Group" sketch:type="MSLayerGroup" transform="translate(487.000000, 39.000000)">
            <path d="M34.16,34.1237037 C26.3492593,41.9344444 13.6862963,41.9340741 5.87592593,34.1237037 C-1.93481481,26.3133333 -1.93444444,13.6496296 5.87592593,5.84 C13.6862963,-1.97148148 26.35,-1.97111111 34.16,5.84037037 C41.9703704,13.6496296 41.9711111,26.3133333 34.16,34.1237037" id="Fill-62" fill="#B03236" sketch:type="MSShapeGroup"></path>
            <path d="M34.16,34.1237037 C26.3492593,41.9344444 13.6862963,41.9340741 5.87592593,34.1237037 C-1.93481481,26.3133333 -1.93444444,13.6496296 5.87592593,5.84 C13.6862963,-1.97148148 26.35,-1.97111111 34.16,5.84037037 C41.9703704,13.6496296 41.9711111,26.3133333 34.16,34.1237037 L34.16,34.1237037 Z" id="Stroke-63" stroke="#FFFFFF" stroke-width="4" sketch:type="MSShapeGroup"></path>
            <path d="M24.0740741,9.07407407 C24.0740741,9.79 23.4937037,10.3703704 22.7777778,10.3703704 L17.2222222,10.3703704 C16.5062963,10.3703704 15.9259259,9.79 15.9259259,9.07407407 C15.9259259,8.35814815 16.5062963,7.77777778 17.2222222,7.77777778 L22.7777778,7.77777778 C23.4937037,7.77777778 24.0740741,8.35814815 24.0740741,9.07407407" id="Fill-64" fill="#FFFFFF" sketch:type="MSShapeGroup"></path>
            <path d="M22.5925926,16.3748148 L22.5925926,9.62962963 L17.4074074,9.62962963 L17.4074074,16.4196296 C16.6666667,17.0985185 10.1244444,27.55 10.1244444,29.4422222 C10.1244444,30.7540741 11.3022222,31.8518519 12.6137037,31.8518519 L27.6688889,31.8518519 C28.9803704,31.8518519 29.7822222,30.7540741 29.7822222,29.4422222 C29.7822222,27.4196296 23.3333333,17.1792593 22.5925926,16.3748148" id="Fill-65" fill="#FFFFFF" sketch:type="MSShapeGroup"></path>
            <path d="M12.492963,28.27 C12.492963,29.282963 13.3140741,30 14.327037,30 L25.9555556,30 C26.9685185,30 27.7896296,29.282963 27.7896296,28.27 C27.7896296,27.4377778 25.4492593,23.3333333 24.2977778,21.8518519 L16.0025926,21.8518519 C14.8455556,23.3333333 12.492963,27.4659259 12.492963,28.27" id="Fill-66" fill="#238291" sketch:type="MSShapeGroup"></path>
        </g>
        <g id="Group" sketch:type="MSLayerGroup" transform="translate(16.000000, 135.000000)">
            <path d="M20,39.9992593 C8.9537037,39.9992593 0,31.0451852 0,19.9996296 C-0.00037037037,8.9537037 8.95444444,-0.00037037037 19.9996296,0 C31.0459259,-0.000740740741 40,8.9537037 39.9992593,20 C40,31.0448148 31.0459259,40 20,39.9992593" id="Fill-67" fill="#FFFFFF" sketch:type="MSShapeGroup"></path>
            <path d="M20,39.9992593 C8.9537037,39.9992593 0,31.0451852 0,19.9996296 C-0.00037037037,8.9537037 8.95444444,-0.00037037037 19.9996296,0 C31.0459259,-0.000740740741 40,8.9537037 39.9992593,20 C40,31.0448148 31.0459259,40 20,39.9992593 L20,39.9992593 Z" id="Stroke-68" stroke="#FFFFFF" stroke-width="4" sketch:type="MSShapeGroup"></path>
            <path d="M35.0477778,23.1677778 L10.3811111,31.3674074 L8.61666667,26.0596296 L33.2833333,17.8596296 L35.0477778,23.1677778" id="Fill-69" fill="#E9AC3C" sketch:type="MSShapeGroup"></path>
            <path d="M14.7548148,26.792963 L13.8181481,27.1040741 L14.7525926,29.9144444 L15.6888889,29.602963 L14.7548148,26.792963" id="Fill-70" fill="#2B2C2C" sketch:type="MSShapeGroup"></path>
            <path d="M17.2525926,25.9625926 L16.3162963,26.2737037 L17.25,29.0840741 L18.1866667,28.7725926 L17.2525926,25.9625926" id="Fill-71" fill="#2B2C2C" sketch:type="MSShapeGroup"></path>
            <path d="M19.7507407,25.1322222 L18.8140741,25.4437037 L19.7481481,28.2537037 L20.6848148,27.9422222 L19.7507407,25.1322222" id="Fill-72" fill="#2B2C2C" sketch:type="MSShapeGroup"></path>
            <path d="M22.2485185,24.3018519 L21.3118519,24.6133333 L22.2459259,27.4233333 L23.182963,27.1118519 L22.2485185,24.3018519" id="Fill-73" fill="#2B2C2C" sketch:type="MSShapeGroup"></path>
            <path d="M24.7462963,23.4714815 L23.8096296,23.7825926 L24.7440741,26.592963 L25.6807407,26.2814815 L24.7462963,23.4714815" id="Fill-74" fill="#2B2C2C" sketch:type="MSShapeGroup"></path>
            <path d="M27.2444444,22.6407407 L26.3077778,22.9525926 L27.2418519,25.7625926 L28.1785185,25.4511111 L27.2444444,22.6407407" id="Fill-75" fill="#2B2C2C" sketch:type="MSShapeGroup"></path>
            <path d="M29.7425926,21.8107407 L28.8055556,22.1218519 L29.74,24.9322222 L30.6762963,24.6207407 L29.7425926,21.8107407" id="Fill-76" fill="#2B2C2C" sketch:type="MSShapeGroup"></path>
            <path d="M32.2403704,20.9803704 L31.3037037,21.2918519 L32.2377778,24.1018519 L33.1744444,23.7903704 L32.2403704,20.9803704" id="Fill-77" fill="#2B2C2C" sketch:type="MSShapeGroup"></path>
            <path d="M23.4877778,6.83888889 L11.8440741,30.0788889 L6.84333333,27.5737037 L18.487037,4.33333333 L23.4877778,6.83888889" id="Fill-78" fill="#F9C969" sketch:type="MSShapeGroup"></path>
            <path d="M11.7022222,23.7518519 L11.2596296,24.6340741 L13.9077778,25.9603704 L14.3496296,25.0781481 L11.7022222,23.7518519" id="Fill-79" fill="#2B2C2C" sketch:type="MSShapeGroup"></path>
            <path d="M12.8811111,21.3981481 L12.4392593,22.2807407 L15.0862963,23.6074074 L15.5288889,22.7248148 L12.8811111,21.3981481" id="Fill-80" fill="#2B2C2C" sketch:type="MSShapeGroup"></path>
            <path d="M14.0603704,19.0448148 L13.6185185,19.9274074 L16.2659259,21.2537037 L16.7077778,20.3711111 L14.0603704,19.0448148" id="Fill-81" fill="#2B2C2C" sketch:type="MSShapeGroup"></path>
            <path d="M15.2392593,16.6911111 L14.7974074,17.5740741 L17.4451852,18.9003704 L17.887037,18.0177778 L15.2392593,16.6911111" id="Fill-82" fill="#2B2C2C" sketch:type="MSShapeGroup"></path>
            <path d="M16.4185185,14.3377778 L15.9762963,15.2203704 L18.6240741,16.547037 L19.0662963,15.6644444 L16.4185185,14.3377778" id="Fill-83" fill="#2B2C2C" sketch:type="MSShapeGroup"></path>
            <path d="M17.5977778,11.9844444 L17.1555556,12.867037 L19.802963,14.1933333 L20.2451852,13.3107407 L17.5977778,11.9844444" id="Fill-84" fill="#2B2C2C" sketch:type="MSShapeGroup"></path>
            <path d="M18.7766667,9.63074074 L18.3348148,10.5133333 L20.9822222,11.84 L21.4244444,10.9574074 L18.7766667,9.63074074" id="Fill-85" fill="#2B2C2C" sketch:type="MSShapeGroup"></path>
            <path d="M19.9562963,7.27740741 L19.5140741,8.16 L22.1614815,9.48666667 L22.6037037,8.60407407 L19.9562963,7.27740741" id="Fill-86" fill="#2B2C2C" sketch:type="MSShapeGroup"></path>
            <path d="M11.8640741,27.8396296 C11.977037,28.1792593 11.7933333,28.5462963 11.4537037,28.6588889 C11.1137037,28.7722222 10.747037,28.5881481 10.6340741,28.2485185 C10.5211111,27.9088889 10.7044444,27.5418519 11.0444444,27.4288889 C11.3840741,27.3159259 11.7514815,27.5 11.8640741,27.8396296" id="Fill-87" fill="#2B2C2C" sketch:type="MSShapeGroup"></path>
        </g>
        <g id="img2" sketch:type="MSLayerGroup" transform="translate(148.000000, 293.000000)">
            <path d="M40,20 C40,31.0455556 31.0455556,40 20,40 C8.95444444,40 0,31.0455556 0,20 C0,8.95444444 8.95444444,0 20,0 C31.0455556,0 40,8.95444444 40,20" id="Fill-97" fill="#7CBD57" sketch:type="MSShapeGroup"></path>
            <path d="M40,20 C40,31.0455556 31.0455556,40 20,40 C8.95444444,40 0,31.0455556 0,20 C0,8.95444444 8.95444444,0 20,0 C31.0455556,0 40,8.95444444 40,20 L40,20 Z" id="Stroke-98" stroke="#FFFFFF" stroke-width="4" sketch:type="MSShapeGroup"></path>
            <path d="M29.4444444,27.7777778 L10.1851852,27.7777778 C10.1851852,27.7777778 10.9933333,14.207037 12.4074074,9.98555556 C13.0925926,7.94 15.2281481,5.51444444 20.1851852,5.51444444 C25.2940741,5.51444444 27.3048148,7.92666667 27.962963,9.98148148 C29.3211111,14.2211111 29.4444444,27.7777778 29.4444444,27.7777778" id="Fill-99" fill="#B03236" sketch:type="MSShapeGroup"></path>
            <path d="M27.4614815,24.0740741 L12.9088889,24.0740741 C10.8666667,24.0740741 8.88888889,25.8377778 8.88888889,27.88 L8.88888889,31.4814815 L30.7407407,31.4814815 L30.7407407,27.88 C30.7407407,25.8377778 29.5033333,24.0740741 27.4614815,24.0740741" id="Fill-100" fill="#2B2C2C" sketch:type="MSShapeGroup"></path>
            <path d="M27.2974074,14.46 C27.2974074,19.0466667 25.2096296,22.7603704 20.1851852,22.7603704 C15.2618519,22.7603704 13.0088889,19.1177778 13.0088889,14.5311111 C13.0088889,11.912963 13.8522222,10.9259259 15.4296296,9.92481481 C16.6155556,9.17185185 23.6522222,9.14074074 24.8144444,9.83481481 C26.4392593,10.8051852 27.2974074,11.7859259 27.2974074,14.46" id="Fill-101" fill="#FFFFFF" sketch:type="MSShapeGroup"></path>
            <path d="M23.7037037,25.712963 C23.7037037,25.712963 21.752963,26.6277778 19.9622222,26.6277778 C17.942963,26.6277778 16.2962963,25.712963 16.2962963,25.712963 L16.2962963,20.3703704 L23.7037037,20.3703704 L23.7037037,25.712963" id="Fill-102" fill="#FFFFFF" sketch:type="MSShapeGroup"></path>
            <path d="M13.7077778,15.81 C13.8888889,16.7066667 13.6218519,17.5177778 13.1114815,17.6211111 C12.6011111,17.7244444 12.0403704,17.0803704 11.8592593,16.182963 C11.6777778,15.2859259 11.9448148,14.4748148 12.4551852,14.3718519 C12.9655556,14.2685185 13.5262963,14.9125926 13.7077778,15.81" id="Fill-103" fill="#FFFFFF" sketch:type="MSShapeGroup"></path>
            <path d="M26.4907407,15.81 C26.3096296,16.7066667 26.577037,17.5177778 27.0874074,17.6211111 C27.5977778,17.7244444 28.1581481,17.0803704 28.34,16.182963 C28.5211111,15.2859259 28.2540741,14.4748148 27.7437037,14.3718519 C27.232963,14.2685185 26.6725926,14.9125926 26.4907407,15.81" id="Fill-104" fill="#FFFFFF" sketch:type="MSShapeGroup"></path>
            <path d="M27.5925926,12.6088889 C25.2648148,15.49 15.3966667,15.22 12.7777778,12.6007407 C11.9922222,11.8151852 13.5185185,8.88888889 13.5185185,8.88888889 L26.8518519,8.88888889 C26.8518519,8.88888889 28.2911111,11.7448148 27.5925926,12.6088889" id="Fill-105" fill="#B03236" sketch:type="MSShapeGroup"></path>
            <path d="M13.0088889,14.5311111 L13.672963,16.1111111 L14.2285185,11.8825926 L12.8703704,11.6974074 L13.0088889,14.5311111" id="Fill-106" fill="#B03236" sketch:type="MSShapeGroup"></path>
            <path d="M27.2377778,15.2777778 L26.7592593,16.4814815 L26.2037037,12.252963 L27.5614815,12.0677778 L27.2377778,15.2777778" id="Fill-107" fill="#B03236" sketch:type="MSShapeGroup"></path>
        </g>
        <g id="Group" sketch:type="MSLayerGroup" transform="translate(193.000000, 5.000000)">
            <path d="M20.0007407,-0.00037037037 C31.0459259,-0.00037037037 40.0007407,8.95407407 40.0007407,20 C40.0007407,31.0451852 31.0459259,39.9996296 20.0007407,40 C8.95481481,40 0.00037037037,31.0455556 0.000740740741,20 C0.000740740741,8.95407407 8.95481481,-0.00037037037 20.0007407,-0.00037037037" id="Fill-90" fill="#7CBD57" sketch:type="MSShapeGroup"></path>
            <path d="M20.0007407,-0.00037037037 C31.0459259,-0.00037037037 40.0007407,8.95407407 40.0007407,20 C40.0007407,31.0451852 31.0459259,39.9996296 20.0007407,40 C8.95481481,40 0.00037037037,31.0455556 0.000740740741,20 C0.000740740741,8.95407407 8.95481481,-0.00037037037 20.0007407,-0.00037037037 L20.0007407,-0.00037037037 Z" id="Stroke-91" stroke="#FFFFFF" stroke-width="4" sketch:type="MSShapeGroup"></path>
            <path d="M33.7037037,11.4814815 L6.2962963,11.4814815 L6.2962963,28.5185185 L17.997037,28.5185185 C18.1333333,28.8888889 19.0174074,29.8888889 20.337037,29.8888889 C21.5844444,29.8888889 22.43,28.8888889 22.5662963,28.5185185 L33.7037037,28.5185185 L33.7037037,11.4814815" id="Fill-108" fill="#B03236" sketch:type="MSShapeGroup"></path>
            <path d="M32.2222222,10.7407407 L8.14814815,10.7407407 L8.14814815,27.037037 L18.6111111,27.037037 C18.7296296,27.4074074 19.1407407,28.3048148 20.2833333,28.3048148 C21.3633333,28.3048148 21.8374074,27.4074074 21.9555556,27.037037 L32.2222222,27.037037 L32.2222222,10.7407407" id="Fill-109" fill="#FFFFFF" sketch:type="MSShapeGroup"></path>
            <path d="M29.2592593,17.9314815 L27.6722222,16.6566667 L25.9259259,17.9314815 L25.9259259,10.7407407 L29.2592593,10.7407407 L29.2592593,17.9314815" id="Fill-110" fill="#238291" sketch:type="MSShapeGroup"></path>
        </g>
        <g id="Group" sketch:type="MSLayerGroup" transform="translate(606.000000, 299.000000)">
            <path d="M5.87592593,34.1592593 C-1.93481481,26.3485185 -1.93444444,13.6855556 5.87592593,5.87518519 C13.6862963,-1.93555556 26.35,-1.93518519 34.1596296,5.87518519 C41.9711111,13.6855556 41.9707407,26.3492593 34.1592593,34.1592593 C26.35,41.9696296 13.6862963,41.9703704 5.87592593,34.1592593" id="Fill-60" fill="#7CBD57" sketch:type="MSShapeGroup"></path>
            <path d="M5.87592593,34.1592593 C-1.93481481,26.3485185 -1.93444444,13.6855556 5.87592593,5.87518519 C13.6862963,-1.93555556 26.35,-1.93518519 34.1596296,5.87518519 C41.9711111,13.6855556 41.9707407,26.3492593 34.1592593,34.1592593 C26.35,41.9696296 13.6862963,41.9703704 5.87592593,34.1592593 L5.87592593,34.1592593 Z" id="Stroke-61" stroke="#FFFFFF" stroke-width="4" sketch:type="MSShapeGroup"></path>
            <path d="M25.4585185,30.997037 C26.232963,31.7714815 27.4877778,31.7714815 28.2622222,30.997037 L29.9262963,29.332963 C30.7003704,28.5592593 30.7003704,27.3040741 29.9262963,26.53 L27.122963,23.727037 C26.3492593,22.9525926 22.8162963,20.6748148 22.0422222,21.4488889 L20.3781481,23.1133333 C19.6040741,23.8874074 21.8814815,27.4196296 22.6551852,28.1940741 L25.4585185,30.997037" id="Fill-121" fill="#B03236" sketch:type="MSShapeGroup"></path>
            <path d="M24.67,30.2088889 L29.1377778,25.7411111 L27.5607407,24.1648148 L23.0937037,28.6322222 L24.67,30.2088889" id="Fill-122" fill="#2B2C2C" sketch:type="MSShapeGroup"></path>
            <path d="M23.0937037,28.6322222 L27.5607407,24.1648148 L15.7348148,12.3381481 L11.267037,16.8062963 L23.0937037,28.6322222" id="Fill-123" fill="#DEA940" sketch:type="MSShapeGroup"></path>
            <path d="M9.58333333,10.6062963 L10.4285185,13.7033333 L11.2848148,16.7888889 L15.7518519,12.3211111 L12.68,11.4511111 L9.58333333,10.6062963" id="Fill-124" fill="#FFFFFF" sketch:type="MSShapeGroup"></path>
            <path d="M9.60518519,10.6274074 L10.0807407,12.3866667 L10.7177778,11.75 L11.3640741,11.1033333 L9.60518519,10.6274074" id="Fill-125" fill="#2B2C2C" sketch:type="MSShapeGroup"></path>
            <path d="M23.9051852,18.6544444 L21.9781481,16.7274074 L25.0440741,13.6614815 L26.9711111,15.5885185 L23.9051852,18.6544444" id="Fill-126" fill="#FFFFFF" sketch:type="MSShapeGroup"></path>
            <path d="M29.0537037,14.9040741 C27.697037,16.1718519 26.1959259,16.4762963 25.2033333,15.4833333 C24.21,14.49 24.5262963,13 25.7822222,11.6325926 C28.03,9.18518519 31.7466667,8.94 31.7466667,8.94 C31.7466667,8.94 31.172963,12.9244444 29.0537037,14.9040741" id="Fill-127" fill="#2B2C2C" sketch:type="MSShapeGroup"></path>
            <path d="M11.6603704,30.6055556 C11.262963,31.0033333 10.7040741,31.0325926 10.3066667,30.6355556 L10.0762963,30.4044444 C9.67888889,30.007037 9.65037037,29.3907407 10.0474074,28.9933333 L21.9755556,16.0285185 C22.372963,15.6314815 23.0014815,15.6477778 23.3985185,16.0451852 L24.6081481,17.2548148 C25.0059259,17.6522222 25.0225926,18.2807407 24.6244444,18.6781481 L11.6603704,30.6055556" id="Fill-128" fill="#238291" sketch:type="MSShapeGroup"></path>
        </g>
    </g>
</svg>