<?xml version="1.0" encoding="utf-8"?>
<!-- Generator: Adobe Illustrator 13.0.1, SVG Export Plug-In . SVG Version: 6.00 Build 14948)  -->
<!DOCTYPE svg PUBLIC "-//W3C//DTD SVG 1.1//EN" "http://www.w3.org/Graphics/SVG/1.1/DTD/svg11.dtd">
<svg version="1.1" id="Capa_1" xmlns:sketch="http://www.bohemiancoding.com/sketch/ns"
	 xmlns="http://www.w3.org/2000/svg" xmlns:xlink="http://www.w3.org/1999/xlink" x="0px" y="0px" width="764px" height="338px"
	 viewBox="0 0 764 338" enable-background="new 0 0 764 338" xml:space="preserve">
<title>home_net</title>
<description>Created with Sketch.</description>
<g id="Page-1" sketch:type="MSPage">
	<path id="Path-2" sketch:type="MSShapeGroup" fill="none" stroke="#DC9724" d="M227.926,21.895c0,0,33.195-1.371,71.681,18.484
		c11.579,5.975,39.29,25.135,51.194,42.059c27.657,39.318,36.617,88.41,36.617,88.41"/>
	<path id="Path-4" sketch:type="MSShapeGroup" fill="none" stroke="#DC9724" d="M109.258,42.262c0,0,70.061,22.217,146.301,58.418
		c45.69,21.696,109.848,54.062,129.582,71.531c73.876,65.395,198.353,27.406,198.353,27.406"/>
	<path id="Path-5" sketch:type="MSShapeGroup" fill="none" stroke="#DC9724" d="M44.196,181.992c0,0,172.445,106.656,344.863-6.629
		c172.418-113.285,318.125-18.088,318.125-18.088"/>
	<path id="Path-6" sketch:type="MSShapeGroup" fill="none" stroke="#DC9724" d="M112.309,144.391c0,0,29.142,92.688,271.684,29.582
		c3.484-0.906-138.956,15.223,10.994-1.838c149.948-17.06,204.981,112.291,204.981,112.291"/>
	<path id="Path-5_1_" sketch:type="MSShapeGroup" fill="none" stroke="#DC9724" d="M191.04,303.699
		c0,0,177.087-34.795,197.698-136.117c66.938-53.654,47.069-138.789,47.069-138.789"/>
	<path id="Path-6_1_" sketch:type="MSShapeGroup" fill="none" stroke="#DC9724" d="M430.528,276.496
		C365,302,385.895,172.465,385.895,172.465l80.207-121.387"/>
	<path id="Path-7" sketch:type="MSShapeGroup" fill="none" stroke="#DC9724" d="M643.848,192.949
		c0,0-110.312,139.871-256.332-20.855c-67.53-52.383-61.52-69.363-61.52-69.363"/>
	<path id="Path-8" sketch:type="MSShapeGroup" fill="none" stroke="#DC9724" d="M475.285,270.16c0,0-51.632-44.354-83.961-96.393
		c-15.77-8.852-31.521-39.667-31.521-39.667"/>
	<path id="Path-9" sketch:type="MSShapeGroup" fill="none" stroke="#DC9724" d="M548.59,156.723c0,0-82.207-72.285-159.492,13.527
		c-174.977,67.309-294.922,62.574-294.922,62.574"/>
	<path id="Path-10" sketch:type="MSShapeGroup" fill="none" stroke="#DC9724" d="M161.865,123.736c0,0,178.233-4.122,223.683,40.76
		c29.832,5.449,86.949,34.836,86.949,34.836"/>
	<path id="Path-11" sketch:type="MSShapeGroup" fill="none" stroke="#DC9724" d="M181.412,153.574c0,0,113.12-21.086,204.998,16.676
		c65.082,22.797,151.574-16.676,151.574-16.676"/>
	<path id="Path-12" sketch:type="MSShapeGroup" fill="none" stroke="#DC9724" d="M623.922,34.691c0,0-61.344,132.008-235.25,132.008
		c-32.891,44.227-101.585,75.623-101.585,75.623"/>
</g>
<circle fill="#33CCCC" cx="28.438" cy="172.438" r="11.5"/>
<circle fill="#990000" cx="208.438" cy="21.938" r="11.5"/>
<circle fill="#33CC66" cx="722.688" cy="169.688" r="11.5"/>
<circle fill="#CCCCCC" cx="476.438" cy="36.938" r="11.5"/>
<g>
	<path fill="#FFFFFF" d="M471.147,33.83c0-0.414,0.023-0.848,0.07-1.301c0.047-0.445,0.129-0.859,0.246-1.242
		c0.125-0.398,0.316-0.719,0.574-0.961c0.234-0.258,0.562-0.387,0.984-0.387c0.586,0.016,1.105,0.32,1.559,0.914
		c0.43,0.625,0.797,1.418,1.102,2.379c0.625,2.047,1.152,4.055,1.582,6.023h0.047c0.609-1.25,1.105-2.469,1.488-3.656
		c0.383-1.148,0.68-2.539,0.891-4.172c0.078-0.477,0.254-0.852,0.527-1.125c0.258-0.242,0.57-0.363,0.938-0.363
		c0.336,0,0.59,0.113,0.762,0.34c0.18,0.234,0.27,0.539,0.27,0.914c-0.016,0.445-0.254,1.117-0.715,2.016
		c-0.469,0.906-1.016,1.863-1.641,2.871c-0.586,1.008-1.113,1.891-1.582,2.648c-0.492,0.766-0.746,1.227-0.762,1.383
		c0,0.102,0.039,0.293,0.117,0.574c0.047,0.305,0.109,0.691,0.188,1.16c0.195,0.93,0.301,2.074,0.316,3.434
		c-0.016,1.164-0.449,1.754-1.301,1.77c-0.414-0.016-0.719-0.23-0.914-0.645c-0.172-0.367-0.258-0.711-0.258-1.031
		c0.016-1.344,0.223-2.512,0.621-3.504c0.18-0.484,0.332-0.887,0.457-1.207c0.109-0.32,0.164-0.527,0.164-0.621
		s-0.023-0.277-0.07-0.551c-0.047-0.258-0.125-0.578-0.234-0.961c-0.227-0.781-0.531-1.652-0.914-2.613
		c-0.367-0.977-0.793-1.832-1.277-2.566c-0.508-0.719-1.043-1.086-1.605-1.102c-0.43,0.016-0.727,0.191-0.891,0.527
		c-0.172,0.336-0.258,0.688-0.258,1.055H471.147z"/>
</g>
<g>
	<path fill="#FFFFFF" d="M726.018,165.248c0.828,0.762,1.242,1.842,1.242,3.24h-7.441c0.078,1.809,0.488,3.126,1.23,3.952
		s1.621,1.239,2.637,1.239c0.82,0,1.512-0.214,2.074-0.643s1.082-1.037,1.559-1.824l0.41,0.141c-0.32,0.993-0.92,1.913-1.799,2.758
		s-1.955,1.268-3.229,1.268c-1.469,0-2.604-0.555-3.404-1.664s-1.201-2.387-1.201-3.832c0-1.57,0.465-2.926,1.395-4.066
		s2.141-1.711,3.633-1.711C724.225,164.105,725.189,164.486,726.018,165.248z M720.404,166.145c-0.25,0.422-0.43,0.953-0.539,1.594
		h4.945c-0.086-0.781-0.234-1.363-0.445-1.746c-0.383-0.688-1.023-1.031-1.922-1.031
		C721.553,164.961,720.873,165.355,720.404,166.145z"/>
</g>
<g>
	<path fill="#FFFFFF" d="M212.778,24.346c-0.031,1.141,0.32,1.719,1.055,1.734c0.289,0,0.523-0.113,0.703-0.34
		c0.172-0.211,0.305-0.457,0.398-0.738c0.164-0.656,0.246-1.297,0.246-1.922h0.598c0,0.383-0.016,0.797-0.047,1.242
		c-0.062,0.438-0.184,0.855-0.363,1.254c-0.156,0.383-0.418,0.703-0.785,0.961c-0.352,0.266-0.832,0.406-1.441,0.422
		c-0.75-0.016-1.32-0.223-1.711-0.621c-0.398-0.398-0.629-0.887-0.691-1.465h-0.047c-0.352,0.609-0.809,1.105-1.371,1.488
		c-0.555,0.383-1.152,0.582-1.793,0.598c-0.383,0-0.848-0.102-1.395-0.305c-0.547-0.227-1.035-0.684-1.465-1.371l-0.047,0.047
		c0.125,0.789,0.309,1.598,0.551,2.426c0.227,0.836,0.348,1.699,0.363,2.59c0,0.578-0.074,1.043-0.223,1.395
		c-0.156,0.367-0.449,0.559-0.879,0.574c-0.422-0.016-0.711-0.207-0.867-0.574c-0.164-0.352-0.246-0.816-0.246-1.395
		c0.016-0.891,0.113-1.754,0.293-2.59c0.172-0.812,0.266-1.59,0.281-2.332v-9.973h2.121v7.816c0,0.656,0.176,1.184,0.527,1.582
		c0.336,0.422,0.863,0.633,1.582,0.633c0.641-0.023,1.191-0.211,1.652-0.562c0.453-0.32,0.75-0.641,0.891-0.961v-8.508h2.109V24.346
		z"/>
</g>
<g>
	<path fill="#FFFFFF" d="M25.959,167.137c1.438,0.047,3.316,0.102,5.637,0.164c0.227,0,0.434-0.047,0.621-0.141
		c0.195-0.102,0.309-0.254,0.34-0.457h0.48c-0.016,0.672-0.176,1.23-0.48,1.676c-0.305,0.492-0.824,0.738-1.559,0.738
		c-0.688,0-1.336-0.023-1.945-0.07v6.797c0,0.703,0.09,1.199,0.27,1.488c0.156,0.305,0.434,0.449,0.832,0.434
		c0.594,0,0.988-0.297,1.184-0.891c0.109-0.273,0.188-0.594,0.234-0.961c0.016-0.336,0.023-0.711,0.023-1.125h0.598
		c0,0.508-0.016,0.996-0.047,1.465c-0.062,0.445-0.188,0.852-0.375,1.219c-0.195,0.367-0.469,0.648-0.82,0.844
		c-0.352,0.219-0.824,0.328-1.418,0.328c-0.273,0-0.555-0.047-0.844-0.141c-0.281-0.062-0.559-0.199-0.832-0.41
		c-0.258-0.219-0.477-0.527-0.656-0.926c-0.172-0.406-0.258-0.93-0.258-1.57V169c-0.578-0.031-1.18-0.047-1.805-0.047
		c-0.414,0-0.742,0.074-0.984,0.223c-0.219,0.172-0.379,0.473-0.48,0.902h-0.48c0.055-0.992,0.289-1.734,0.703-2.227
		C24.279,167.375,24.967,167.137,25.959,167.137z"/>
</g>
</svg>
