<?xml version="1.0" encoding="UTF-8" standalone="no"?>
<svg width="455px" height="520px" viewBox="0 0 455 520" version="1.1" xmlns="http://www.w3.org/2000/svg" xmlns:xlink="http://www.w3.org/1999/xlink" xmlns:sketch="http://www.bohemiancoding.com/sketch/ns">
    <!-- Generator: Sketch 3.0 (7574) - http://www.bohemiancoding.com/sketch -->
    <title>Slice 1</title>
    <description>Created with Sketch.</description>
    <defs></defs>
    <g id="Page-1" stroke="none" stroke-width="1" fill="none" fill-rule="evenodd" sketch:type="MSPage">
        <g id="home_net_new" sketch:type="MSLayerGroup" transform="translate(1.000000, 1.000000)">
            <g id="Page-1">
                <g id="home_net_new">
                    <g id="Page-1" sketch:type="MSShapeGroup">
                        <path d="M0,518 C0,518 35.8839649,477.489898 81.1541295,426.315501 C108.282415,395.646899 147.361745,351.462249 163.268957,333.437851 C222.813346,265.979737 453,0 453,0" id="Path-4_1_" stroke="#66CCCC" stroke-width="2"></path>
                        <path d="M57,220.472871 C57,220.472871 71.3329639,204.297765 102.720593,200.468895 C112.164446,199.317738 138.114644,199.944734 155.25091,206.263618 C195.062377,220.944116 233,251 233,251" id="Path-2" stroke="#DC9724"></path>
                        <path d="M16,289 C16,289 63.4531063,272.328443 123.358953,262.558665 C159.259158,256.703791 210.980045,249.80501 232.053761,252.916754 C310.940652,264.556575 342,181 342,181" id="Path-4" stroke="#DC9724"></path>
                        <path d="M80,417 C80,417 232.903008,412.13989 234.218236,253.829447 C243.850965,148.856082 286,125 286,125" id="Path-5" stroke="#DC9724"></path>
                        <path d="M256,319.828927 C256,320.848951 225.644579,319.400076 233.660689,253.910119 C227.525293,185.636639 157,145 157,145" id="Path-5_1_" stroke="#DC9724"></path>
                        <path d="M325,305.044368 C312.402384,352.801764 232.73566,253.154801 232.73566,253.154801 L186,132" id="Path-6_1_" stroke="#DC9724"></path>
                        <path d="M374,176 C374,176 324.249691,208.828551 234.278953,252 C166.954278,246.4728 158,231.804617 158,231.804617" id="Path-7" stroke="#DC9724"></path>
                        <path d="M336,289 C336,289 282.525156,277.941217 233.639056,253.065654 C220.282497,253.158943 193,237 193,237" id="Path-8" stroke="#DC9724"></path>
                        <path d="M261.999885,196.000048 C261.999885,196.000048 262.289518,195.655317 233.816456,253.569098 C199.880883,380.741803 143,433 143,433" id="Path-9" stroke="#DC9724"></path>
                        <path d="M104,327 C104,327 183.024092,242.711301 234.749802,253.069439 C252.195622,243.218663 308,242 308,242" id="Path-10" stroke="#DC9724"></path>
                        <path d="M202.047606,275.999999 C202.047606,275.999999 199.450715,276.057214 232.617065,253.433846 C229.664831,163.916054 422,207.712318 422,207.712318" id="Path-11" stroke="#DC9724"></path>
                        <path d="M192.477928,109 C192.477928,109 422.087801,177.59793 231.071211,251.762519 C270.004327,360.857674 56,310.303743 56,310.303743" id="Path-12" stroke="#DC9724"></path>
                        <path d="M309,252.066021 C309,252.066021 258.33996,274.882476 235,251.357672 C252.462227,241.436776 291.107356,248.332911 291.107356,248.332911" id="Path-10_1_" stroke="#DC9724"></path>
                        <path d="M234,251 C251.660348,262.056664 297,251.325854 297,251.325854" id="Path-10_2_" stroke="#DC9724"></path>
                        <path d="M234,253 C257.576609,241.264271 304,245.905074 304,245.905074" id="Path-10_3_" stroke="#DC9724"></path>
                    </g>
                    <circle id="Oval" fill="#33CCCC" sketch:type="MSShapeGroup" cx="193.5" cy="276.5" r="11.5"></circle>
                    <circle id="Oval" fill="#990000" sketch:type="MSShapeGroup" cx="176.5" cy="105.5" r="11.5"></circle>
                    <circle id="Oval" fill="#33CC66" sketch:type="MSShapeGroup" cx="272.5" cy="329.5" r="11.5"></circle>
                    <circle id="Oval" fill="#CCCCCC" sketch:type="MSShapeGroup" cx="268.5" cy="178.5" r="11.5"></circle>
                    <path d="M264,174.865985 C264,174.454646 264.020926,174.023437 264.06776,173.573349 C264.11559,173.13121 264.1973,172.719871 264.312891,172.339334 C264.437449,171.943892 264.627774,171.624956 264.884863,171.384512 C265.118036,171.128171 265.444877,171 265.865386,171 C266.449316,171.015897 266.965486,171.317943 267.418879,171.908124 C267.847359,172.529106 268.213063,173.317008 268.517982,174.271829 C269.140774,176.305669 269.664915,178.30076 270.094393,180.256108 L270.141227,180.256108 C270.747079,179.014144 271.241326,177.802981 271.622973,176.623612 C272.005616,175.482992 272.301567,174.100935 272.512818,172.478434 C272.589546,172.0045 272.765921,171.631911 273.035963,171.360666 C273.294048,171.120222 273.60395,171 273.97065,171 C274.305462,171 274.558565,171.112274 274.729957,171.337814 C274.910318,171.57031 275,171.873349 275,172.245938 C274.98306,172.688077 274.746897,173.355757 274.287526,174.248977 C273.819187,175.149153 273.274119,176.1 272.651327,177.10152 C272.067397,178.103039 271.542259,178.980362 271.074916,179.732496 C270.584654,180.493571 270.331552,180.951607 270.315608,181.106604 C270.315608,181.207949 270.354471,181.397721 270.431198,181.676914 C270.479029,181.979953 270.538817,182.363472 270.618534,182.829456 C270.812845,183.753477 270.918471,184.890123 270.933418,186.241379 C270.915481,187.397896 270.486004,187.984103 269.636018,188 C269.22348,187.984103 268.918561,187.771479 268.725247,187.359147 C268.552858,186.994506 268.467162,186.652718 268.467162,186.334775 C268.485098,184.999416 268.691367,183.838925 269.085968,182.853302 C269.266328,182.372414 269.416795,181.972005 269.541353,181.654062 C269.649968,181.336119 269.704774,181.13045 269.704774,181.037054 C269.704774,180.943659 269.682852,180.761835 269.636018,180.489597 C269.588187,180.233255 269.511459,179.915313 269.403841,179.534775 C269.17565,178.758796 268.874717,177.893396 268.49307,176.938574 C268.127367,175.967855 267.702872,175.118352 267.220582,174.389071 C266.714376,173.674693 266.181266,173.310053 265.622248,173.294155 C265.192771,173.310053 264.895824,173.483928 264.732403,173.817767 C264.561011,174.151607 264.475315,174.501344 264.475315,174.865985 L264,174.865985 L264,174.865985 Z" id="Shape" fill="#FFFFFF" sketch:type="MSShapeGroup"></path>
                    <path d="M276.222591,325.113474 C277.082226,325.858062 277.512043,326.911024 277.512043,328.275289 L269.787791,328.275289 C269.868771,330.040635 270.293397,331.32683 271.063746,332.130946 C271.834095,332.937013 272.746678,333.341023 273.802533,333.341023 C274.652824,333.341023 275.373339,333.131211 275.955772,332.711588 C276.539244,332.29294 277.079111,331.699612 277.575374,330.931603 L278,331.071152 C277.668812,332.039214 277.04485,332.937013 276.132267,333.762598 C275.219684,334.588183 274.102575,335 272.7799,335 C271.254776,335 270.076412,334.458393 269.245847,333.376154 C268.415282,332.294892 268,331.046756 268,329.636625 C268,328.105487 268.482766,326.781234 269.449336,325.669719 C270.414867,324.557229 271.672135,324.000008 273.221138,324.000008 C274.361088,323.998056 275.362957,324.369862 276.222591,325.113474 L276.222591,325.113474 L276.222591,325.113474 Z M270.545105,326.275842 C270.292273,326.731728 270.109223,327.305367 270,328 L275,328 C274.913026,327.156286 274.764361,326.527552 274.550971,326.113797 C274.163633,325.370551 273.516383,325.000008 272.607201,325.000008 C271.706108,324.997848 271.018406,325.423486 270.545105,326.275842 L270.545105,326.275842 L270.545105,326.275842 Z" id="Shape" fill="#FFFFFF" sketch:type="MSShapeGroup"></path>
                    <path d="M180.110059,107.966734 C180.081159,109.116935 180.418319,109.699597 181.127318,109.714718 C181.405716,109.714718 181.630168,109.600806 181.803564,109.371976 C181.970218,109.159274 182.098338,108.91129 182.186963,108.628024 C182.344947,107.966734 182.423938,107.320565 182.423938,106.690524 L183,106.690524 C183,107.076613 182.984587,107.493952 182.954724,107.94254 C182.894999,108.384073 182.777475,108.804435 182.605041,109.206653 C182.455728,109.592742 182.202376,109.915323 181.849803,110.175403 C181.509754,110.443548 181.048326,110.584677 180.462631,110.600806 C179.740146,110.584677 179.191057,110.376008 178.814402,109.974798 C178.431966,109.573589 178.207514,109.080645 178.149715,108.497984 L178.103476,108.497984 C177.763426,109.111895 177.323192,109.611895 176.782773,109.997984 C176.248134,110.384073 175.674962,110.584677 175.055551,110.600806 C174.686602,110.600806 174.238661,110.497984 173.710765,110.293347 C173.183832,110.064516 172.714699,109.603831 172.29951,108.91129 L172.254235,108.958669 C172.374649,109.754032 172.552862,110.569556 172.78502,111.404234 C173.004656,112.246976 173.121217,113.116935 173.13374,114.015121 C173.13374,114.597782 173.063418,115.066532 172.918921,115.421371 C172.768644,115.791331 172.486393,115.984879 172.072168,116 C171.66565,115.983871 171.387252,115.791331 171.236975,115.421371 C171.078992,115.066532 171,114.59879 171,114.015121 C171.016376,113.116935 171.108854,112.246976 171.282251,111.404234 C171.447941,110.585685 171.539456,109.801411 171.552942,109.053427 L171.552942,99 L173.596131,99 L173.596131,106.879032 C173.596131,107.540323 173.765674,108.072581 174.103797,108.47379 C174.42747,108.899194 174.934174,109.111895 175.627759,109.111895 C176.245244,109.08871 176.77314,108.899194 177.217227,108.545363 C177.653608,108.222782 177.939713,107.899194 178.077466,107.576613 L178.077466,99 L180.107169,99 L180.110059,107.966734 L180.110059,107.966734 Z" id="Shape" fill="#FFFFFF" sketch:type="MSShapeGroup"></path>
                    <path d="M190.806911,271.437076 C192.268293,271.4843 194.176829,271.541572 196.535569,271.600854 C196.767276,271.600854 196.976626,271.55363 197.166667,271.459181 C197.364837,271.35569 197.480691,271.202964 197.512195,271 L198,271 C197.98374,271.675207 197.821138,272.234866 197.512195,272.683999 C197.202236,273.178347 196.674797,273.425521 195.927846,273.425521 C195.228659,273.425521 194.570122,273.402411 193.95122,273.355187 L193.95122,280.184627 C193.95122,280.890982 194.042683,281.389349 194.226626,281.679729 C194.384146,281.986184 194.667683,282.129867 195.071138,282.116805 C195.675813,282.116805 196.075203,281.817383 196.275407,281.220548 C196.386179,280.947249 196.466463,280.622708 196.513211,280.254961 C196.529472,279.917357 196.535569,279.540568 196.535569,279.124592 L197.143293,279.124592 C197.143293,279.635016 197.127033,280.125345 197.095528,280.596584 C197.03252,281.043708 196.904472,281.453655 196.714431,281.822406 C196.517276,282.190153 196.237805,282.472494 195.882114,282.670435 C195.523374,282.892489 195.044715,283 194.441057,283 C194.164634,283 193.876016,282.952776 193.582317,282.857322 C193.297764,282.795026 193.014228,282.658377 192.736789,282.445365 C192.474593,282.22532 192.252033,281.916855 192.071138,281.514946 C191.895325,281.107008 191.807927,280.579503 191.807927,279.938458 L191.807927,273.307963 C191.221545,273.276815 190.60874,273.260739 189.973577,273.260739 C189.552846,273.260739 189.219512,273.334087 188.973577,273.484803 C188.751016,273.658628 188.588415,273.961065 188.486789,274.391108 L188,274.391108 C188.055894,273.394373 188.293699,272.648832 188.714431,272.152474 C189.099593,271.676212 189.79878,271.437076 190.806911,271.437076 L190.806911,271.437076 L190.806911,271.437076 Z" id="Shape" fill="#FFFFFF" sketch:type="MSShapeGroup"></path>
                    <rect id="Rectangle-path" stroke="#DC9724" sketch:type="MSShapeGroup" x="76" y="415" width="3" height="3"></rect>
                    <rect id="Rectangle-path" stroke="#DC9724" sketch:type="MSShapeGroup" x="140" y="433" width="3" height="3"></rect>
                    <rect id="Rectangle-path" stroke="#DC9724" sketch:type="MSShapeGroup" x="256" y="319" width="3" height="3"></rect>
                    <rect id="Rectangle-path" stroke="#DC9724" sketch:type="MSShapeGroup" x="324" y="302" width="3" height="3"></rect>
                    <rect id="Rectangle-path" stroke="#DC9724" sketch:type="MSShapeGroup" x="337" y="289" width="3" height="3"></rect>
                    <rect id="Rectangle-path" stroke="#DC9724" sketch:type="MSShapeGroup" x="101" y="327" width="3" height="3"></rect>
                    <rect id="Rectangle-path" stroke="#DC9724" sketch:type="MSShapeGroup" x="54" y="309" width="3" height="3"></rect>
                    <rect id="Rectangle-path" stroke="#DC9724" sketch:type="MSShapeGroup" x="14" y="288" width="3" height="3"></rect>
                    <rect id="Rectangle-path" stroke="#DC9724" sketch:type="MSShapeGroup" x="55" y="220" width="3" height="3"></rect>
                    <rect id="Rectangle-path" stroke="#DC9724" sketch:type="MSShapeGroup" x="155" y="144" width="3" height="3"></rect>
                    <rect id="Rectangle-path" stroke="#DC9724" sketch:type="MSShapeGroup" x="184" y="129" width="3" height="3"></rect>
                    <rect id="Rectangle-path" stroke="#DC9724" sketch:type="MSShapeGroup" x="155" y="229" width="3" height="3"></rect>
                    <rect id="Rectangle-path" stroke="#DC9724" sketch:type="MSShapeGroup" x="190" y="234" width="3" height="3"></rect>
                    <rect id="Rectangle-path" stroke="#DC9724" sketch:type="MSShapeGroup" x="191" y="107" width="3" height="3"></rect>
                    <rect id="Rectangle-path" stroke="#DC9724" sketch:type="MSShapeGroup" x="286" y="123" width="3" height="3"></rect>
                    <rect id="Rectangle-path" stroke="#DC9724" sketch:type="MSShapeGroup" x="342" y="178" width="3" height="3"></rect>
                    <rect id="Rectangle-path" stroke="#DC9724" sketch:type="MSShapeGroup" x="373" y="173" width="3" height="3"></rect>
                    <rect id="Rectangle-path" stroke="#DC9724" sketch:type="MSShapeGroup" x="421" y="207" width="3" height="3"></rect>
                    <rect id="Rectangle-path" stroke="#DC9724" sketch:type="MSShapeGroup" x="309" y="240" width="3" height="3"></rect>
                    <rect id="Rectangle-path" stroke="#DC9724" sketch:type="MSShapeGroup" x="262" y="193" width="3" height="3"></rect>
                    <rect id="Rectangle-path" stroke="#DC9724" sketch:type="MSShapeGroup" x="309" y="251" width="3" height="3"></rect>
                    <rect id="Rectangle-path" stroke="#DC9724" sketch:type="MSShapeGroup" x="297" y="249" width="3" height="3"></rect>
                    <rect id="Rectangle-path" stroke="#DC9724" sketch:type="MSShapeGroup" x="291" y="247" width="3" height="3"></rect>
                    <rect id="Rectangle-path" stroke="#DC9724" sketch:type="MSShapeGroup" x="304" y="244" width="3" height="3"></rect>
                    <circle id="Oval" fill="#DDE849" sketch:type="MSShapeGroup" cx="327.5" cy="247.5" r="11.5"></circle>
                    <rect id="Rectangle-path" sketch:type="MSShapeGroup" x="321" y="236" width="30" height="32"></rect>
                    <g id="q" transform="translate(321.000000, 230.000000)" font-size="22" font-family="Helvetica" fill="#FFFFFF" sketch:type="MSTextLayer" font-weight="normal">
                        <text>
                            <tspan x="0" y="21">q</tspan>
                        </text>
                    </g>
                    <path d="M235,253.735419 C252.566258,243.316499 306,258 306,258" id="Path-10_4_" stroke="#DC9724" sketch:type="MSShapeGroup"></path>
                    <rect id="Rectangle-path" stroke="#DC9724" sketch:type="MSShapeGroup" x="307" y="256" width="3" height="3"></rect>
                    <path d="M301,244 C301,244 257.325426,273.161798 234,250.163813" id="Path-10_5_" stroke="#DC9724" sketch:type="MSShapeGroup"></path>
                    <rect id="Rectangle-path" stroke="#DC9724" sketch:type="MSShapeGroup" x="300" y="241" width="3" height="3"></rect>
                </g>
            </g>
        </g>
    </g>
</svg>