<?xml version="1.0" encoding="utf-8"?>
<!-- Generator: Adobe Illustrator 13.0.1, SVG Export Plug-In . SVG Version: 6.00 Build 14948)  -->
<!DOCTYPE svg PUBLIC "-//W3C//DTD SVG 1.1//EN" "http://www.w3.org/Graphics/SVG/1.1/DTD/svg11.dtd">
<svg version="1.1" id="Capa_1" xmlns="http://www.w3.org/2000/svg" xmlns:xlink="http://www.w3.org/1999/xlink" x="0px" y="0px"
	 width="200px" height="75px" viewBox="-23.858 -13.136 200 75" enable-background="new -23.858 -13.136 200 75"
	 xml:space="preserve">
<g enable-background="new    ">
	<path fill="#3E5A6D" d="M28.419,35.302c0-8.238,4.239-10.998,8.079-10.998c3.52,0,8.119,2.36,8.119,10.998
		c0,8.599-4.559,11.038-8.119,11.038S28.419,43.94,28.419,35.302z M42.737,35.302c0-4.119-1.04-9.398-6.239-9.398
		c-5.159,0-6.199,5.279-6.199,9.398c0,4.16,1.04,9.438,6.199,9.438C41.697,44.74,42.737,39.422,42.737,35.302z"/>
	<path fill="#3E5A6D" d="M47.539,32.143c0-2.56-0.2-5.119-0.96-7.599l1.76-0.24l0.72,3.479h0.08c1.08-2.199,3.12-3.479,5.599-3.479
		c3.52,0,8.199,2.84,8.199,11.158c0,8.479-5.439,10.878-8.318,10.878c-1.88,0-3.76-0.64-5.199-1.799v9.838h-1.88V32.143z
		 M49.418,42.661c1.32,1.159,2.919,2.079,4.719,2.079c2.399,0,6.919-1.68,6.919-9.398c0-7.358-3.959-9.438-6.359-9.438
		c-2.799,0-4.239,1.96-5.279,4.239V42.661z"/>
	<path fill="#3E5A6D" d="M80.416,44.421c-2.439,1.079-4.839,1.919-7.559,1.919c-6.199,0-8.479-5.559-8.479-10.918
		c0-5.358,2.359-11.118,8.599-11.118c3.559,0,7.759,2.56,7.759,11.318H66.258c0.36,7.438,3.439,9.118,6.679,9.118
		c2.399,0,4.679-0.88,6.679-2.079L80.416,44.421z M78.856,34.022c0.2-3.64-1.959-8.119-6.119-8.119
		c-4.119,0-6.599,4.399-6.479,8.119H78.856z"/>
	<path fill="#3E5A6D" d="M85.218,45.9h-1.879V35.302c0-3.599-0.12-7.198-0.84-10.798h1.759l0.76,6.079h0.08
		c0.8-3.159,4.159-6.279,7.519-6.279c3.839,0,4.919,3.319,4.919,6.52V45.9h-1.879V31.703c0-2.439,0-5.8-3.28-5.8
		c-3.039,0-7.159,3.04-7.159,11.278V45.9z"/>
</g>
<g enable-background="new    ">
	<path fill="#3E5A6D" d="M114.055,46.34l-0.64-2.399c-1.8,1.6-2.759,2.399-5.239,2.399c-3.76,0-8.558-2.879-8.558-11.277
		c0-8.159,5.199-10.998,8.678-10.998c1.8,0,3.04,0.439,4.52,1.239v-9.078h2.999v22.036c0,2.64,0.24,5.279,1.08,7.719L114.055,46.34z
		 M112.815,28.344c-1.16-0.96-2.52-1.76-4.04-1.76c-3.199,0-6.158,2.68-6.158,8.599c0,6.958,3.639,8.638,5.639,8.638
		c2.32,0,3.76-1.72,4.56-3.679V28.344z"/>
	<path fill="#3E5A6D" d="M120.097,25.544c2.04-0.8,3.919-1.479,6.159-1.479c4.079,0,6.559,3.359,6.559,6.918v9.279
		c0,1.959,0.279,3.959,0.92,5.799l-2.8,0.359l-0.76-2.679c-1.439,1.72-3.079,2.599-5.319,2.599c-4.079,0-6.358-3.199-6.358-6.998
		c0-4.119,2.52-7.719,6.839-7.719c1.6,0,3.119,0.479,4.479,1.04v-2.04c0-2.359-1.439-4.039-3.679-4.039c-1.88,0-3.64,0.88-5.359,1.6
		L120.097,25.544z M129.814,35.183c-1.279-0.561-2.639-1.04-4.078-1.04c-3.04,0-4.24,2.64-4.24,5.359
		c0,1.999,1.04,4.318,3.359,4.318c2.32,0,3.72-1.959,4.959-3.679V35.183z"/>
	<path fill="#3E5A6D" d="M150.975,27.023h-7.639v12.198c0,2.079,0.039,4.599,2.759,4.599c2.28,0,3.68-1.879,4.52-3.759l2.88,0.72
		c-1.44,3.079-3.88,5.559-7.479,5.559c-3.479,0-5.679-1.68-5.679-8.078V27.023h-4.6v-2.52h4.6v-6.559h3v6.559h7.639V27.023z"/>
	<path fill="#3E5A6D" d="M156.096,25.544c2.04-0.8,3.92-1.479,6.159-1.479c4.079,0,6.56,3.359,6.56,6.918v9.279
		c0,1.959,0.279,3.959,0.92,5.799l-2.801,0.359l-0.76-2.679c-1.439,1.72-3.079,2.599-5.318,2.599c-4.08,0-6.359-3.199-6.359-6.998
		c0-4.119,2.52-7.719,6.84-7.719c1.6,0,3.119,0.479,4.479,1.04v-2.04c0-2.359-1.439-4.039-3.68-4.039c-1.879,0-3.639,0.88-5.359,1.6
		L156.096,25.544z M165.814,35.183c-1.279-0.561-2.64-1.04-4.079-1.04c-3.04,0-4.239,2.64-4.239,5.359
		c0,1.999,1.039,4.318,3.359,4.318c2.319,0,3.719-1.959,4.959-3.679V35.183z"/>
</g>
<rect x="151.443" y="50.369" fill="none" width="25.994" height="11.398"/>
<g enable-background="new    ">
	<path fill="#3E5A6D" d="M155.892,51.95c-0.03-0.63-0.56-1.1-1.189-1.1c-1.669,0-1.8,2.169-1.8,3.389
		c0,1.189,0.121,3.288,1.74,3.288c0.749,0,1.318-0.56,1.349-1.3h0.47c-0.1,1.06-0.789,1.699-1.859,1.699
		c-1.898,0-2.198-2.179-2.198-3.638c0-1.529,0.271-3.838,2.299-3.838c0.88,0,1.579,0.619,1.659,1.499H155.892z"/>
	<path fill="#3E5A6D" d="M161.471,50.991h-3.048v2.898h2.188v0.399h-2.188v3.099h3.118v0.399h-3.588v-7.196h3.518V50.991z"/>
	<path fill="#3E5A6D" d="M162.883,50.591h1.709c1.209,0,1.909,0.81,1.909,1.979c0,0.909-0.51,1.719-1.39,1.999l1.939,3.218h-0.59
		l-1.789-3.108h-1.318v3.108h-0.471V50.591z M163.354,54.279h1.168c0.641,0,1.48-0.49,1.48-1.749c0-0.84-0.4-1.539-1.41-1.539
		h-1.238V54.279z"/>
	<path fill="#3E5A6D" d="M168.183,51.24l-0.021,0.021v6.526h-0.469v-7.196h0.679l2.448,6.167l0.021-0.021v-6.146h0.47v7.267h-0.49
		L168.183,51.24z"/>
</g>
</svg>
